<svg width="437" height="442" viewBox="0 0 437 442" fill="none" xmlns="http://www.w3.org/2000/svg">
<g filter="url(#filter0_b_174_1732)">
<rect x="14" y="2" width="320" height="529" rx="39.1852" fill="white" fill-opacity="0.2"/>
<rect x="13" y="1" width="322" height="531" rx="40.1852" stroke="white" stroke-width="2"/>
<rect x="247.796" y="291.5" width="52" height="30" rx="12" fill="#9EE774"/>
<path d="M256.396 311.5V310.36H256.888C257.312 310.36 257.648 310.236 257.896 309.988C258.144 309.732 258.268 309.388 258.268 308.956V302.56H259.456V308.932C259.456 309.452 259.348 309.904 259.132 310.288C258.924 310.672 258.628 310.972 258.244 311.188C257.86 311.396 257.408 311.5 256.888 311.5H256.396ZM263.185 311.644C262.761 311.644 262.385 311.568 262.057 311.416C261.737 311.256 261.485 311.04 261.301 310.768C261.117 310.488 261.025 310.168 261.025 309.808C261.025 309.464 261.097 309.156 261.241 308.884C261.393 308.604 261.625 308.368 261.937 308.176C262.257 307.984 262.657 307.848 263.137 307.768L265.537 307.372V308.308L263.389 308.668C262.973 308.74 262.669 308.872 262.477 309.064C262.293 309.256 262.201 309.492 262.201 309.772C262.201 310.036 262.305 310.256 262.513 310.432C262.729 310.608 262.997 310.696 263.317 310.696C263.725 310.696 264.077 310.612 264.373 310.444C264.677 310.268 264.913 310.032 265.081 309.736C265.257 309.44 265.345 309.112 265.345 308.752V307.108C265.345 306.756 265.213 306.472 264.949 306.256C264.693 306.032 264.353 305.92 263.929 305.92C263.561 305.92 263.233 306.016 262.945 306.208C262.665 306.392 262.457 306.64 262.321 306.952L261.349 306.448C261.469 306.152 261.661 305.888 261.925 305.656C262.189 305.416 262.497 305.228 262.849 305.092C263.201 304.956 263.569 304.888 263.953 304.888C264.449 304.888 264.885 304.984 265.261 305.176C265.637 305.36 265.929 305.62 266.137 305.956C266.353 306.284 266.461 306.668 266.461 307.108V311.5H265.369V310.276L265.573 310.348C265.437 310.604 265.253 310.828 265.021 311.02C264.789 311.212 264.517 311.364 264.205 311.476C263.893 311.588 263.553 311.644 263.185 311.644ZM268.191 311.5V305.032H269.283V306.352L269.127 306.148C269.287 305.74 269.543 305.428 269.895 305.212C270.247 304.996 270.643 304.888 271.083 304.888C271.587 304.888 272.039 305.028 272.439 305.308C272.847 305.588 273.127 305.956 273.279 306.412L272.967 306.424C273.135 305.92 273.419 305.54 273.819 305.284C274.219 305.02 274.663 304.888 275.151 304.888C275.599 304.888 276.003 304.992 276.363 305.2C276.731 305.408 277.023 305.696 277.239 306.064C277.455 306.432 277.563 306.848 277.563 307.312V311.5H276.435V307.672C276.435 307.312 276.371 307.008 276.243 306.76C276.115 306.512 275.939 306.32 275.715 306.184C275.499 306.04 275.243 305.968 274.947 305.968C274.659 305.968 274.399 306.04 274.167 306.184C273.943 306.32 273.763 306.516 273.627 306.772C273.499 307.02 273.435 307.32 273.435 307.672V311.5H272.307V307.672C272.307 307.312 272.243 307.008 272.115 306.76C271.987 306.512 271.811 306.32 271.587 306.184C271.371 306.04 271.115 305.968 270.819 305.968C270.531 305.968 270.271 306.04 270.039 306.184C269.815 306.32 269.635 306.516 269.499 306.772C269.371 307.02 269.307 307.32 269.307 307.672V311.5H268.191ZM282.124 311.644C281.5 311.644 280.944 311.496 280.456 311.2C279.968 310.904 279.584 310.5 279.304 309.988C279.024 309.468 278.884 308.888 278.884 308.248C278.884 307.6 279.02 307.024 279.292 306.52C279.572 306.016 279.948 305.62 280.42 305.332C280.9 305.036 281.436 304.888 282.028 304.888C282.508 304.888 282.932 304.976 283.3 305.152C283.676 305.32 283.992 305.552 284.248 305.848C284.512 306.136 284.712 306.468 284.848 306.844C284.992 307.212 285.064 307.596 285.064 307.996C285.064 308.084 285.056 308.184 285.04 308.296C285.032 308.4 285.02 308.5 285.004 308.596H279.7V307.636H284.356L283.828 308.068C283.9 307.652 283.86 307.28 283.708 306.952C283.556 306.624 283.332 306.364 283.036 306.172C282.74 305.98 282.404 305.884 282.028 305.884C281.652 305.884 281.308 305.98 280.996 306.172C280.684 306.364 280.44 306.64 280.264 307C280.096 307.352 280.028 307.772 280.06 308.26C280.028 308.732 280.1 309.148 280.276 309.508C280.46 309.86 280.716 310.136 281.044 310.336C281.38 310.528 281.744 310.624 282.136 310.624C282.568 310.624 282.932 310.524 283.228 310.324C283.524 310.124 283.764 309.868 283.948 309.556L284.884 310.036C284.756 310.332 284.556 310.604 284.284 310.852C284.02 311.092 283.704 311.284 283.336 311.428C282.976 311.572 282.572 311.644 282.124 311.644ZM288.835 311.644C288.187 311.644 287.623 311.484 287.143 311.164C286.663 310.844 286.323 310.412 286.123 309.868L287.011 309.436C287.195 309.82 287.447 310.124 287.767 310.348C288.087 310.572 288.443 310.684 288.835 310.684C289.187 310.684 289.479 310.6 289.711 310.432C289.943 310.264 290.059 310.044 290.059 309.772C290.059 309.58 290.003 309.428 289.891 309.316C289.787 309.196 289.659 309.104 289.507 309.04C289.355 308.968 289.215 308.916 289.087 308.884L288.115 308.608C287.531 308.44 287.103 308.2 286.831 307.888C286.567 307.576 286.435 307.212 286.435 306.796C286.435 306.412 286.531 306.08 286.723 305.8C286.923 305.512 287.191 305.288 287.527 305.128C287.871 304.968 288.255 304.888 288.679 304.888C289.247 304.888 289.755 305.032 290.203 305.32C290.659 305.608 290.983 306.012 291.175 306.532L290.263 306.952C290.119 306.616 289.903 306.352 289.615 306.16C289.327 305.96 289.003 305.86 288.643 305.86C288.315 305.86 288.055 305.944 287.863 306.112C287.671 306.272 287.575 306.476 287.575 306.724C287.575 306.908 287.623 307.06 287.719 307.18C287.815 307.292 287.931 307.38 288.067 307.444C288.203 307.5 288.335 307.548 288.463 307.588L289.519 307.9C290.047 308.052 290.455 308.288 290.743 308.608C291.039 308.928 291.187 309.312 291.187 309.76C291.187 310.12 291.087 310.444 290.887 310.732C290.687 311.02 290.411 311.244 290.059 311.404C289.707 311.564 289.299 311.644 288.835 311.644Z" fill="#1D2939"/>
<path d="M243.798 278.498C243.798 278.312 243.85 278.13 243.947 277.972C244.045 277.814 244.185 277.687 244.351 277.604C244.517 277.521 244.703 277.485 244.888 277.502C245.073 277.519 245.249 277.587 245.398 277.698L253.396 283.7C254.164 284.276 253.756 285.5 252.796 285.5H248.849C248.696 285.5 248.544 285.535 248.407 285.603C248.269 285.67 248.149 285.769 248.056 285.89L245.59 289.105C245.009 289.863 243.797 289.452 243.797 288.496L243.798 278.498Z" fill="#9EE774"/>
<rect x="101.5" y="105.024" width="145" height="42" rx="12" fill="white"/>
<path d="M117.304 131.168C116.696 131.168 116.148 131.02 115.66 130.724C115.18 130.428 114.8 130.024 114.52 129.512C114.24 129 114.1 128.428 114.1 127.796C114.1 127.148 114.24 126.572 114.52 126.068C114.8 125.556 115.18 125.152 115.66 124.856C116.148 124.56 116.696 124.412 117.304 124.412C117.84 124.412 118.316 124.528 118.732 124.76C119.148 124.984 119.476 125.288 119.716 125.672L119.536 125.948V121.94H120.664V131.024H119.572V129.644L119.716 129.836C119.492 130.26 119.164 130.588 118.732 130.82C118.308 131.052 117.832 131.168 117.304 131.168ZM117.4 130.088C117.808 130.088 118.172 129.988 118.492 129.788C118.812 129.588 119.064 129.316 119.248 128.972C119.44 128.62 119.536 128.228 119.536 127.796C119.536 127.356 119.44 126.964 119.248 126.62C119.064 126.268 118.812 125.992 118.492 125.792C118.172 125.592 117.808 125.492 117.4 125.492C117 125.492 116.636 125.596 116.308 125.804C115.988 126.004 115.736 126.276 115.552 126.62C115.368 126.956 115.276 127.348 115.276 127.796C115.276 128.228 115.368 128.62 115.552 128.972C115.736 129.316 115.988 129.588 116.308 129.788C116.628 129.988 116.992 130.088 117.4 130.088ZM125.367 131.168C124.743 131.168 124.187 131.02 123.699 130.724C123.211 130.428 122.827 130.024 122.547 129.512C122.267 128.992 122.127 128.412 122.127 127.772C122.127 127.124 122.263 126.548 122.535 126.044C122.815 125.54 123.191 125.144 123.663 124.856C124.143 124.56 124.679 124.412 125.271 124.412C125.751 124.412 126.175 124.5 126.543 124.676C126.919 124.844 127.235 125.076 127.491 125.372C127.755 125.66 127.955 125.992 128.091 126.368C128.235 126.736 128.307 127.12 128.307 127.52C128.307 127.608 128.299 127.708 128.283 127.82C128.275 127.924 128.263 128.024 128.247 128.12H122.943V127.16H127.599L127.071 127.592C127.143 127.176 127.103 126.804 126.951 126.476C126.799 126.148 126.575 125.888 126.279 125.696C125.983 125.504 125.647 125.408 125.271 125.408C124.895 125.408 124.551 125.504 124.239 125.696C123.927 125.888 123.683 126.164 123.507 126.524C123.339 126.876 123.271 127.296 123.303 127.784C123.271 128.256 123.343 128.672 123.519 129.032C123.703 129.384 123.959 129.66 124.287 129.86C124.623 130.052 124.987 130.148 125.379 130.148C125.811 130.148 126.175 130.048 126.471 129.848C126.767 129.648 127.007 129.392 127.191 129.08L128.127 129.56C127.999 129.856 127.799 130.128 127.527 130.376C127.263 130.616 126.947 130.808 126.579 130.952C126.219 131.096 125.815 131.168 125.367 131.168ZM132.078 131.168C131.43 131.168 130.866 131.008 130.386 130.688C129.906 130.368 129.566 129.936 129.366 129.392L130.254 128.96C130.438 129.344 130.69 129.648 131.01 129.872C131.33 130.096 131.686 130.208 132.078 130.208C132.43 130.208 132.722 130.124 132.954 129.956C133.186 129.788 133.302 129.568 133.302 129.296C133.302 129.104 133.246 128.952 133.134 128.84C133.03 128.72 132.902 128.628 132.75 128.564C132.598 128.492 132.458 128.44 132.33 128.408L131.358 128.132C130.774 127.964 130.346 127.724 130.074 127.412C129.81 127.1 129.678 126.736 129.678 126.32C129.678 125.936 129.774 125.604 129.966 125.324C130.166 125.036 130.434 124.812 130.77 124.652C131.114 124.492 131.498 124.412 131.922 124.412C132.49 124.412 132.998 124.556 133.446 124.844C133.902 125.132 134.226 125.536 134.418 126.056L133.506 126.476C133.362 126.14 133.146 125.876 132.858 125.684C132.57 125.484 132.246 125.384 131.886 125.384C131.558 125.384 131.298 125.468 131.106 125.636C130.914 125.796 130.818 126 130.818 126.248C130.818 126.432 130.866 126.584 130.962 126.704C131.058 126.816 131.174 126.904 131.31 126.968C131.446 127.024 131.578 127.072 131.706 127.112L132.762 127.424C133.29 127.576 133.698 127.812 133.986 128.132C134.282 128.452 134.43 128.836 134.43 129.284C134.43 129.644 134.33 129.968 134.13 130.256C133.93 130.544 133.654 130.768 133.302 130.928C132.95 131.088 132.542 131.168 132.078 131.168ZM135.891 131.024V124.556H137.007V131.024H135.891ZM135.891 123.524V122.084H137.007V123.524H135.891ZM141.823 133.664C141.367 133.664 140.943 133.592 140.551 133.448C140.167 133.304 139.835 133.104 139.555 132.848C139.283 132.6 139.075 132.308 138.931 131.972L139.975 131.492C140.087 131.796 140.299 132.052 140.611 132.26C140.931 132.476 141.331 132.584 141.811 132.584C142.179 132.584 142.511 132.512 142.807 132.368C143.111 132.232 143.351 132.024 143.527 131.744C143.703 131.472 143.791 131.14 143.791 130.748V129.296L143.995 129.512C143.771 129.952 143.447 130.288 143.023 130.52C142.607 130.752 142.147 130.868 141.643 130.868C141.035 130.868 140.491 130.728 140.011 130.448C139.531 130.16 139.155 129.772 138.883 129.284C138.611 128.788 138.475 128.24 138.475 127.64C138.475 127.032 138.611 126.484 138.883 125.996C139.155 125.508 139.527 125.124 139.999 124.844C140.479 124.556 141.023 124.412 141.631 124.412C142.135 124.412 142.591 124.528 142.999 124.76C143.415 124.984 143.747 125.296 143.995 125.696L143.827 125.996V124.556H144.919V130.748C144.919 131.308 144.787 131.808 144.523 132.248C144.259 132.688 143.891 133.032 143.419 133.28C142.955 133.536 142.423 133.664 141.823 133.664ZM141.739 129.788C142.123 129.788 142.467 129.692 142.771 129.5C143.083 129.308 143.331 129.052 143.515 128.732C143.699 128.404 143.791 128.04 143.791 127.64C143.791 127.248 143.699 126.888 143.515 126.56C143.331 126.232 143.083 125.972 142.771 125.78C142.467 125.588 142.123 125.492 141.739 125.492C141.347 125.492 140.991 125.588 140.671 125.78C140.351 125.972 140.099 126.232 139.915 126.56C139.739 126.88 139.651 127.24 139.651 127.64C139.651 128.04 139.739 128.404 139.915 128.732C140.099 129.052 140.347 129.308 140.659 129.5C140.979 129.692 141.339 129.788 141.739 129.788ZM146.649 131.024V124.556H147.741V125.816L147.561 125.708C147.721 125.3 147.977 124.984 148.329 124.76C148.689 124.528 149.109 124.412 149.589 124.412C150.053 124.412 150.465 124.516 150.825 124.724C151.193 124.932 151.481 125.22 151.689 125.588C151.905 125.956 152.013 126.372 152.013 126.836V131.024H150.885V127.196C150.885 126.836 150.821 126.532 150.693 126.284C150.565 126.036 150.381 125.844 150.141 125.708C149.909 125.564 149.641 125.492 149.337 125.492C149.033 125.492 148.761 125.564 148.521 125.708C148.289 125.844 148.105 126.04 147.969 126.296C147.833 126.544 147.765 126.844 147.765 127.196V131.024H146.649ZM153.802 132.692V132.152C154.05 132.088 154.238 131.964 154.366 131.78C154.494 131.596 154.566 131.344 154.582 131.024H154.042V129.584H155.206V130.604C155.206 131.18 155.086 131.644 154.846 131.996C154.614 132.348 154.266 132.58 153.802 132.692ZM162.27 131.168C161.638 131.168 161.074 131.02 160.578 130.724C160.09 130.428 159.706 130.024 159.426 129.512C159.146 129 159.006 128.424 159.006 127.784C159.006 127.136 159.146 126.56 159.426 126.056C159.706 125.552 160.09 125.152 160.578 124.856C161.074 124.56 161.638 124.412 162.27 124.412C162.694 124.412 163.09 124.488 163.458 124.64C163.826 124.792 164.15 124.996 164.43 125.252C164.71 125.508 164.914 125.808 165.042 126.152L164.046 126.632C163.894 126.296 163.662 126.024 163.35 125.816C163.038 125.6 162.678 125.492 162.27 125.492C161.878 125.492 161.522 125.592 161.202 125.792C160.89 125.992 160.642 126.264 160.458 126.608C160.274 126.952 160.182 127.348 160.182 127.796C160.182 128.228 160.274 128.62 160.458 128.972C160.642 129.316 160.89 129.588 161.202 129.788C161.522 129.988 161.878 130.088 162.27 130.088C162.678 130.088 163.038 129.984 163.35 129.776C163.662 129.56 163.894 129.276 164.046 128.924L165.042 129.428C164.914 129.764 164.71 130.064 164.43 130.328C164.15 130.584 163.826 130.788 163.458 130.94C163.09 131.092 162.694 131.168 162.27 131.168ZM169.573 131.168C168.949 131.168 168.385 131.024 167.881 130.736C167.377 130.44 166.977 130.036 166.681 129.524C166.385 129.012 166.237 128.432 166.237 127.784C166.237 127.136 166.381 126.56 166.669 126.056C166.965 125.552 167.365 125.152 167.869 124.856C168.373 124.56 168.941 124.412 169.573 124.412C170.197 124.412 170.761 124.56 171.265 124.856C171.769 125.144 172.165 125.54 172.453 126.044C172.749 126.548 172.897 127.128 172.897 127.784C172.897 128.44 172.745 129.024 172.441 129.536C172.137 130.04 171.733 130.44 171.229 130.736C170.733 131.024 170.181 131.168 169.573 131.168ZM169.573 130.088C169.973 130.088 170.333 129.988 170.653 129.788C170.981 129.588 171.237 129.312 171.421 128.96C171.613 128.608 171.709 128.216 171.709 127.784C171.709 127.344 171.613 126.956 171.421 126.62C171.237 126.276 170.981 126.004 170.653 125.804C170.333 125.596 169.973 125.492 169.573 125.492C169.165 125.492 168.797 125.596 168.469 125.804C168.149 126.004 167.893 126.276 167.701 126.62C167.509 126.956 167.413 127.344 167.413 127.784C167.413 128.216 167.509 128.608 167.701 128.96C167.893 129.312 168.149 129.588 168.469 129.788C168.797 129.988 169.165 130.088 169.573 130.088ZM177.292 131.168C176.684 131.168 176.136 131.02 175.648 130.724C175.168 130.428 174.788 130.024 174.508 129.512C174.228 129 174.088 128.428 174.088 127.796C174.088 127.148 174.228 126.572 174.508 126.068C174.788 125.556 175.168 125.152 175.648 124.856C176.136 124.56 176.684 124.412 177.292 124.412C177.828 124.412 178.304 124.528 178.72 124.76C179.136 124.984 179.464 125.288 179.704 125.672L179.524 125.948V121.94H180.652V131.024H179.56V129.644L179.704 129.836C179.48 130.26 179.152 130.588 178.72 130.82C178.296 131.052 177.82 131.168 177.292 131.168ZM177.388 130.088C177.796 130.088 178.16 129.988 178.48 129.788C178.8 129.588 179.052 129.316 179.236 128.972C179.428 128.62 179.524 128.228 179.524 127.796C179.524 127.356 179.428 126.964 179.236 126.62C179.052 126.268 178.8 125.992 178.48 125.792C178.16 125.592 177.796 125.492 177.388 125.492C176.988 125.492 176.624 125.596 176.296 125.804C175.976 126.004 175.724 126.276 175.54 126.62C175.356 126.956 175.264 127.348 175.264 127.796C175.264 128.228 175.356 128.62 175.54 128.972C175.724 129.316 175.976 129.588 176.296 129.788C176.616 129.988 176.98 130.088 177.388 130.088ZM185.356 131.168C184.732 131.168 184.176 131.02 183.688 130.724C183.2 130.428 182.816 130.024 182.536 129.512C182.256 128.992 182.116 128.412 182.116 127.772C182.116 127.124 182.252 126.548 182.524 126.044C182.804 125.54 183.18 125.144 183.652 124.856C184.132 124.56 184.668 124.412 185.26 124.412C185.74 124.412 186.164 124.5 186.532 124.676C186.908 124.844 187.224 125.076 187.48 125.372C187.744 125.66 187.944 125.992 188.08 126.368C188.224 126.736 188.296 127.12 188.296 127.52C188.296 127.608 188.288 127.708 188.272 127.82C188.264 127.924 188.252 128.024 188.236 128.12H182.932V127.16H187.588L187.06 127.592C187.132 127.176 187.092 126.804 186.94 126.476C186.788 126.148 186.564 125.888 186.268 125.696C185.972 125.504 185.636 125.408 185.26 125.408C184.884 125.408 184.54 125.504 184.228 125.696C183.916 125.888 183.672 126.164 183.496 126.524C183.328 126.876 183.26 127.296 183.292 127.784C183.26 128.256 183.332 128.672 183.508 129.032C183.692 129.384 183.948 129.66 184.276 129.86C184.612 130.052 184.976 130.148 185.368 130.148C185.8 130.148 186.164 130.048 186.46 129.848C186.756 129.648 186.996 129.392 187.18 129.08L188.116 129.56C187.988 129.856 187.788 130.128 187.516 130.376C187.252 130.616 186.936 130.808 186.568 130.952C186.208 131.096 185.804 131.168 185.356 131.168ZM189.943 132.692V132.152C190.191 132.088 190.379 131.964 190.507 131.78C190.635 131.596 190.707 131.344 190.723 131.024H190.183V129.584H191.347V130.604C191.347 131.18 191.227 131.644 190.987 131.996C190.755 132.348 190.407 132.58 189.943 132.692ZM198.495 133.664C198.039 133.664 197.615 133.592 197.223 133.448C196.839 133.304 196.507 133.104 196.227 132.848C195.955 132.6 195.747 132.308 195.603 131.972L196.647 131.492C196.759 131.796 196.971 132.052 197.283 132.26C197.603 132.476 198.003 132.584 198.483 132.584C198.851 132.584 199.183 132.512 199.479 132.368C199.783 132.232 200.023 132.024 200.199 131.744C200.375 131.472 200.463 131.14 200.463 130.748V129.296L200.667 129.512C200.443 129.952 200.119 130.288 199.695 130.52C199.279 130.752 198.819 130.868 198.315 130.868C197.707 130.868 197.163 130.728 196.683 130.448C196.203 130.16 195.827 129.772 195.555 129.284C195.283 128.788 195.147 128.24 195.147 127.64C195.147 127.032 195.283 126.484 195.555 125.996C195.827 125.508 196.199 125.124 196.671 124.844C197.151 124.556 197.695 124.412 198.303 124.412C198.807 124.412 199.263 124.528 199.671 124.76C200.087 124.984 200.419 125.296 200.667 125.696L200.499 125.996V124.556H201.591V130.748C201.591 131.308 201.459 131.808 201.195 132.248C200.931 132.688 200.563 133.032 200.091 133.28C199.627 133.536 199.095 133.664 198.495 133.664ZM198.411 129.788C198.795 129.788 199.139 129.692 199.443 129.5C199.755 129.308 200.003 129.052 200.187 128.732C200.371 128.404 200.463 128.04 200.463 127.64C200.463 127.248 200.371 126.888 200.187 126.56C200.003 126.232 199.755 125.972 199.443 125.78C199.139 125.588 198.795 125.492 198.411 125.492C198.019 125.492 197.663 125.588 197.343 125.78C197.023 125.972 196.771 126.232 196.587 126.56C196.411 126.88 196.323 127.24 196.323 127.64C196.323 128.04 196.411 128.404 196.587 128.732C196.771 129.052 197.019 129.308 197.331 129.5C197.651 129.692 198.011 129.788 198.411 129.788ZM205.217 131.168C204.793 131.168 204.417 131.092 204.089 130.94C203.769 130.78 203.517 130.564 203.333 130.292C203.149 130.012 203.057 129.692 203.057 129.332C203.057 128.988 203.129 128.68 203.273 128.408C203.425 128.128 203.657 127.892 203.969 127.7C204.289 127.508 204.689 127.372 205.169 127.292L207.569 126.896V127.832L205.421 128.192C205.005 128.264 204.701 128.396 204.509 128.588C204.325 128.78 204.233 129.016 204.233 129.296C204.233 129.56 204.337 129.78 204.545 129.956C204.761 130.132 205.029 130.22 205.349 130.22C205.757 130.22 206.109 130.136 206.405 129.968C206.709 129.792 206.945 129.556 207.113 129.26C207.289 128.964 207.377 128.636 207.377 128.276V126.632C207.377 126.28 207.245 125.996 206.981 125.78C206.725 125.556 206.385 125.444 205.961 125.444C205.593 125.444 205.265 125.54 204.977 125.732C204.697 125.916 204.489 126.164 204.353 126.476L203.381 125.972C203.501 125.676 203.693 125.412 203.957 125.18C204.221 124.94 204.529 124.752 204.881 124.616C205.233 124.48 205.601 124.412 205.985 124.412C206.481 124.412 206.917 124.508 207.293 124.7C207.669 124.884 207.961 125.144 208.169 125.48C208.385 125.808 208.493 126.192 208.493 126.632V131.024H207.401V129.8L207.605 129.872C207.469 130.128 207.285 130.352 207.053 130.544C206.821 130.736 206.549 130.888 206.237 131C205.925 131.112 205.585 131.168 205.217 131.168ZM210.223 131.024V124.556H211.315V125.876L211.159 125.672C211.319 125.264 211.575 124.952 211.927 124.736C212.279 124.52 212.675 124.412 213.115 124.412C213.619 124.412 214.071 124.552 214.471 124.832C214.879 125.112 215.159 125.48 215.311 125.936L214.999 125.948C215.167 125.444 215.451 125.064 215.851 124.808C216.251 124.544 216.695 124.412 217.183 124.412C217.631 124.412 218.035 124.516 218.395 124.724C218.763 124.932 219.055 125.22 219.271 125.588C219.487 125.956 219.595 126.372 219.595 126.836V131.024H218.467V127.196C218.467 126.836 218.403 126.532 218.275 126.284C218.147 126.036 217.971 125.844 217.747 125.708C217.531 125.564 217.275 125.492 216.979 125.492C216.691 125.492 216.431 125.564 216.199 125.708C215.975 125.844 215.795 126.04 215.659 126.296C215.531 126.544 215.467 126.844 215.467 127.196V131.024H214.339V127.196C214.339 126.836 214.275 126.532 214.147 126.284C214.019 126.036 213.843 125.844 213.619 125.708C213.403 125.564 213.147 125.492 212.851 125.492C212.563 125.492 212.303 125.564 212.071 125.708C211.847 125.844 211.667 126.04 211.531 126.296C211.403 126.544 211.339 126.844 211.339 127.196V131.024H210.223ZM224.156 131.168C223.532 131.168 222.976 131.02 222.488 130.724C222 130.428 221.616 130.024 221.336 129.512C221.056 128.992 220.916 128.412 220.916 127.772C220.916 127.124 221.052 126.548 221.324 126.044C221.604 125.54 221.98 125.144 222.452 124.856C222.932 124.56 223.468 124.412 224.06 124.412C224.54 124.412 224.964 124.5 225.332 124.676C225.708 124.844 226.024 125.076 226.28 125.372C226.544 125.66 226.744 125.992 226.88 126.368C227.024 126.736 227.096 127.12 227.096 127.52C227.096 127.608 227.088 127.708 227.072 127.82C227.064 127.924 227.052 128.024 227.036 128.12H221.732V127.16H226.388L225.86 127.592C225.932 127.176 225.892 126.804 225.74 126.476C225.588 126.148 225.364 125.888 225.068 125.696C224.772 125.504 224.436 125.408 224.06 125.408C223.684 125.408 223.34 125.504 223.028 125.696C222.716 125.888 222.472 126.164 222.296 126.524C222.128 126.876 222.06 127.296 222.092 127.784C222.06 128.256 222.132 128.672 222.308 129.032C222.492 129.384 222.748 129.66 223.076 129.86C223.412 130.052 223.776 130.148 224.168 130.148C224.6 130.148 224.964 130.048 225.26 129.848C225.556 129.648 225.796 129.392 225.98 129.08L226.916 129.56C226.788 129.856 226.588 130.128 226.316 130.376C226.052 130.616 225.736 130.808 225.368 130.952C225.008 131.096 224.604 131.168 224.156 131.168ZM230.868 131.168C230.22 131.168 229.656 131.008 229.176 130.688C228.696 130.368 228.356 129.936 228.156 129.392L229.044 128.96C229.228 129.344 229.48 129.648 229.8 129.872C230.12 130.096 230.476 130.208 230.868 130.208C231.22 130.208 231.512 130.124 231.744 129.956C231.976 129.788 232.092 129.568 232.092 129.296C232.092 129.104 232.036 128.952 231.924 128.84C231.82 128.72 231.692 128.628 231.54 128.564C231.388 128.492 231.248 128.44 231.12 128.408L230.148 128.132C229.564 127.964 229.136 127.724 228.864 127.412C228.6 127.1 228.468 126.736 228.468 126.32C228.468 125.936 228.564 125.604 228.756 125.324C228.956 125.036 229.224 124.812 229.56 124.652C229.904 124.492 230.288 124.412 230.712 124.412C231.28 124.412 231.788 124.556 232.236 124.844C232.692 125.132 233.016 125.536 233.208 126.056L232.296 126.476C232.152 126.14 231.936 125.876 231.648 125.684C231.36 125.484 231.036 125.384 230.676 125.384C230.348 125.384 230.088 125.468 229.896 125.636C229.704 125.796 229.608 126 229.608 126.248C229.608 126.432 229.656 126.584 229.752 126.704C229.848 126.816 229.964 126.904 230.1 126.968C230.236 127.024 230.368 127.072 230.496 127.112L231.552 127.424C232.08 127.576 232.488 127.812 232.776 128.132C233.072 128.452 233.22 128.836 233.22 129.284C233.22 129.644 233.12 129.968 232.92 130.256C232.72 130.544 232.444 130.768 232.092 130.928C231.74 131.088 231.332 131.168 230.868 131.168Z" fill="#1D2939"/>
<rect x="46.0186" y="166.616" width="255.962" height="162.767" rx="12" fill="white"/>
<path d="M68.6952 206.965V195.045H73.7032C74.4179 195.045 75.0312 195.173 75.5432 195.429C76.0659 195.685 76.4659 196.048 76.7432 196.517C77.0312 196.976 77.1752 197.525 77.1752 198.165C77.1752 198.752 77.0205 199.285 76.7112 199.765C76.4125 200.234 75.9699 200.602 75.3832 200.869L75.3672 200.277C75.8792 200.469 76.3005 200.725 76.6312 201.045C76.9725 201.354 77.2285 201.717 77.3992 202.133C77.5699 202.538 77.6552 202.97 77.6552 203.429C77.6552 204.528 77.3032 205.392 76.5992 206.021C75.8952 206.65 74.9352 206.965 73.7192 206.965H68.6952ZM70.2632 205.525H73.7832C74.4765 205.525 75.0312 205.338 75.4472 204.965C75.8632 204.592 76.0712 204.085 76.0712 203.445C76.0712 202.805 75.8632 202.298 75.4472 201.925C75.0312 201.541 74.4765 201.349 73.7832 201.349H70.2632V205.525ZM70.2632 199.941H73.6712C74.2472 199.941 74.7112 199.776 75.0632 199.445C75.4152 199.104 75.5912 198.672 75.5912 198.149C75.5912 197.605 75.4152 197.189 75.0632 196.901C74.7112 196.613 74.2472 196.469 73.6712 196.469H70.2632V199.941ZM79.5973 206.965V198.341H81.0853V206.965H79.5973ZM79.5973 196.965V195.045H81.0853V196.965H79.5973ZM87.4902 207.157C86.6582 207.157 85.9062 206.965 85.2342 206.581C84.5622 206.186 84.0289 205.648 83.6342 204.965C83.2395 204.282 83.0422 203.509 83.0422 202.645C83.0422 201.781 83.2342 201.013 83.6182 200.341C84.0129 199.669 84.5462 199.136 85.2182 198.741C85.8902 198.346 86.6475 198.149 87.4902 198.149C88.3222 198.149 89.0742 198.346 89.7462 198.741C90.4182 199.125 90.9462 199.653 91.3302 200.325C91.7249 200.997 91.9222 201.77 91.9222 202.645C91.9222 203.52 91.7195 204.298 91.3142 204.981C90.9089 205.653 90.3702 206.186 89.6982 206.581C89.0369 206.965 88.3009 207.157 87.4902 207.157ZM87.4902 205.717C88.0235 205.717 88.5035 205.584 88.9302 205.317C89.3675 205.05 89.7089 204.682 89.9542 204.213C90.2102 203.744 90.3382 203.221 90.3382 202.645C90.3382 202.058 90.2102 201.541 89.9542 201.093C89.7089 200.634 89.3675 200.272 88.9302 200.005C88.5035 199.728 88.0235 199.589 87.4902 199.589C86.9462 199.589 86.4555 199.728 86.0182 200.005C85.5915 200.272 85.2502 200.634 84.9942 201.093C84.7382 201.541 84.6102 202.058 84.6102 202.645C84.6102 203.221 84.7382 203.744 84.9942 204.213C85.2502 204.682 85.5915 205.05 86.0182 205.317C86.4555 205.584 86.9462 205.717 87.4902 205.717Z" fill="#667085"/>
<rect x="67.3672" y="226.198" width="213.264" height="10.6744" rx="5.33721" fill="#F3F3F3"/>
<rect x="67.3672" y="243.988" width="213.264" height="10.6744" rx="5.33721" fill="#F3F3F3"/>
<rect x="67.3672" y="261.779" width="213.264" height="10.6744" rx="5.33721" fill="#F3F3F3"/>
<rect x="67.3672" y="279.57" width="126.314" height="10.6744" rx="5.33721" fill="#F3F3F3"/>
<rect x="67.3672" y="297.36" width="126.314" height="10.6744" rx="5.33721" fill="#F3F3F3"/>
<rect x="51.3682" y="348.976" width="245.264" height="79" rx="12" fill="white"/>
<path d="M68.4462 380.976V370.546H72.2402C72.9402 370.546 73.5562 370.677 74.0882 370.938C74.6295 371.19 75.0495 371.564 75.3482 372.058C75.6468 372.544 75.7962 373.127 75.7962 373.808C75.7962 374.48 75.6422 375.059 75.3342 375.544C75.0355 376.03 74.6202 376.403 74.0882 376.664C73.5562 376.926 72.9402 377.056 72.2402 377.056H70.0982V380.976H68.4462ZM70.0982 375.586H72.2822C72.6555 375.586 72.9822 375.512 73.2622 375.362C73.5422 375.213 73.7615 375.008 73.9202 374.746C74.0788 374.476 74.1582 374.158 74.1582 373.794C74.1582 373.43 74.0788 373.118 73.9202 372.856C73.7615 372.586 73.5422 372.38 73.2622 372.24C72.9822 372.091 72.6555 372.016 72.2822 372.016H70.0982V375.586ZM80.0449 381.144C79.4756 381.144 78.9763 381.018 78.5469 380.766C78.1176 380.505 77.7816 380.146 77.5389 379.688C77.3056 379.222 77.1889 378.685 77.1889 378.078V373.402H78.7709V377.938C78.7709 378.284 78.8409 378.587 78.9809 378.848C79.1209 379.11 79.3169 379.315 79.5689 379.464C79.8209 379.604 80.1103 379.674 80.4369 379.674C80.7729 379.674 81.0669 379.6 81.3189 379.45C81.5709 379.301 81.7669 379.091 81.9069 378.82C82.0563 378.55 82.1309 378.232 82.1309 377.868V373.402H83.6989V380.976H82.2009V379.492L82.3689 379.688C82.1916 380.155 81.8976 380.514 81.4869 380.766C81.0763 381.018 80.5956 381.144 80.0449 381.144ZM89.5921 381.144C89.0041 381.144 88.4674 381.023 87.9821 380.78C87.5061 380.538 87.1374 380.188 86.8761 379.73L87.0581 379.436V380.976H85.5461V370.378H87.1281V374.97L86.8761 374.606C87.1561 374.177 87.5294 373.841 87.9961 373.598C88.4627 373.356 88.9947 373.234 89.5921 373.234C90.3107 373.234 90.9547 373.407 91.5241 373.752C92.1027 374.098 92.5554 374.569 92.8821 375.166C93.2181 375.764 93.3861 376.436 93.3861 377.182C93.3861 377.929 93.2181 378.601 92.8821 379.198C92.5554 379.796 92.1074 380.272 91.5381 380.626C90.9687 380.972 90.3201 381.144 89.5921 381.144ZM89.4381 379.674C89.8861 379.674 90.2827 379.567 90.6281 379.352C90.9734 379.138 91.2441 378.844 91.4401 378.47C91.6454 378.088 91.7481 377.658 91.7481 377.182C91.7481 376.706 91.6454 376.282 91.4401 375.908C91.2441 375.535 90.9734 375.241 90.6281 375.026C90.2827 374.812 89.8861 374.704 89.4381 374.704C88.9994 374.704 88.6027 374.812 88.2481 375.026C87.9027 375.241 87.6274 375.535 87.4221 375.908C87.2261 376.282 87.1281 376.706 87.1281 377.182C87.1281 377.658 87.2261 378.088 87.4221 378.47C87.6274 378.844 87.9027 379.138 88.2481 379.352C88.6027 379.567 88.9994 379.674 89.4381 379.674ZM94.925 380.976V370.378H96.507V380.976H94.925ZM98.3566 380.976V373.402H99.9386V380.976H98.3566ZM98.3566 372.366V370.546H99.9386V372.366H98.3566ZM105.386 381.144C104.63 381.144 103.958 380.972 103.37 380.626C102.792 380.272 102.33 379.796 101.984 379.198C101.648 378.601 101.48 377.924 101.48 377.168C101.48 376.422 101.648 375.75 101.984 375.152C102.32 374.555 102.782 374.088 103.37 373.752C103.958 373.407 104.63 373.234 105.386 373.234C105.9 373.234 106.38 373.328 106.828 373.514C107.276 373.692 107.664 373.939 107.99 374.256C108.326 374.574 108.574 374.942 108.732 375.362L107.346 376.006C107.188 375.614 106.931 375.302 106.576 375.068C106.231 374.826 105.834 374.704 105.386 374.704C104.957 374.704 104.57 374.812 104.224 375.026C103.888 375.232 103.622 375.526 103.426 375.908C103.23 376.282 103.132 376.706 103.132 377.182C103.132 377.658 103.23 378.088 103.426 378.47C103.622 378.844 103.888 379.138 104.224 379.352C104.57 379.567 104.957 379.674 105.386 379.674C105.844 379.674 106.24 379.558 106.576 379.324C106.922 379.082 107.178 378.76 107.346 378.358L108.732 379.016C108.583 379.418 108.34 379.782 108.004 380.108C107.678 380.426 107.29 380.678 106.842 380.864C106.394 381.051 105.909 381.144 105.386 381.144ZM112.88 380.976V370.546H116.674C117.374 370.546 117.99 370.677 118.522 370.938C119.063 371.19 119.483 371.564 119.782 372.058C120.08 372.544 120.23 373.127 120.23 373.808C120.23 374.48 120.076 375.059 119.768 375.544C119.469 376.03 119.054 376.403 118.522 376.664C117.99 376.926 117.374 377.056 116.674 377.056H114.532V380.976H112.88ZM114.532 375.586H116.716C117.089 375.586 117.416 375.512 117.696 375.362C117.976 375.213 118.195 375.008 118.354 374.746C118.512 374.476 118.592 374.158 118.592 373.794C118.592 373.43 118.512 373.118 118.354 372.856C118.195 372.586 117.976 372.38 117.696 372.24C117.416 372.091 117.089 372.016 116.716 372.016H114.532V375.586ZM121.777 380.976V373.402H123.289V374.928L123.149 374.704C123.317 374.21 123.587 373.855 123.961 373.64C124.334 373.416 124.782 373.304 125.305 373.304H125.767V374.746H125.109C124.586 374.746 124.161 374.91 123.835 375.236C123.517 375.554 123.359 376.011 123.359 376.608V380.976H121.777ZM130.503 381.144C129.775 381.144 129.107 380.972 128.501 380.626C127.903 380.281 127.427 379.81 127.073 379.212C126.718 378.615 126.541 377.938 126.541 377.182C126.541 376.417 126.718 375.74 127.073 375.152C127.427 374.555 127.903 374.088 128.501 373.752C129.098 373.407 129.765 373.234 130.503 373.234C131.249 373.234 131.917 373.407 132.505 373.752C133.102 374.088 133.573 374.555 133.919 375.152C134.273 375.74 134.451 376.417 134.451 377.182C134.451 377.948 134.273 378.629 133.919 379.226C133.564 379.824 133.088 380.295 132.491 380.64C131.893 380.976 131.231 381.144 130.503 381.144ZM130.503 379.674C130.951 379.674 131.347 379.567 131.693 379.352C132.038 379.138 132.309 378.844 132.505 378.47C132.71 378.088 132.813 377.658 132.813 377.182C132.813 376.706 132.71 376.282 132.505 375.908C132.309 375.535 132.038 375.241 131.693 375.026C131.347 374.812 130.951 374.704 130.503 374.704C130.064 374.704 129.667 374.812 129.313 375.026C128.967 375.241 128.692 375.535 128.487 375.908C128.291 376.282 128.193 376.706 128.193 377.182C128.193 377.658 128.291 378.088 128.487 378.47C128.692 378.844 128.967 379.138 129.313 379.352C129.667 379.567 130.064 379.674 130.503 379.674ZM136.644 380.976V374.83H135.244V373.402H136.644V373.01C136.644 372.441 136.761 371.965 136.994 371.582C137.228 371.19 137.55 370.892 137.96 370.686C138.38 370.481 138.861 370.378 139.402 370.378C139.505 370.378 139.622 370.388 139.752 370.406C139.883 370.416 139.99 370.43 140.074 370.448V371.82C140 371.802 139.916 371.792 139.822 371.792C139.729 371.783 139.654 371.778 139.598 371.778C139.178 371.778 138.842 371.876 138.59 372.072C138.338 372.259 138.212 372.572 138.212 373.01V373.402H141.838V374.83H138.212V380.976H136.644ZM141.096 380.976V373.402H142.664V380.976H141.096ZM144.335 380.976V370.378H145.917V380.976H144.335ZM151.323 381.144C150.567 381.144 149.895 380.972 149.307 380.626C148.728 380.272 148.275 379.796 147.949 379.198C147.622 378.592 147.459 377.915 147.459 377.168C147.459 376.403 147.622 375.726 147.949 375.138C148.285 374.55 148.733 374.088 149.293 373.752C149.853 373.407 150.487 373.234 151.197 373.234C151.766 373.234 152.275 373.332 152.723 373.528C153.171 373.724 153.549 373.995 153.857 374.34C154.165 374.676 154.398 375.064 154.557 375.502C154.725 375.941 154.809 376.408 154.809 376.902C154.809 377.024 154.804 377.15 154.795 377.28C154.785 377.411 154.767 377.532 154.739 377.644H148.705V376.384H153.843L153.087 376.958C153.18 376.501 153.147 376.095 152.989 375.74C152.839 375.376 152.606 375.092 152.289 374.886C151.981 374.672 151.617 374.564 151.197 374.564C150.777 374.564 150.403 374.672 150.077 374.886C149.75 375.092 149.498 375.39 149.321 375.782C149.143 376.165 149.073 376.632 149.111 377.182C149.064 377.696 149.134 378.144 149.321 378.526C149.517 378.909 149.787 379.208 150.133 379.422C150.487 379.637 150.889 379.744 151.337 379.744C151.794 379.744 152.181 379.642 152.499 379.436C152.825 379.231 153.082 378.965 153.269 378.638L154.557 379.268C154.407 379.623 154.174 379.945 153.857 380.234C153.549 380.514 153.175 380.738 152.737 380.906C152.307 381.065 151.836 381.144 151.323 381.144Z" fill="#1D2939"/>
<g clip-path="url(#clip0_174_1732)">
<path d="M248.628 375.476C248.628 374.122 248.894 372.828 249.425 371.594C249.956 370.359 250.667 369.297 251.558 368.406C252.448 367.515 253.511 366.804 254.745 366.273C255.979 365.742 257.274 365.476 258.628 365.476H270.628C271.982 365.476 273.276 365.742 274.511 366.273C275.745 366.804 276.808 367.515 277.698 368.406C278.589 369.297 279.3 370.359 279.831 371.594C280.362 372.828 280.628 374.122 280.628 375.476C280.628 376.83 280.362 378.125 279.831 379.359C279.3 380.594 278.589 381.656 277.698 382.547C276.808 383.437 275.745 384.148 274.511 384.679C273.276 385.211 271.982 385.476 270.628 385.476H258.628C257.274 385.476 255.979 385.211 254.745 384.679C253.511 384.148 252.448 383.437 251.558 382.547C250.667 381.656 249.956 380.594 249.425 379.359C248.894 378.125 248.628 376.83 248.628 375.476ZM270.628 383.476C271.711 383.476 272.745 383.265 273.729 382.844C274.714 382.422 275.565 381.851 276.284 381.133C277.003 380.414 277.573 379.562 277.995 378.578C278.417 377.594 278.628 376.56 278.628 375.476C278.628 374.393 278.417 373.359 277.995 372.375C277.573 371.39 277.003 370.539 276.284 369.82C275.565 369.101 274.714 368.531 273.729 368.109C272.745 367.687 271.711 367.476 270.628 367.476C269.545 367.476 268.511 367.687 267.526 368.109C266.542 368.531 265.69 369.101 264.972 369.82C264.253 370.539 263.683 371.39 263.261 372.375C262.839 373.359 262.628 374.393 262.628 375.476C262.628 376.56 262.839 377.594 263.261 378.578C263.683 379.562 264.253 380.414 264.972 381.133C265.69 381.851 266.542 382.422 267.526 382.844C268.511 383.265 269.545 383.476 270.628 383.476Z" fill="#227CEB"/>
</g>
<rect x="67.3682" y="393.976" width="213.264" height="6" rx="3" fill="#F3F3F3"/>
<rect x="67.3682" y="405.976" width="213.264" height="6" rx="3" fill="#F3F3F3"/>
<g filter="url(#filter1_d_174_1732)">
<rect x="239.344" y="67.9108" width="128" height="48" rx="12" transform="rotate(3 239.344 67.9108)" fill="white" shape-rendering="crispEdges"/>
<rect x="239.344" y="67.9108" width="128" height="48" rx="12" transform="rotate(3 239.344 67.9108)" stroke="#EBEDEF" shape-rendering="crispEdges"/>
<rect x="246.914" y="76.3185" width="32" height="32" rx="16" transform="rotate(3 246.914 76.3185)" fill="#F2F2F6"/>
<path d="M263.639 91.99L269.942 85.5363L268.532 85.4624L263.06 91.0662L259.242 84.9756L254.484 84.7262L260.257 93.9363L253.647 100.704L255.057 100.778L260.836 94.86L264.867 101.292L269.625 101.542L263.638 91.9899L263.639 91.99ZM261.593 94.0848L261.008 93.1672L256.347 85.8649L258.513 85.9784L262.273 91.8713L262.859 92.789L267.747 100.449L265.582 100.336L261.593 94.0848Z" fill="#1A1A1A"/>
<rect x="286.859" y="78.412" width="32" height="32" rx="16" transform="rotate(3 286.859 78.412)" fill="#F2F2F6"/>
<g clip-path="url(#clip1_174_1732)">
<path d="M305.649 87.4077L299.191 87.0693C296.566 86.9317 294.319 88.9551 294.181 91.5798L293.843 98.0379C293.705 100.663 295.729 102.91 298.353 103.047L304.811 103.386C307.436 103.523 309.683 101.5 309.821 98.8753L310.159 92.4172C310.297 89.7925 308.273 87.5453 305.649 87.4077ZM308.213 98.7911C308.122 100.532 306.637 101.87 304.896 101.778L298.437 101.44C296.696 101.349 295.359 99.8633 295.45 98.1222L295.789 91.664C295.88 89.9229 297.365 88.5854 299.106 88.6767L305.565 89.0151C307.306 89.1064 308.643 90.5918 308.552 92.3329L308.213 98.7911Z" fill="url(#paint0_linear_174_1732)"/>
<path d="M302.217 91.095C299.939 90.9756 297.988 92.7323 297.868 95.0109C297.749 97.2895 299.506 99.2405 301.784 99.36C304.063 99.4794 306.014 97.7227 306.133 95.444C306.253 93.1654 304.496 91.2144 302.217 91.095ZM301.869 97.7526C300.474 97.6795 299.403 96.4897 299.476 95.0952C299.549 93.7006 300.739 92.6293 302.133 92.7024C303.528 92.7755 304.599 93.9652 304.526 95.3598C304.453 96.7544 303.263 97.8257 301.869 97.7526Z" fill="url(#paint1_linear_174_1732)"/>
<path d="M306.304 92.3333C306.851 92.3619 307.318 91.9418 307.347 91.3949C307.375 90.848 306.955 90.3815 306.408 90.3528C305.861 90.3241 305.395 90.7442 305.366 91.2911C305.337 91.838 305.758 92.3046 306.304 92.3333Z" fill="url(#paint2_linear_174_1732)"/>
</g>
<rect x="326.805" y="80.5054" width="32" height="32" rx="16" transform="rotate(3 326.805 80.5054)" fill="#F2F2F6"/>
<g clip-path="url(#clip2_174_1732)">
<path fill-rule="evenodd" clip-rule="evenodd" d="M335.312 104.984L347.739 105.635C348.72 105.687 349.556 104.934 349.608 103.953L350.259 91.5257C350.31 90.5452 349.557 89.7087 348.577 89.6573L336.149 89.006C335.169 88.9546 334.332 89.7078 334.281 90.6883L333.63 103.116C333.578 104.096 334.331 104.933 335.312 104.984Z" fill="#007EBB"/>
<path fill-rule="evenodd" clip-rule="evenodd" d="M347.412 103.393L345.04 103.269L345.252 99.2302C345.31 98.123 344.922 97.4822 344.045 97.4362C343.092 97.3863 342.56 98.0041 342.504 99.0862L342.292 103.125L340.007 103.005L340.41 95.3117L342.695 95.4314L342.641 96.4677C342.641 96.4677 343.394 95.2324 345.027 95.318C346.659 95.4035 347.775 96.4612 347.667 98.5221L347.412 103.393ZM337.737 94.1615C336.958 94.1207 336.361 93.452 336.402 92.668C336.443 91.8841 337.107 91.2815 337.886 91.3223C338.664 91.363 339.261 92.0317 339.22 92.8157C339.179 93.5996 338.515 94.2023 337.737 94.1615ZM336.101 102.8L338.484 102.925L338.887 95.2319L336.504 95.107L336.101 102.8Z" fill="white"/>
</g>
</g>
<rect x="351.796" y="131.5" width="85" height="30" rx="12" fill="#9EE774"/>
<path d="M360.396 151.5V150.36H360.888C361.312 150.36 361.648 150.236 361.896 149.988C362.144 149.732 362.268 149.388 362.268 148.956V142.56H363.456V148.932C363.456 149.452 363.348 149.904 363.132 150.288C362.924 150.672 362.628 150.972 362.244 151.188C361.86 151.396 361.408 151.5 360.888 151.5H360.396ZM367.185 151.644C366.761 151.644 366.385 151.568 366.057 151.416C365.737 151.256 365.485 151.04 365.301 150.768C365.117 150.488 365.025 150.168 365.025 149.808C365.025 149.464 365.097 149.156 365.241 148.884C365.393 148.604 365.625 148.368 365.937 148.176C366.257 147.984 366.657 147.848 367.137 147.768L369.537 147.372V148.308L367.389 148.668C366.973 148.74 366.669 148.872 366.477 149.064C366.293 149.256 366.201 149.492 366.201 149.772C366.201 150.036 366.305 150.256 366.513 150.432C366.729 150.608 366.997 150.696 367.317 150.696C367.725 150.696 368.077 150.612 368.373 150.444C368.677 150.268 368.913 150.032 369.081 149.736C369.257 149.44 369.345 149.112 369.345 148.752V147.108C369.345 146.756 369.213 146.472 368.949 146.256C368.693 146.032 368.353 145.92 367.929 145.92C367.561 145.92 367.233 146.016 366.945 146.208C366.665 146.392 366.457 146.64 366.321 146.952L365.349 146.448C365.469 146.152 365.661 145.888 365.925 145.656C366.189 145.416 366.497 145.228 366.849 145.092C367.201 144.956 367.569 144.888 367.953 144.888C368.449 144.888 368.885 144.984 369.261 145.176C369.637 145.36 369.929 145.62 370.137 145.956C370.353 146.284 370.461 146.668 370.461 147.108V151.5H369.369V150.276L369.573 150.348C369.437 150.604 369.253 150.828 369.021 151.02C368.789 151.212 368.517 151.364 368.205 151.476C367.893 151.588 367.553 151.644 367.185 151.644ZM372.191 151.5V145.032H373.283V146.352L373.127 146.148C373.287 145.74 373.543 145.428 373.895 145.212C374.247 144.996 374.643 144.888 375.083 144.888C375.587 144.888 376.039 145.028 376.439 145.308C376.847 145.588 377.127 145.956 377.279 146.412L376.967 146.424C377.135 145.92 377.419 145.54 377.819 145.284C378.219 145.02 378.663 144.888 379.151 144.888C379.599 144.888 380.003 144.992 380.363 145.2C380.731 145.408 381.023 145.696 381.239 146.064C381.455 146.432 381.563 146.848 381.563 147.312V151.5H380.435V147.672C380.435 147.312 380.371 147.008 380.243 146.76C380.115 146.512 379.939 146.32 379.715 146.184C379.499 146.04 379.243 145.968 378.947 145.968C378.659 145.968 378.399 146.04 378.167 146.184C377.943 146.32 377.763 146.516 377.627 146.772C377.499 147.02 377.435 147.32 377.435 147.672V151.5H376.307V147.672C376.307 147.312 376.243 147.008 376.115 146.76C375.987 146.512 375.811 146.32 375.587 146.184C375.371 146.04 375.115 145.968 374.819 145.968C374.531 145.968 374.271 146.04 374.039 146.184C373.815 146.32 373.635 146.516 373.499 146.772C373.371 147.02 373.307 147.32 373.307 147.672V151.5H372.191ZM386.124 151.644C385.5 151.644 384.944 151.496 384.456 151.2C383.968 150.904 383.584 150.5 383.304 149.988C383.024 149.468 382.884 148.888 382.884 148.248C382.884 147.6 383.02 147.024 383.292 146.52C383.572 146.016 383.948 145.62 384.42 145.332C384.9 145.036 385.436 144.888 386.028 144.888C386.508 144.888 386.932 144.976 387.3 145.152C387.676 145.32 387.992 145.552 388.248 145.848C388.512 146.136 388.712 146.468 388.848 146.844C388.992 147.212 389.064 147.596 389.064 147.996C389.064 148.084 389.056 148.184 389.04 148.296C389.032 148.4 389.02 148.5 389.004 148.596H383.7V147.636H388.356L387.828 148.068C387.9 147.652 387.86 147.28 387.708 146.952C387.556 146.624 387.332 146.364 387.036 146.172C386.74 145.98 386.404 145.884 386.028 145.884C385.652 145.884 385.308 145.98 384.996 146.172C384.684 146.364 384.44 146.64 384.264 147C384.096 147.352 384.028 147.772 384.06 148.26C384.028 148.732 384.1 149.148 384.276 149.508C384.46 149.86 384.716 150.136 385.044 150.336C385.38 150.528 385.744 150.624 386.136 150.624C386.568 150.624 386.932 150.524 387.228 150.324C387.524 150.124 387.764 149.868 387.948 149.556L388.884 150.036C388.756 150.332 388.556 150.604 388.284 150.852C388.02 151.092 387.704 151.284 387.336 151.428C386.976 151.572 386.572 151.644 386.124 151.644ZM392.835 151.644C392.187 151.644 391.623 151.484 391.143 151.164C390.663 150.844 390.323 150.412 390.123 149.868L391.011 149.436C391.195 149.82 391.447 150.124 391.767 150.348C392.087 150.572 392.443 150.684 392.835 150.684C393.187 150.684 393.479 150.6 393.711 150.432C393.943 150.264 394.059 150.044 394.059 149.772C394.059 149.58 394.003 149.428 393.891 149.316C393.787 149.196 393.659 149.104 393.507 149.04C393.355 148.968 393.215 148.916 393.087 148.884L392.115 148.608C391.531 148.44 391.103 148.2 390.831 147.888C390.567 147.576 390.435 147.212 390.435 146.796C390.435 146.412 390.531 146.08 390.723 145.8C390.923 145.512 391.191 145.288 391.527 145.128C391.871 144.968 392.255 144.888 392.679 144.888C393.247 144.888 393.755 145.032 394.203 145.32C394.659 145.608 394.983 146.012 395.175 146.532L394.263 146.952C394.119 146.616 393.903 146.352 393.615 146.16C393.327 145.96 393.003 145.86 392.643 145.86C392.315 145.86 392.055 145.944 391.863 146.112C391.671 146.272 391.575 146.476 391.575 146.724C391.575 146.908 391.623 147.06 391.719 147.18C391.815 147.292 391.931 147.38 392.067 147.444C392.203 147.5 392.335 147.548 392.463 147.588L393.519 147.9C394.047 148.052 394.455 148.288 394.743 148.608C395.039 148.928 395.187 149.312 395.187 149.76C395.187 150.12 395.087 150.444 394.887 150.732C394.687 151.02 394.411 151.244 394.059 151.404C393.707 151.564 393.299 151.644 392.835 151.644ZM397.104 151.5V150.06H398.268V151.5H397.104ZM403.805 151.644C403.285 151.644 402.809 151.528 402.377 151.296C401.953 151.064 401.625 150.736 401.393 150.312L401.549 150.12V151.5H400.457V142.416H401.573V146.424L401.405 146.148C401.645 145.764 401.973 145.46 402.389 145.236C402.805 145.004 403.281 144.888 403.817 144.888C404.425 144.888 404.969 145.036 405.449 145.332C405.937 145.628 406.321 146.032 406.601 146.544C406.881 147.048 407.021 147.624 407.021 148.272C407.021 148.904 406.881 149.476 406.601 149.988C406.321 150.5 405.937 150.904 405.449 151.2C404.969 151.496 404.421 151.644 403.805 151.644ZM403.721 150.564C404.129 150.564 404.493 150.464 404.813 150.264C405.133 150.064 405.381 149.792 405.557 149.448C405.741 149.096 405.833 148.704 405.833 148.272C405.833 147.824 405.741 147.432 405.557 147.096C405.381 146.752 405.133 146.48 404.813 146.28C404.493 146.072 404.129 145.968 403.721 145.968C403.313 145.968 402.945 146.068 402.617 146.268C402.297 146.468 402.041 146.744 401.849 147.096C401.665 147.44 401.573 147.832 401.573 148.272C401.573 148.704 401.665 149.096 401.849 149.448C402.041 149.792 402.297 150.064 402.617 150.264C402.945 150.464 403.313 150.564 403.721 150.564ZM410.38 151.644C409.956 151.644 409.58 151.568 409.252 151.416C408.932 151.256 408.68 151.04 408.496 150.768C408.312 150.488 408.22 150.168 408.22 149.808C408.22 149.464 408.292 149.156 408.436 148.884C408.588 148.604 408.82 148.368 409.132 148.176C409.452 147.984 409.852 147.848 410.332 147.768L412.732 147.372V148.308L410.584 148.668C410.168 148.74 409.864 148.872 409.672 149.064C409.488 149.256 409.396 149.492 409.396 149.772C409.396 150.036 409.5 150.256 409.708 150.432C409.924 150.608 410.192 150.696 410.512 150.696C410.92 150.696 411.272 150.612 411.568 150.444C411.872 150.268 412.108 150.032 412.276 149.736C412.452 149.44 412.54 149.112 412.54 148.752V147.108C412.54 146.756 412.408 146.472 412.144 146.256C411.888 146.032 411.548 145.92 411.124 145.92C410.756 145.92 410.428 146.016 410.14 146.208C409.86 146.392 409.652 146.64 409.516 146.952L408.544 146.448C408.664 146.152 408.856 145.888 409.12 145.656C409.384 145.416 409.692 145.228 410.044 145.092C410.396 144.956 410.764 144.888 411.148 144.888C411.644 144.888 412.08 144.984 412.456 145.176C412.832 145.36 413.124 145.62 413.332 145.956C413.548 146.284 413.656 146.668 413.656 147.108V151.5H412.564V150.276L412.768 150.348C412.632 150.604 412.448 150.828 412.216 151.02C411.984 151.212 411.712 151.364 411.4 151.476C411.088 151.588 410.748 151.644 410.38 151.644ZM417.702 151.644C417.054 151.644 416.49 151.484 416.01 151.164C415.53 150.844 415.19 150.412 414.99 149.868L415.878 149.436C416.062 149.82 416.314 150.124 416.634 150.348C416.954 150.572 417.31 150.684 417.702 150.684C418.054 150.684 418.346 150.6 418.578 150.432C418.81 150.264 418.926 150.044 418.926 149.772C418.926 149.58 418.87 149.428 418.758 149.316C418.654 149.196 418.526 149.104 418.374 149.04C418.222 148.968 418.082 148.916 417.954 148.884L416.982 148.608C416.398 148.44 415.97 148.2 415.698 147.888C415.434 147.576 415.302 147.212 415.302 146.796C415.302 146.412 415.398 146.08 415.59 145.8C415.79 145.512 416.058 145.288 416.394 145.128C416.738 144.968 417.122 144.888 417.546 144.888C418.114 144.888 418.622 145.032 419.07 145.32C419.526 145.608 419.85 146.012 420.042 146.532L419.13 146.952C418.986 146.616 418.77 146.352 418.482 146.16C418.194 145.96 417.87 145.86 417.51 145.86C417.182 145.86 416.922 145.944 416.73 146.112C416.538 146.272 416.442 146.476 416.442 146.724C416.442 146.908 416.49 147.06 416.586 147.18C416.682 147.292 416.798 147.38 416.934 147.444C417.07 147.5 417.202 147.548 417.33 147.588L418.386 147.9C418.914 148.052 419.322 148.288 419.61 148.608C419.906 148.928 420.054 149.312 420.054 149.76C420.054 150.12 419.954 150.444 419.754 150.732C419.554 151.02 419.278 151.244 418.926 151.404C418.574 151.564 418.166 151.644 417.702 151.644ZM424.491 151.644C423.867 151.644 423.311 151.496 422.823 151.2C422.335 150.904 421.951 150.5 421.671 149.988C421.391 149.468 421.251 148.888 421.251 148.248C421.251 147.6 421.387 147.024 421.659 146.52C421.939 146.016 422.315 145.62 422.787 145.332C423.267 145.036 423.803 144.888 424.395 144.888C424.875 144.888 425.299 144.976 425.667 145.152C426.043 145.32 426.359 145.552 426.615 145.848C426.879 146.136 427.079 146.468 427.215 146.844C427.359 147.212 427.431 147.596 427.431 147.996C427.431 148.084 427.423 148.184 427.407 148.296C427.399 148.4 427.387 148.5 427.371 148.596H422.067V147.636H426.723L426.195 148.068C426.267 147.652 426.227 147.28 426.075 146.952C425.923 146.624 425.699 146.364 425.403 146.172C425.107 145.98 424.771 145.884 424.395 145.884C424.019 145.884 423.675 145.98 423.363 146.172C423.051 146.364 422.807 146.64 422.631 147C422.463 147.352 422.395 147.772 422.427 148.26C422.395 148.732 422.467 149.148 422.643 149.508C422.827 149.86 423.083 150.136 423.411 150.336C423.747 150.528 424.111 150.624 424.503 150.624C424.935 150.624 425.299 150.524 425.595 150.324C425.891 150.124 426.131 149.868 426.315 149.556L427.251 150.036C427.123 150.332 426.923 150.604 426.651 150.852C426.387 151.092 426.071 151.284 425.703 151.428C425.343 151.572 424.939 151.644 424.491 151.644Z" fill="#1D2939"/>
<path d="M347.798 118.498C347.798 118.312 347.85 118.13 347.947 117.972C348.045 117.814 348.185 117.687 348.351 117.604C348.517 117.521 348.703 117.485 348.888 117.502C349.073 117.519 349.249 117.587 349.398 117.698L357.396 123.7C358.164 124.276 357.756 125.5 356.796 125.5H352.849C352.696 125.5 352.544 125.535 352.407 125.603C352.269 125.67 352.149 125.769 352.056 125.89L349.59 129.105C349.009 129.863 347.797 129.452 347.797 128.496L347.798 118.498Z" fill="#9EE774"/>
<rect x="295.796" y="411.5" width="71" height="30" rx="12" fill="#F05D5D"/>
<path d="M308.908 431.644C308.276 431.644 307.692 431.532 307.156 431.308C306.628 431.076 306.164 430.752 305.764 430.336C305.372 429.92 305.068 429.432 304.852 428.872C304.636 428.312 304.528 427.7 304.528 427.036C304.528 426.364 304.636 425.748 304.852 425.188C305.068 424.628 305.372 424.14 305.764 423.724C306.156 423.308 306.62 422.988 307.156 422.764C307.692 422.532 308.276 422.416 308.908 422.416C309.524 422.416 310.076 422.524 310.564 422.74C311.06 422.956 311.476 423.236 311.812 423.58C312.156 423.924 312.4 424.292 312.544 424.684L311.464 425.176C311.256 424.68 310.932 424.28 310.492 423.976C310.052 423.664 309.524 423.508 308.908 423.508C308.284 423.508 307.728 423.656 307.24 423.952C306.76 424.248 306.384 424.66 306.112 425.188C305.84 425.716 305.704 426.332 305.704 427.036C305.704 427.732 305.84 428.344 306.112 428.872C306.384 429.4 306.76 429.812 307.24 430.108C307.728 430.404 308.284 430.552 308.908 430.552C309.524 430.552 310.052 430.4 310.492 430.096C310.932 429.784 311.256 429.38 311.464 428.884L312.544 429.376C312.4 429.768 312.156 430.136 311.812 430.48C311.476 430.824 311.06 431.104 310.564 431.32C310.076 431.536 309.524 431.644 308.908 431.644ZM314.011 431.5V422.416H315.127V426.292L314.923 426.184C315.083 425.776 315.339 425.46 315.691 425.236C316.051 425.004 316.471 424.888 316.951 424.888C317.415 424.888 317.827 424.992 318.187 425.2C318.555 425.408 318.843 425.696 319.051 426.064C319.267 426.432 319.375 426.848 319.375 427.312V431.5H318.247V427.672C318.247 427.312 318.179 427.008 318.043 426.76C317.915 426.512 317.735 426.32 317.503 426.184C317.271 426.04 317.003 425.968 316.699 425.968C316.403 425.968 316.135 426.04 315.895 426.184C315.655 426.32 315.467 426.516 315.331 426.772C315.195 427.02 315.127 427.32 315.127 427.672V431.5H314.011ZM320.972 431.5V425.032H322.088V431.5H320.972ZM320.972 424V422.56H322.088V424H320.972ZM323.82 431.5V425.032H324.912V426.292L324.732 426.184C324.892 425.776 325.148 425.46 325.5 425.236C325.86 425.004 326.28 424.888 326.76 424.888C327.224 424.888 327.636 424.992 327.996 425.2C328.364 425.408 328.652 425.696 328.86 426.064C329.076 426.432 329.184 426.848 329.184 427.312V431.5H328.056V427.672C328.056 427.312 327.992 427.008 327.864 426.76C327.736 426.512 327.552 426.32 327.312 426.184C327.08 426.04 326.812 425.968 326.508 425.968C326.204 425.968 325.932 426.04 325.692 426.184C325.46 426.32 325.276 426.516 325.14 426.772C325.004 427.02 324.936 427.32 324.936 427.672V431.5H323.82ZM333.853 431.644C333.229 431.644 332.665 431.5 332.161 431.212C331.657 430.916 331.257 430.512 330.961 430C330.665 429.488 330.517 428.908 330.517 428.26C330.517 427.612 330.661 427.036 330.949 426.532C331.245 426.028 331.645 425.628 332.149 425.332C332.653 425.036 333.221 424.888 333.853 424.888C334.477 424.888 335.041 425.036 335.545 425.332C336.049 425.62 336.445 426.016 336.733 426.52C337.029 427.024 337.177 427.604 337.177 428.26C337.177 428.916 337.025 429.5 336.721 430.012C336.417 430.516 336.013 430.916 335.509 431.212C335.013 431.5 334.461 431.644 333.853 431.644ZM333.853 430.564C334.253 430.564 334.613 430.464 334.933 430.264C335.261 430.064 335.517 429.788 335.701 429.436C335.893 429.084 335.989 428.692 335.989 428.26C335.989 427.82 335.893 427.432 335.701 427.096C335.517 426.752 335.261 426.48 334.933 426.28C334.613 426.072 334.253 425.968 333.853 425.968C333.445 425.968 333.077 426.072 332.749 426.28C332.429 426.48 332.173 426.752 331.981 427.096C331.789 427.432 331.693 427.82 331.693 428.26C331.693 428.692 331.789 429.084 331.981 429.436C332.173 429.788 332.429 430.064 332.749 430.264C333.077 430.464 333.445 430.564 333.853 430.564ZM338.633 431.5V425.032H339.725V426.292L339.545 426.184C339.705 425.776 339.961 425.46 340.313 425.236C340.673 425.004 341.093 424.888 341.573 424.888C342.037 424.888 342.449 424.992 342.809 425.2C343.177 425.408 343.465 425.696 343.673 426.064C343.889 426.432 343.997 426.848 343.997 427.312V431.5H342.869V427.672C342.869 427.312 342.805 427.008 342.677 426.76C342.549 426.512 342.365 426.32 342.125 426.184C341.893 426.04 341.625 425.968 341.321 425.968C341.017 425.968 340.745 426.04 340.505 426.184C340.273 426.32 340.089 426.516 339.953 426.772C339.817 427.02 339.749 427.32 339.749 427.672V431.5H338.633ZM347.909 431.644C347.261 431.644 346.697 431.484 346.217 431.164C345.737 430.844 345.397 430.412 345.197 429.868L346.085 429.436C346.269 429.82 346.521 430.124 346.841 430.348C347.161 430.572 347.517 430.684 347.909 430.684C348.261 430.684 348.553 430.6 348.785 430.432C349.017 430.264 349.133 430.044 349.133 429.772C349.133 429.58 349.077 429.428 348.965 429.316C348.861 429.196 348.733 429.104 348.581 429.04C348.429 428.968 348.289 428.916 348.161 428.884L347.189 428.608C346.605 428.44 346.177 428.2 345.905 427.888C345.641 427.576 345.509 427.212 345.509 426.796C345.509 426.412 345.605 426.08 345.797 425.8C345.997 425.512 346.265 425.288 346.601 425.128C346.945 424.968 347.329 424.888 347.753 424.888C348.321 424.888 348.829 425.032 349.277 425.32C349.733 425.608 350.057 426.012 350.249 426.532L349.337 426.952C349.193 426.616 348.977 426.352 348.689 426.16C348.401 425.96 348.077 425.86 347.717 425.86C347.389 425.86 347.129 425.944 346.937 426.112C346.745 426.272 346.649 426.476 346.649 426.724C346.649 426.908 346.697 427.06 346.793 427.18C346.889 427.292 347.005 427.38 347.141 427.444C347.277 427.5 347.409 427.548 347.537 427.588L348.593 427.9C349.121 428.052 349.529 428.288 349.817 428.608C350.113 428.928 350.261 429.312 350.261 429.76C350.261 430.12 350.161 430.444 349.961 430.732C349.761 431.02 349.485 431.244 349.133 431.404C348.781 431.564 348.373 431.644 347.909 431.644ZM354.794 431.644C354.17 431.644 353.606 431.5 353.102 431.212C352.598 430.916 352.198 430.512 351.902 430C351.606 429.488 351.458 428.908 351.458 428.26C351.458 427.612 351.602 427.036 351.89 426.532C352.186 426.028 352.586 425.628 353.09 425.332C353.594 425.036 354.162 424.888 354.794 424.888C355.418 424.888 355.982 425.036 356.486 425.332C356.99 425.62 357.386 426.016 357.674 426.52C357.97 427.024 358.118 427.604 358.118 428.26C358.118 428.916 357.966 429.5 357.662 430.012C357.358 430.516 356.954 430.916 356.45 431.212C355.954 431.5 355.402 431.644 354.794 431.644ZM354.794 430.564C355.194 430.564 355.554 430.464 355.874 430.264C356.202 430.064 356.458 429.788 356.642 429.436C356.834 429.084 356.93 428.692 356.93 428.26C356.93 427.82 356.834 427.432 356.642 427.096C356.458 426.752 356.202 426.48 355.874 426.28C355.554 426.072 355.194 425.968 354.794 425.968C354.386 425.968 354.018 426.072 353.69 426.28C353.37 426.48 353.114 426.752 352.922 427.096C352.73 427.432 352.634 427.82 352.634 428.26C352.634 428.692 352.73 429.084 352.922 429.436C353.114 429.788 353.37 430.064 353.69 430.264C354.018 430.464 354.386 430.564 354.794 430.564Z" fill="white"/>
<path d="M291.798 398.498C291.798 398.312 291.85 398.13 291.947 397.972C292.045 397.814 292.185 397.687 292.351 397.604C292.517 397.521 292.703 397.485 292.888 397.502C293.073 397.519 293.249 397.587 293.398 397.698L301.396 403.7C302.164 404.276 301.756 405.5 300.796 405.5H296.849C296.696 405.5 296.544 405.535 296.407 405.603C296.269 405.67 296.149 405.769 296.056 405.89L293.59 409.105C293.009 409.863 291.797 409.452 291.797 408.496L291.798 398.498Z" fill="#F05D5D"/>
<rect y="265" width="54" height="30" rx="12" fill="#A474E7"/>
<path d="M12.236 285.144C11.588 285.144 11.012 285.008 10.508 284.736C10.012 284.464 9.624 284.092 9.344 283.62C9.072 283.14 8.936 282.596 8.936 281.988V276.06H10.124V281.964C10.124 282.372 10.212 282.736 10.388 283.056C10.572 283.368 10.82 283.612 11.132 283.788C11.452 283.964 11.82 284.052 12.236 284.052C12.652 284.052 13.016 283.964 13.328 283.788C13.648 283.612 13.896 283.368 14.072 283.056C14.256 282.736 14.348 282.372 14.348 281.964V276.06H15.536V281.988C15.536 282.596 15.396 283.14 15.116 283.62C14.844 284.092 14.46 284.464 13.964 284.736C13.468 285.008 12.892 285.144 12.236 285.144ZM20.2767 285.144C19.6687 285.144 19.1207 284.996 18.6327 284.7C18.1527 284.404 17.7727 284 17.4927 283.488C17.2127 282.976 17.0727 282.404 17.0727 281.772C17.0727 281.124 17.2127 280.548 17.4927 280.044C17.7727 279.532 18.1527 279.128 18.6327 278.832C19.1207 278.536 19.6687 278.388 20.2767 278.388C20.8127 278.388 21.2887 278.504 21.7047 278.736C22.1207 278.96 22.4487 279.264 22.6887 279.648L22.5087 279.924V275.916H23.6367V285H22.5447V283.62L22.6887 283.812C22.4647 284.236 22.1367 284.564 21.7047 284.796C21.2807 285.028 20.8047 285.144 20.2767 285.144ZM20.3727 284.064C20.7807 284.064 21.1447 283.964 21.4647 283.764C21.7847 283.564 22.0367 283.292 22.2207 282.948C22.4127 282.596 22.5087 282.204 22.5087 281.772C22.5087 281.332 22.4127 280.94 22.2207 280.596C22.0367 280.244 21.7847 279.968 21.4647 279.768C21.1447 279.568 20.7807 279.468 20.3727 279.468C19.9727 279.468 19.6087 279.572 19.2807 279.78C18.9607 279.98 18.7087 280.252 18.5247 280.596C18.3407 280.932 18.2487 281.324 18.2487 281.772C18.2487 282.204 18.3407 282.596 18.5247 282.948C18.7087 283.292 18.9607 283.564 19.2807 283.764C19.6007 283.964 19.9647 284.064 20.3727 284.064ZM27.656 285.144C27.192 285.144 26.772 285.036 26.396 284.82C26.028 284.604 25.74 284.304 25.532 283.92C25.332 283.528 25.232 283.08 25.232 282.576V278.532H26.348V282.456C26.348 282.776 26.412 283.056 26.54 283.296C26.676 283.536 26.86 283.724 27.092 283.86C27.332 283.996 27.604 284.064 27.908 284.064C28.212 284.064 28.48 283.996 28.712 283.86C28.952 283.724 29.136 283.528 29.264 283.272C29.4 283.016 29.468 282.712 29.468 282.36V278.532H30.596V285H29.504V283.74L29.684 283.848C29.532 284.256 29.272 284.576 28.904 284.808C28.544 285.032 28.128 285.144 27.656 285.144ZM34.2209 285.144C33.7969 285.144 33.4209 285.068 33.0929 284.916C32.7729 284.756 32.5209 284.54 32.3369 284.268C32.1529 283.988 32.0609 283.668 32.0609 283.308C32.0609 282.964 32.1329 282.656 32.2769 282.384C32.4289 282.104 32.6609 281.868 32.9729 281.676C33.2929 281.484 33.6929 281.348 34.1729 281.268L36.5729 280.872V281.808L34.4249 282.168C34.0089 282.24 33.7049 282.372 33.5129 282.564C33.3289 282.756 33.2369 282.992 33.2369 283.272C33.2369 283.536 33.3409 283.756 33.5489 283.932C33.7649 284.108 34.0329 284.196 34.3529 284.196C34.7609 284.196 35.1129 284.112 35.4089 283.944C35.7129 283.768 35.9489 283.532 36.1169 283.236C36.2929 282.94 36.3809 282.612 36.3809 282.252V280.608C36.3809 280.256 36.2489 279.972 35.9849 279.756C35.7289 279.532 35.3889 279.42 34.9649 279.42C34.5969 279.42 34.2689 279.516 33.9809 279.708C33.7009 279.892 33.4929 280.14 33.3569 280.452L32.3849 279.948C32.5049 279.652 32.6969 279.388 32.9609 279.156C33.2249 278.916 33.5329 278.728 33.8849 278.592C34.2369 278.456 34.6049 278.388 34.9889 278.388C35.4849 278.388 35.9209 278.484 36.2969 278.676C36.6729 278.86 36.9649 279.12 37.1729 279.456C37.3889 279.784 37.4969 280.168 37.4969 280.608V285H36.4049V283.776L36.6089 283.848C36.4729 284.104 36.2889 284.328 36.0569 284.52C35.8249 284.712 35.5529 284.864 35.2409 284.976C34.9289 285.088 34.5889 285.144 34.2209 285.144ZM39.2273 285V275.916H40.3433V282.144L39.8873 282.036L43.3193 278.532H44.7473L42.2633 281.136L44.9153 285H43.5953L41.1713 281.496L41.8673 281.46L39.9833 283.428L40.3433 282.612V285H39.2273Z" fill="#F9FAFB"/>
<path d="M55.998 251.998C55.998 251.812 55.9463 251.63 55.8487 251.472C55.751 251.314 55.6113 251.187 55.4452 251.104C55.2791 251.021 55.0932 250.985 54.9082 251.002C54.7233 251.019 54.5466 251.087 54.398 251.198L46.4 257.2C45.632 257.776 46.04 259 47 259H50.947C51.1002 259 51.2514 259.035 51.3889 259.103C51.5264 259.17 51.6466 259.269 51.74 259.39L54.206 262.605C54.787 263.363 55.999 262.952 55.999 261.996L55.998 251.998Z" fill="#A474E7"/>
</g>
<defs>
<filter id="filter0_b_174_1732" x="-48.9815" y="-48.9815" width="534.759" height="630.963" filterUnits="userSpaceOnUse" color-interpolation-filters="sRGB">
<feFlood flood-opacity="0" result="BackgroundImageFix"/>
<feGaussianBlur in="BackgroundImageFix" stdDeviation="24.4907"/>
<feComposite in2="SourceAlpha" operator="in" result="effect1_backgroundBlur_174_1732"/>
<feBlend mode="normal" in="SourceGraphic" in2="effect1_backgroundBlur_174_1732" result="shape"/>
</filter>
<filter id="filter1_d_174_1732" x="224.832" y="55.9108" width="154.336" height="78.6332" filterUnits="userSpaceOnUse" color-interpolation-filters="sRGB">
<feFlood flood-opacity="0" result="BackgroundImageFix"/>
<feColorMatrix in="SourceAlpha" type="matrix" values="0 0 0 0 0 0 0 0 0 0 0 0 0 0 0 0 0 0 127 0" result="hardAlpha"/>
<feOffset/>
<feGaussianBlur stdDeviation="6"/>
<feComposite in2="hardAlpha" operator="out"/>
<feColorMatrix type="matrix" values="0 0 0 0 0.164818 0 0 0 0 0.145189 0 0 0 0 0.243333 0 0 0 0.08 0"/>
<feBlend mode="normal" in2="BackgroundImageFix" result="effect1_dropShadow_174_1732"/>
<feBlend mode="normal" in="SourceGraphic" in2="effect1_dropShadow_174_1732" result="shape"/>
</filter>
<linearGradient id="paint0_linear_174_1732" x1="301.585" y1="103.17" x2="302.413" y2="87.3626" gradientUnits="userSpaceOnUse">
<stop stop-color="#E09B3D"/>
<stop offset="0.3" stop-color="#C74C4D"/>
<stop offset="0.6" stop-color="#C21975"/>
<stop offset="1" stop-color="#7024C4"/>
</linearGradient>
<linearGradient id="paint1_linear_174_1732" x1="301.585" y1="103.17" x2="302.413" y2="87.3626" gradientUnits="userSpaceOnUse">
<stop stop-color="#E09B3D"/>
<stop offset="0.3" stop-color="#C74C4D"/>
<stop offset="0.6" stop-color="#C21975"/>
<stop offset="1" stop-color="#7024C4"/>
</linearGradient>
<linearGradient id="paint2_linear_174_1732" x1="305.725" y1="103.387" x2="306.554" y2="87.5796" gradientUnits="userSpaceOnUse">
<stop stop-color="#E09B3D"/>
<stop offset="0.3" stop-color="#C74C4D"/>
<stop offset="0.6" stop-color="#C21975"/>
<stop offset="1" stop-color="#7024C4"/>
</linearGradient>
<clipPath id="clip0_174_1732">
<rect width="32.0083" height="20" fill="white" transform="translate(248.624 365.476)"/>
</clipPath>
<clipPath id="clip1_174_1732">
<rect width="16" height="16" fill="white" transform="translate(294.43 86.8197) rotate(3)"/>
</clipPath>
<clipPath id="clip2_174_1732">
<rect width="16" height="16" fill="white" transform="translate(334.375 88.9131) rotate(3)"/>
</clipPath>
</defs>
</svg>
