<svg width="324" height="442" viewBox="0 0 324 442" fill="none" xmlns="http://www.w3.org/2000/svg">
<g filter="url(#filter0_b_174_1692)">
<rect x="2" y="2" width="320" height="529" rx="39.1852" fill="white" fill-opacity="0.2"/>
<rect x="1" y="1" width="322" height="531" rx="40.1852" stroke="white" stroke-width="2"/>
<rect x="60" y="242.5" width="204" height="48" rx="12" fill="url(#paint0_linear_174_1692)"/>
<path d="M110.076 273.192C106.652 273.192 104.06 270.568 104.06 267.032C104.06 263.48 106.62 260.888 110.076 260.888C112.652 260.888 114.556 262.312 115.18 264.072L112.988 265.128C112.572 263.976 111.516 263.128 110.076 263.128C107.964 263.128 106.54 264.712 106.54 267.032C106.54 269.368 107.964 270.952 110.076 270.952C111.516 270.952 112.572 270.104 112.988 268.952L115.18 270.008C114.556 271.768 112.652 273.192 110.076 273.192ZM120.492 273.192C117.9 273.192 115.82 271.272 115.82 268.632C115.82 265.992 117.9 264.072 120.492 264.072C123.084 264.072 125.164 265.992 125.164 268.632C125.164 271.272 123.084 273.192 120.492 273.192ZM120.492 271.032C121.804 271.032 122.684 270.04 122.684 268.632C122.684 267.24 121.804 266.232 120.492 266.232C119.18 266.232 118.3 267.24 118.3 268.632C118.3 270.04 119.18 271.032 120.492 271.032ZM130.972 264.072C132.94 264.072 134.284 265.4 134.284 267.384V273H131.884V267.896C131.884 266.888 131.228 266.232 130.284 266.232C129.34 266.232 128.684 266.888 128.684 267.896V273H126.284V264.264H128.524V265.32C128.972 264.472 129.868 264.072 130.972 264.072ZM140.41 264.072C142.378 264.072 143.722 265.4 143.722 267.384V273H141.322V267.896C141.322 266.888 140.666 266.232 139.722 266.232C138.778 266.232 138.122 266.888 138.122 267.896V273H135.722V264.264H137.962V265.32C138.41 264.472 139.306 264.072 140.41 264.072ZM153.431 268.376C153.431 268.728 153.399 269.064 153.319 269.304H147.175C147.319 270.408 148.103 271.112 149.287 271.112C150.135 271.112 150.759 270.744 151.095 270.152L153.015 271.064C152.487 272.344 151.047 273.192 149.255 273.192C146.487 273.192 144.679 271.144 144.679 268.616C144.679 266.008 146.599 264.072 149.095 264.072C151.543 264.072 153.431 265.96 153.431 268.376ZM147.223 267.544H150.887C150.791 266.616 150.087 265.992 149.095 265.992C148.151 265.992 147.463 266.536 147.223 267.544ZM158.538 273.192C155.914 273.192 153.914 271.224 153.914 268.616C153.914 266.024 155.898 264.072 158.538 264.072C160.49 264.072 162.09 265.144 162.618 266.76L160.57 267.752C160.298 266.824 159.514 266.232 158.538 266.232C157.274 266.232 156.394 267.224 156.394 268.632C156.394 270.04 157.274 271.032 158.538 271.032C159.53 271.032 160.298 270.44 160.57 269.512L162.618 270.52C162.122 272.072 160.522 273.192 158.538 273.192ZM167.773 273.096C165.661 273.096 164.445 271.896 164.445 269.848V266.344H162.941V264.264H163.053C163.949 264.264 164.445 263.816 164.445 262.92V261.64H166.845V264.264H168.893V266.344H166.845V269.848C166.845 270.744 167.325 271.176 168.333 271.176C168.477 271.176 168.669 271.16 168.893 271.128V273.016C168.573 273.064 168.141 273.096 167.773 273.096ZM185.95 261.08H188.494L185.55 273H182.318L180.414 264.536L178.51 273H175.278L172.334 261.08H175.038L177.07 269.736L178.99 261.08H181.998L183.918 269.736L185.95 261.08ZM192.606 264.072C194.83 264.072 196.35 265.368 196.35 267.24V273H194.11V272.2C193.454 272.888 192.654 273.192 191.646 273.192C189.662 273.192 188.414 272.072 188.414 270.616C188.414 269.32 189.438 268.472 191.214 268.104L193.95 267.528V267.24C193.95 266.584 193.406 266.152 192.606 266.152C191.758 266.152 191.054 266.648 190.798 267.432L188.734 266.44C189.246 265 190.75 264.072 192.606 264.072ZM192.014 271.432C193.102 271.432 193.95 270.648 193.95 269.672V269.256L191.646 269.768C191.15 269.88 190.894 270.184 190.894 270.584C190.894 271.112 191.326 271.432 192.014 271.432ZM197.628 273V261.08H200.028V273H197.628ZM201.628 273V261.08H204.028V273H201.628ZM213.9 268.376C213.9 268.728 213.868 269.064 213.788 269.304H207.644C207.788 270.408 208.572 271.112 209.756 271.112C210.604 271.112 211.228 270.744 211.564 270.152L213.484 271.064C212.956 272.344 211.516 273.192 209.724 273.192C206.956 273.192 205.148 271.144 205.148 268.616C205.148 266.008 207.068 264.072 209.564 264.072C212.012 264.072 213.9 265.96 213.9 268.376ZM207.692 267.544H211.356C211.26 266.616 210.556 265.992 209.564 265.992C208.62 265.992 207.932 266.536 207.692 267.544ZM219.055 273.096C216.943 273.096 215.727 271.896 215.727 269.848V266.344H214.223V264.264H214.335C215.231 264.264 215.727 263.816 215.727 262.92V261.64H218.127V264.264H220.175V266.344H218.127V269.848C218.127 270.744 218.607 271.176 219.615 271.176C219.759 271.176 219.951 271.16 220.175 271.128V273.016C219.855 273.064 219.423 273.096 219.055 273.096Z" fill="white"/>
<rect x="235.796" y="291.5" width="52" height="30" rx="12" fill="#9EE774"/>
<path d="M244.396 311.5V310.36H244.888C245.312 310.36 245.648 310.236 245.896 309.988C246.144 309.732 246.268 309.388 246.268 308.956V302.56H247.456V308.932C247.456 309.452 247.348 309.904 247.132 310.288C246.924 310.672 246.628 310.972 246.244 311.188C245.86 311.396 245.408 311.5 244.888 311.5H244.396ZM251.185 311.644C250.761 311.644 250.385 311.568 250.057 311.416C249.737 311.256 249.485 311.04 249.301 310.768C249.117 310.488 249.025 310.168 249.025 309.808C249.025 309.464 249.097 309.156 249.241 308.884C249.393 308.604 249.625 308.368 249.937 308.176C250.257 307.984 250.657 307.848 251.137 307.768L253.537 307.372V308.308L251.389 308.668C250.973 308.74 250.669 308.872 250.477 309.064C250.293 309.256 250.201 309.492 250.201 309.772C250.201 310.036 250.305 310.256 250.513 310.432C250.729 310.608 250.997 310.696 251.317 310.696C251.725 310.696 252.077 310.612 252.373 310.444C252.677 310.268 252.913 310.032 253.081 309.736C253.257 309.44 253.345 309.112 253.345 308.752V307.108C253.345 306.756 253.213 306.472 252.949 306.256C252.693 306.032 252.353 305.92 251.929 305.92C251.561 305.92 251.233 306.016 250.945 306.208C250.665 306.392 250.457 306.64 250.321 306.952L249.349 306.448C249.469 306.152 249.661 305.888 249.925 305.656C250.189 305.416 250.497 305.228 250.849 305.092C251.201 304.956 251.569 304.888 251.953 304.888C252.449 304.888 252.885 304.984 253.261 305.176C253.637 305.36 253.929 305.62 254.137 305.956C254.353 306.284 254.461 306.668 254.461 307.108V311.5H253.369V310.276L253.573 310.348C253.437 310.604 253.253 310.828 253.021 311.02C252.789 311.212 252.517 311.364 252.205 311.476C251.893 311.588 251.553 311.644 251.185 311.644ZM256.191 311.5V305.032H257.283V306.352L257.127 306.148C257.287 305.74 257.543 305.428 257.895 305.212C258.247 304.996 258.643 304.888 259.083 304.888C259.587 304.888 260.039 305.028 260.439 305.308C260.847 305.588 261.127 305.956 261.279 306.412L260.967 306.424C261.135 305.92 261.419 305.54 261.819 305.284C262.219 305.02 262.663 304.888 263.151 304.888C263.599 304.888 264.003 304.992 264.363 305.2C264.731 305.408 265.023 305.696 265.239 306.064C265.455 306.432 265.563 306.848 265.563 307.312V311.5H264.435V307.672C264.435 307.312 264.371 307.008 264.243 306.76C264.115 306.512 263.939 306.32 263.715 306.184C263.499 306.04 263.243 305.968 262.947 305.968C262.659 305.968 262.399 306.04 262.167 306.184C261.943 306.32 261.763 306.516 261.627 306.772C261.499 307.02 261.435 307.32 261.435 307.672V311.5H260.307V307.672C260.307 307.312 260.243 307.008 260.115 306.76C259.987 306.512 259.811 306.32 259.587 306.184C259.371 306.04 259.115 305.968 258.819 305.968C258.531 305.968 258.271 306.04 258.039 306.184C257.815 306.32 257.635 306.516 257.499 306.772C257.371 307.02 257.307 307.32 257.307 307.672V311.5H256.191ZM270.124 311.644C269.5 311.644 268.944 311.496 268.456 311.2C267.968 310.904 267.584 310.5 267.304 309.988C267.024 309.468 266.884 308.888 266.884 308.248C266.884 307.6 267.02 307.024 267.292 306.52C267.572 306.016 267.948 305.62 268.42 305.332C268.9 305.036 269.436 304.888 270.028 304.888C270.508 304.888 270.932 304.976 271.3 305.152C271.676 305.32 271.992 305.552 272.248 305.848C272.512 306.136 272.712 306.468 272.848 306.844C272.992 307.212 273.064 307.596 273.064 307.996C273.064 308.084 273.056 308.184 273.04 308.296C273.032 308.4 273.02 308.5 273.004 308.596H267.7V307.636H272.356L271.828 308.068C271.9 307.652 271.86 307.28 271.708 306.952C271.556 306.624 271.332 306.364 271.036 306.172C270.74 305.98 270.404 305.884 270.028 305.884C269.652 305.884 269.308 305.98 268.996 306.172C268.684 306.364 268.44 306.64 268.264 307C268.096 307.352 268.028 307.772 268.06 308.26C268.028 308.732 268.1 309.148 268.276 309.508C268.46 309.86 268.716 310.136 269.044 310.336C269.38 310.528 269.744 310.624 270.136 310.624C270.568 310.624 270.932 310.524 271.228 310.324C271.524 310.124 271.764 309.868 271.948 309.556L272.884 310.036C272.756 310.332 272.556 310.604 272.284 310.852C272.02 311.092 271.704 311.284 271.336 311.428C270.976 311.572 270.572 311.644 270.124 311.644ZM276.835 311.644C276.187 311.644 275.623 311.484 275.143 311.164C274.663 310.844 274.323 310.412 274.123 309.868L275.011 309.436C275.195 309.82 275.447 310.124 275.767 310.348C276.087 310.572 276.443 310.684 276.835 310.684C277.187 310.684 277.479 310.6 277.711 310.432C277.943 310.264 278.059 310.044 278.059 309.772C278.059 309.58 278.003 309.428 277.891 309.316C277.787 309.196 277.659 309.104 277.507 309.04C277.355 308.968 277.215 308.916 277.087 308.884L276.115 308.608C275.531 308.44 275.103 308.2 274.831 307.888C274.567 307.576 274.435 307.212 274.435 306.796C274.435 306.412 274.531 306.08 274.723 305.8C274.923 305.512 275.191 305.288 275.527 305.128C275.871 304.968 276.255 304.888 276.679 304.888C277.247 304.888 277.755 305.032 278.203 305.32C278.659 305.608 278.983 306.012 279.175 306.532L278.263 306.952C278.119 306.616 277.903 306.352 277.615 306.16C277.327 305.96 277.003 305.86 276.643 305.86C276.315 305.86 276.055 305.944 275.863 306.112C275.671 306.272 275.575 306.476 275.575 306.724C275.575 306.908 275.623 307.06 275.719 307.18C275.815 307.292 275.931 307.38 276.067 307.444C276.203 307.5 276.335 307.548 276.463 307.588L277.519 307.9C278.047 308.052 278.455 308.288 278.743 308.608C279.039 308.928 279.187 309.312 279.187 309.76C279.187 310.12 279.087 310.444 278.887 310.732C278.687 311.02 278.411 311.244 278.059 311.404C277.707 311.564 277.299 311.644 276.835 311.644Z" fill="#1D2939"/>
<path d="M231.798 278.498C231.798 278.312 231.85 278.13 231.947 277.972C232.045 277.814 232.185 277.687 232.351 277.604C232.517 277.521 232.703 277.485 232.888 277.502C233.073 277.519 233.249 277.587 233.398 277.698L241.396 283.7C242.164 284.276 241.756 285.5 240.796 285.5H236.849C236.696 285.5 236.544 285.535 236.407 285.603C236.269 285.67 236.149 285.769 236.056 285.89L233.59 289.105C233.009 289.863 231.797 289.452 231.797 288.496L231.798 278.498Z" fill="#9EE774"/>
</g>
<defs>
<filter id="filter0_b_174_1692" x="-48.9815" y="-48.9815" width="421.963" height="630.963" filterUnits="userSpaceOnUse" color-interpolation-filters="sRGB">
<feFlood flood-opacity="0" result="BackgroundImageFix"/>
<feGaussianBlur in="BackgroundImageFix" stdDeviation="24.4907"/>
<feComposite in2="SourceAlpha" operator="in" result="effect1_backgroundBlur_174_1692"/>
<feBlend mode="normal" in="SourceGraphic" in2="effect1_backgroundBlur_174_1692" result="shape"/>
</filter>
<linearGradient id="paint0_linear_174_1692" x1="59.5" y1="279.5" x2="275.5" y2="242.5" gradientUnits="userSpaceOnUse">
<stop stop-color="#157BEB"/>
<stop offset="1" stop-color="#C790F3"/>
</linearGradient>
</defs>
</svg>
