<svg width="140" height="140" viewBox="0 0 140 140" fill="none" xmlns="http://www.w3.org/2000/svg">
<path d="M69.9997 11.6667C73.0939 11.6667 76.0613 12.8959 78.2492 15.0838C80.4372 17.2718 81.6663 20.2392 81.6663 23.3334C81.6663 27.6501 79.333 31.4417 75.833 33.4251V40.8334H81.6663C92.496 40.8334 102.882 45.1355 110.54 52.7932C118.198 60.451 122.5 70.8371 122.5 81.6667H128.333C129.88 81.6667 131.364 82.2813 132.458 83.3753C133.552 84.4693 134.166 85.953 134.166 87.5001V105C134.166 106.547 133.552 108.031 132.458 109.125C131.364 110.219 129.88 110.833 128.333 110.833H122.5V116.667C122.5 119.761 121.271 122.728 119.083 124.916C116.895 127.104 113.927 128.333 110.833 128.333H29.1663C26.0721 128.333 23.1047 127.104 20.9168 124.916C18.7288 122.728 17.4997 119.761 17.4997 116.667V110.833H11.6663C10.1192 110.833 8.63551 110.219 7.54155 109.125C6.44759 108.031 5.83301 106.547 5.83301 105V87.5001C5.83301 85.953 6.44759 84.4693 7.54155 83.3753C8.63551 82.2813 10.1192 81.6667 11.6663 81.6667H17.4997C17.4997 70.8371 21.8017 60.451 29.4595 52.7932C37.1172 45.1355 47.5033 40.8334 58.333 40.8334H64.1663V33.4251C60.6663 31.4417 58.333 27.6501 58.333 23.3334C58.333 20.2392 59.5622 17.2718 61.7501 15.0838C63.938 12.8959 66.9055 11.6667 69.9997 11.6667ZM43.7497 75.8334C39.8819 75.8334 36.1726 77.3699 33.4377 80.1048C30.7028 82.8397 29.1663 86.549 29.1663 90.4167C29.1663 94.2845 30.7028 97.9938 33.4377 100.729C36.1726 103.464 39.8819 105 43.7497 105C47.6174 105 51.3267 103.464 54.0616 100.729C56.7966 97.9938 58.333 94.2845 58.333 90.4167C58.333 86.549 56.7966 82.8397 54.0616 80.1048C51.3267 77.3699 47.6174 75.8334 43.7497 75.8334ZM96.2497 75.8334C92.3819 75.8334 88.6726 77.3699 85.9377 80.1048C83.2028 82.8397 81.6663 86.549 81.6663 90.4167C81.6663 94.2845 83.2028 97.9938 85.9377 100.729C88.6726 103.464 92.3819 105 96.2497 105C100.117 105 103.827 103.464 106.562 100.729C109.297 97.9938 110.833 94.2845 110.833 90.4167C110.833 86.549 109.297 82.8397 106.562 80.1048C103.827 77.3699 100.117 75.8334 96.2497 75.8334Z" fill="url(#paint0_linear_495_1231)"/>
<defs>
<linearGradient id="paint0_linear_495_1231" x1="41.4254" y1="-4.11756" x2="94.545" y2="127.361" gradientUnits="userSpaceOnUse">
<stop stop-color="#C0DFFF"/>
<stop offset="0.5" stop-color="#FFF2FC"/>
<stop offset="1" stop-color="#DEDBFF"/>
</linearGradient>
</defs>
</svg>
