<svg width="72" height="72" viewBox="0 0 72 72" fill="none" xmlns="http://www.w3.org/2000/svg">
<g id="lets-icons:send-duotone">
<path id="Vector" d="M23.0763 35.6909L27.3063 37.1009C30.1023 38.0309 31.4973 38.4989 32.4993 39.5009C33.5013 40.5029 33.9693 41.9009 34.8993 44.6909L36.3093 48.9209C38.6613 55.9829 39.8373 59.5109 42.0003 59.5109C44.1603 59.5109 45.3393 55.9829 47.6913 48.9209L56.2053 23.3849C57.8613 18.4169 58.6893 15.9329 57.3783 14.6219C56.0673 13.3109 53.5833 14.1389 48.6183 15.7919L23.0733 24.3119C16.0203 26.6609 12.4863 27.8369 12.4863 29.9999C12.4863 32.1629 16.0173 33.3389 23.0763 35.6909Z" fill="url(#paint0_linear_334_745)"/>
<path id="Vector_2" d="M23.0763 35.6909L27.3063 37.1009C30.1023 38.0309 31.4973 38.4989 32.4993 39.5009C33.5013 40.5029 33.9693 41.9009 34.8993 44.6909L36.3093 48.9209C38.6613 55.9829 39.8373 59.5109 42.0003 59.5109C44.1603 59.5109 45.3393 55.9829 47.6913 48.9209L56.2053 23.3849C57.8613 18.4169 58.6893 15.9329 57.3783 14.6219C56.0673 13.3109 53.5833 14.1389 48.6183 15.7919L23.0733 24.3119C16.0203 26.6609 12.4863 27.8369 12.4863 29.9999C12.4863 32.1629 16.0173 33.3389 23.0763 35.6909Z" fill="url(#paint1_linear_334_745)"/>
<path id="Vector_3" d="M28.5777 41.526L22.3917 39.465C21.9588 39.3207 21.4987 39.277 21.0465 39.3374C20.5942 39.3977 20.1616 39.5603 19.7817 39.813L16.5117 41.991C16.1246 42.2489 15.8208 42.6137 15.6372 43.0411C15.4536 43.4685 15.3982 43.94 15.4777 44.3983C15.5571 44.8566 15.768 45.2819 16.0848 45.6226C16.4015 45.9632 16.8104 46.2045 17.2617 46.317L23.1267 47.781C23.3906 47.8469 23.6317 47.9833 23.824 48.1757C24.0164 48.368 24.1528 48.6091 24.2187 48.873L25.6827 54.738C25.7952 55.1893 26.0365 55.5982 26.3771 55.9149C26.7178 56.2317 27.1431 56.4426 27.6014 56.522C28.0597 56.6015 28.5312 56.5461 28.9586 56.3625C29.386 56.1789 29.7508 55.8751 30.0087 55.488L32.1867 52.218C32.4394 51.8381 32.602 51.4055 32.6623 50.9532C32.7226 50.5009 32.679 50.0409 32.5347 49.608L30.4737 43.422C30.3264 42.9806 30.0784 42.5795 29.7493 42.2504C29.4202 41.9213 29.0191 41.6733 28.5777 41.526Z" fill="url(#paint2_linear_334_745)"/>
</g>
<defs>
<linearGradient id="paint0_linear_334_745" x1="35.6854" y1="13.9749" x2="46.7781" y2="40.9401" gradientUnits="userSpaceOnUse">
<stop stop-color="#938BEC"/>
<stop offset="1" stop-color="#F9C8FF"/>
</linearGradient>
<linearGradient id="paint1_linear_334_745" x1="30.5" y1="-2" x2="31.013" y2="50.714" gradientUnits="userSpaceOnUse">
<stop stop-color="#938BEC"/>
<stop offset="1" stop-color="#F9C8FF"/>
</linearGradient>
<linearGradient id="paint2_linear_334_745" x1="15.5" y1="31" x2="20.7449" y2="59.1873" gradientUnits="userSpaceOnUse">
<stop stop-color="#938BEC"/>
<stop offset="1" stop-color="#F9C8FF"/>
</linearGradient>
</defs>
</svg>
