<svg width="83" height="15" viewBox="0 0 83 15" fill="none" xmlns="http://www.w3.org/2000/svg">
<path d="M5.4512 14.2688C3.8 14.2688 2.488 13.808 1.5152 12.8864C0.5424 11.952 0.0560001 10.608 0.0560001 8.8544V5.7056C0.0560001 3.952 0.5424 2.6144 1.5152 1.6928C2.488 0.758399 3.8 0.291199 5.4512 0.291199C7.1024 0.291199 8.4144 0.758399 9.3872 1.6928C10.3728 2.6144 10.8656 3.952 10.8656 5.7056V8.8544C10.8656 10.608 10.3728 11.952 9.3872 12.8864C8.4144 13.808 7.1024 14.2688 5.4512 14.2688ZM5.4512 12.4064C6.5136 12.4064 7.3328 12.0992 7.9088 11.4848C8.4848 10.8576 8.7728 10.0064 8.7728 8.9312V5.6288C8.7728 4.5536 8.4848 3.7088 7.9088 3.0944C7.3328 2.4672 6.5136 2.1536 5.4512 2.1536C4.4144 2.1536 3.6016 2.4672 3.0128 3.0944C2.424 3.7088 2.1296 4.5536 2.1296 5.6288V8.9312C2.1296 10.0064 2.424 10.8576 3.0128 11.4848C3.6016 12.0992 4.4144 12.4064 5.4512 12.4064ZM13.3204 14V0.559999H17.314L20.962 12.6176H21.2692V0.559999H23.3236V14H19.33L15.682 1.9232H15.3748V14H13.3204ZM26.1266 14V0.559999H34.5938V2.4416H28.2002V6.3008H34.0562V8.1824H28.2002V12.1184H34.6898V14H26.1266ZM36.8516 14V0.559999H40.8452L44.4932 12.6176H44.8004V0.559999H46.8548V14H42.8612L39.2132 1.9232H38.906V14H36.8516ZM52.8643 14V2.4416H48.7363V0.559999H59.0659V2.4416H54.9379V14H52.8643ZM60.9454 14V0.559999H66.5902C67.4222 0.559999 68.1518 0.707199 68.779 1.0016C69.419 1.2832 69.9118 1.6928 70.2574 2.2304C70.6158 2.768 70.795 3.408 70.795 4.1504V4.3616C70.795 5.2064 70.5902 5.8848 70.1806 6.3968C69.7838 6.896 69.2974 7.248 68.7214 7.4528V7.76C69.2078 7.7856 69.5982 7.952 69.8926 8.2592C70.187 8.5536 70.3342 8.9824 70.3342 9.5456V14H68.2414V9.8336C68.2414 9.488 68.1518 9.2128 67.9726 9.008C67.7934 8.8032 67.5054 8.7008 67.1086 8.7008H63.019V14H60.9454ZM63.019 6.8192H66.3598C67.1022 6.8192 67.6782 6.6336 68.0878 6.2624C68.4974 5.8784 68.7022 5.36 68.7022 4.7072V4.5536C68.7022 3.9008 68.4974 3.3888 68.0878 3.0176C67.691 2.6336 67.115 2.4416 66.3598 2.4416H63.019V6.8192ZM76.2518 14V9.1232L71.5862 0.559999H73.9286L77.1542 6.6464H77.4422L80.6678 0.559999H83.0102L78.3446 9.1232V14H76.2518Z" fill="#16171A"/>
</svg>
