<svg width="130" height="20" viewBox="0 0 130 20" fill="none" xmlns="http://www.w3.org/2000/svg">
<path fill-rule="evenodd" clip-rule="evenodd" d="M6.05128 19.2564C7.28205 19.7521 8.62393 20 10.0769 20C11.5385 20 12.8803 19.7521 14.1026 19.2564C15.3248 18.7607 16.3889 18.0641 17.2949 17.1667C18.2009 16.2607 18.9017 15.2009 19.3974 13.9872C19.8932 12.765 20.141 11.4359 20.141 10C20.141 8.55556 19.8932 7.2265 19.3974 6.01282C18.9017 4.79915 18.2009 3.74359 17.2949 2.84615C16.3889 1.94017 15.3248 1.23932 14.1026 0.74359C12.8803 0.247863 11.5427 0 10.0897 0C8.62821 0 7.28205 0.247863 6.05128 0.74359C4.82906 1.23932 3.76496 1.94017 2.85897 2.84615C1.95299 3.74359 1.24786 4.79915 0.743589 6.01282C0.247862 7.2265 0 8.55556 0 10C0 11.4359 0.247862 12.765 0.743589 13.9872C1.24786 15.2009 1.95299 16.2607 2.85897 17.1667C3.76496 18.0641 4.82906 18.7607 6.05128 19.2564ZM8.57103 16.8638C8.86624 16.9298 9.13343 16.6951 9.13343 16.3926V11.9344C9.13343 11.6583 8.90957 11.4344 8.63343 11.4344H6.98708C6.71094 11.4344 6.48708 11.2106 6.48708 10.9344V10.0044C6.48708 9.87732 6.59011 9.7743 6.7172 9.7743C7.48425 9.7743 8.08146 9.69211 8.50882 9.52774C8.94714 9.36337 9.26492 9.12778 9.46216 8.82095C9.67037 8.50317 9.80734 8.11417 9.87309 7.65393C9.89255 7.58583 9.9548 7.53887 10.0256 7.53887H11.6249C11.9011 7.53887 12.1249 7.76273 12.1249 8.03887V16.0983C12.1249 16.4051 12.4239 16.6226 12.7051 16.5C13.5085 16.1496 14.2051 15.6581 14.7949 15.0256C15.3932 14.3846 15.8547 13.6368 16.1795 12.7821C16.5128 11.9274 16.6795 11 16.6795 10C16.6795 9 16.5128 8.07265 16.1795 7.21795C15.8547 6.36325 15.3932 5.61966 14.7949 4.98718C14.2051 4.34615 13.5085 3.85043 12.7051 3.5C11.9017 3.14957 11.0256 2.97436 10.0769 2.97436C9.13675 2.97436 8.26068 3.14957 7.44872 3.5C6.6453 3.85043 5.94444 4.34615 5.34615 4.98718C4.75641 5.61966 4.29487 6.36325 3.96154 7.21795C3.6282 8.07265 3.46154 9 3.46154 10C3.46154 11 3.6282 11.9274 3.96154 12.7821C4.29487 13.6368 4.75641 14.3846 5.34615 15.0256C5.94444 15.6581 6.6453 16.1496 7.44872 16.5C7.81012 16.656 8.18423 16.7772 8.57103 16.8638Z" fill="#1D2939"/>
<path d="M36.0812 19.4067C36.1751 19.5377 36.3264 19.6154 36.4876 19.6154H39.5513C39.8274 19.6154 40.0513 19.3915 40.0513 19.1154V0.884615C40.0513 0.608473 39.8274 0.384615 39.5513 0.384615H37.1667C36.8905 0.384615 36.6667 0.608473 36.6667 0.884615V12.8276C36.6667 13.3137 36.0432 13.514 35.7602 13.1187L26.7906 0.593503C26.6967 0.462393 26.5454 0.384615 26.3841 0.384615H23.3205C23.0444 0.384615 22.8205 0.608473 22.8205 0.884616V19.1154C22.8205 19.3915 23.0444 19.6154 23.3205 19.6154H25.7051C25.9813 19.6154 26.2051 19.3915 26.2051 19.1154V7.18403C26.2051 6.69803 26.8284 6.49773 27.1115 6.89274L36.0812 19.4067Z" fill="#1D2939"/>
<path d="M55.6539 0.884615C55.6539 0.608473 55.43 0.384615 55.1539 0.384615H43.9615C43.6854 0.384615 43.4615 0.608473 43.4615 0.884616V19.1154C43.4615 19.3915 43.6854 19.6154 43.9615 19.6154H55.2821C55.5582 19.6154 55.7821 19.3915 55.7821 19.1154V17.141C55.7821 16.8649 55.5582 16.641 55.2821 16.641H47.3462C47.07 16.641 46.8462 16.4172 46.8462 16.141V11.8846C46.8462 11.6085 47.07 11.3846 47.3462 11.3846H54.641C54.9172 11.3846 55.141 11.1608 55.141 10.8846V8.92308C55.141 8.64693 54.9172 8.42308 54.641 8.42308H47.3462C47.07 8.42308 46.8462 8.19922 46.8462 7.92308V3.85897C46.8462 3.58283 47.07 3.35897 47.3462 3.35897H55.1539C55.43 3.35897 55.6539 3.13512 55.6539 2.85897V0.884615Z" fill="#1D2939"/>
<path d="M72.3376 19.4067C72.4315 19.5377 72.5828 19.6154 72.744 19.6154H75.8077C76.0838 19.6154 76.3077 19.3915 76.3077 19.1154V0.884615C76.3077 0.608473 76.0838 0.384615 75.8077 0.384615H73.4231C73.1469 0.384615 72.9231 0.608473 72.9231 0.884615V12.8276C72.9231 13.3137 72.2996 13.514 72.0166 13.1187L63.047 0.593504C62.9531 0.462393 62.8018 0.384615 62.6405 0.384615H59.5769C59.3008 0.384615 59.0769 0.608473 59.0769 0.884616V19.1154C59.0769 19.3915 59.3008 19.6154 59.5769 19.6154H61.9615C62.2377 19.6154 62.4615 19.3915 62.4615 19.1154V7.18403C62.4615 6.69803 63.0848 6.49773 63.3679 6.89274L72.3376 19.4067Z" fill="#1D2939"/>
<path d="M84.1795 19.1154C84.1795 19.3915 84.4034 19.6154 84.6795 19.6154H87.0641C87.3403 19.6154 87.5641 19.3915 87.5641 19.1154V3.85897C87.5641 3.58283 87.788 3.35897 88.0641 3.35897H92.8974C93.1736 3.35897 93.3974 3.13512 93.3974 2.85897V0.884615C93.3974 0.608473 93.1736 0.384615 92.8974 0.384615H78.8333C78.5572 0.384615 78.3333 0.608473 78.3333 0.884616V2.85897C78.3333 3.13512 78.5572 3.35897 78.8333 3.35897H83.6795C83.9556 3.35897 84.1795 3.58283 84.1795 3.85897V19.1154Z" fill="#1D2939"/>
<path fill-rule="evenodd" clip-rule="evenodd" d="M107.073 19.3673C107.163 19.5209 107.327 19.6154 107.505 19.6154H110.104C110.49 19.6154 110.73 19.1969 110.536 18.8636L106.727 12.3291C106.569 12.0583 106.697 11.712 106.983 11.5825C107.921 11.157 108.666 10.5568 109.218 9.78205C109.876 8.85043 110.205 7.71795 110.205 6.38462C110.205 5.12821 109.919 4.05556 109.346 3.16667C108.774 2.26923 107.957 1.5812 106.897 1.10256C105.838 0.623932 104.56 0.384615 103.064 0.384615H95.9359C95.6598 0.384615 95.4359 0.608473 95.4359 0.884616V19.1154C95.4359 19.3915 95.6598 19.6154 95.9359 19.6154H98.3205C98.5967 19.6154 98.8205 19.3915 98.8205 19.1154V12.8846C98.8205 12.6085 99.0444 12.3846 99.3205 12.3846H102.713C102.891 12.3846 103.055 12.4791 103.145 12.6327L107.073 19.3673ZM102.821 9.61538H99.3205C99.0444 9.61538 98.8205 9.39153 98.8205 9.11538V3.85897C98.8205 3.58283 99.0444 3.35897 99.3205 3.35897H102.821C104.068 3.35897 105.034 3.63248 105.718 4.17949C106.402 4.7265 106.744 5.49573 106.744 6.48718C106.744 7.47863 106.397 8.24786 105.705 8.79487C105.021 9.34188 104.06 9.61538 102.821 9.61538Z" fill="#1D2939"/>
<path d="M118.718 19.1154C118.718 19.3915 118.942 19.6154 119.218 19.6154H121.603C121.879 19.6154 122.103 19.3915 122.103 19.1154V11.5742C122.103 11.4757 122.132 11.3793 122.186 11.2972L128.932 1.16163C129.153 0.829327 128.915 0.384615 128.515 0.384615H125.627C125.452 0.384615 125.291 0.475263 125.2 0.62389L120.838 7.76158C120.643 8.08105 120.179 8.08051 119.984 7.76059L115.646 0.624878C115.555 0.475689 115.393 0.384615 115.219 0.384615H112.318C111.919 0.384615 111.681 0.829446 111.902 1.16174L118.634 11.2716C118.689 11.3536 118.718 11.4501 118.718 11.5487V19.1154Z" fill="#1D2939"/>
</svg>
