<svg width="132" height="32" viewBox="0 0 132 32" fill="none" xmlns="http://www.w3.org/2000/svg">
<g clip-path="url(#clip0_200_771)">
<mask id="mask0_200_771" style="mask-type:luminance" maskUnits="userSpaceOnUse" x="0" y="0" width="32" height="32">
<path d="M32 0H0V32H32V0Z" fill="white"/>
</mask>
<g mask="url(#mask0_200_771)">
<path d="M32 0H0V32H32V0Z" fill="#3BA3B0"/>
<path d="M32 0H0V32H32V0Z" fill="black" fill-opacity="0.2"/>
<path d="M0.941162 16.1882C0.941162 12.1445 2.54755 8.2663 5.40693 5.40692C8.2663 2.54754 12.1445 0.941162 16.1882 0.941162C20.232 0.941162 24.1102 2.54754 26.9695 5.40692C29.8289 8.2663 31.4353 12.1445 31.4353 16.1882C31.4353 20.232 29.8289 24.1101 26.9695 26.9695C24.1102 29.8289 20.232 31.4353 16.1882 31.4353C12.1445 31.4353 8.2663 29.8289 5.40693 26.9695C2.54755 24.1101 0.941162 20.232 0.941162 16.1882ZM26.3529 16.1882C26.3529 10.3247 22.08 5.70352 16.2165 5.70352C14.8479 5.6927 13.4913 5.95835 12.2279 6.48455C10.9646 7.01074 9.82045 7.78665 8.86422 8.76573C7.90798 9.74482 7.15932 10.9069 6.66309 12.1824C6.16687 13.4578 5.93333 14.8203 5.97646 16.1882C5.97646 18.8866 7.04836 21.4744 8.95638 23.3824C10.8644 25.2904 13.4522 26.3623 16.1506 26.3623C18.8489 26.3623 21.4368 25.2904 23.3448 23.3824C25.2528 21.4744 26.3247 18.8866 26.3247 16.1882H26.3529Z" fill="white"/>
</g>
</g>
<path d="M50.352 22.124C50.848 22.124 51.304 22.068 51.72 21.956C52.152 21.844 52.536 21.652 52.872 21.38C53.224 21.092 53.52 20.724 53.76 20.276C54.016 19.828 54.208 19.26 54.336 18.572C54.48 17.868 54.552 17.044 54.552 16.1C54.552 15.14 54.48 14.316 54.336 13.628C54.192 12.924 53.992 12.348 53.736 11.9C53.496 11.436 53.208 11.068 52.872 10.796C52.536 10.524 52.152 10.332 51.72 10.22C51.288 10.108 50.832 10.052 50.352 10.052C49.888 10.052 49.448 10.108 49.032 10.22C48.616 10.332 48.232 10.524 47.88 10.796C47.544 11.052 47.248 11.412 46.992 11.876C46.752 12.34 46.56 12.924 46.416 13.628C46.288 14.316 46.224 15.14 46.224 16.1C46.224 17.06 46.288 17.884 46.416 18.572C46.56 19.244 46.76 19.812 47.016 20.276C47.272 20.74 47.568 21.108 47.904 21.38C48.256 21.652 48.632 21.844 49.032 21.956C49.448 22.068 49.888 22.124 50.352 22.124ZM50.376 24.74C49.464 24.74 48.624 24.652 47.856 24.476C47.088 24.284 46.392 23.988 45.768 23.588C45.144 23.172 44.616 22.636 44.184 21.98C43.768 21.308 43.44 20.492 43.2 19.532C42.976 18.556 42.864 17.412 42.864 16.1C42.864 14.788 42.968 13.652 43.176 12.692C43.4 11.732 43.72 10.924 44.136 10.268C44.568 9.596 45.096 9.052 45.72 8.636C46.344 8.204 47.04 7.9 47.808 7.724C48.576 7.548 49.432 7.46 50.376 7.46C51.304 7.46 52.16 7.556 52.944 7.748C53.728 7.924 54.424 8.212 55.032 8.612C55.64 9.012 56.16 9.548 56.592 10.22C57.024 10.876 57.352 11.684 57.576 12.644C57.8 13.604 57.912 14.732 57.912 16.028C57.912 17.372 57.8 18.532 57.576 19.508C57.352 20.484 57.016 21.308 56.568 21.98C56.136 22.636 55.616 23.172 55.008 23.588C54.4 23.988 53.704 24.284 52.92 24.476C52.152 24.652 51.304 24.74 50.376 24.74ZM59.9824 24.5V11.516H62.8864V12.644C63.4144 12.34 63.9184 12.092 64.3984 11.9C64.8784 11.692 65.3504 11.54 65.8144 11.444C66.2944 11.332 66.7984 11.276 67.3264 11.276C68.1584 11.276 68.8464 11.428 69.3904 11.732C69.9504 12.02 70.3664 12.436 70.6384 12.98C70.9104 13.524 71.0464 14.18 71.0464 14.948V24.5H67.8544V15.956C67.8544 15.284 67.6944 14.788 67.3744 14.468C67.0704 14.132 66.6064 13.964 65.9824 13.964C65.6624 13.964 65.3504 14.004 65.0464 14.084C64.7424 14.148 64.4384 14.236 64.1344 14.348C63.8304 14.46 63.5104 14.604 63.1744 14.78V24.5H59.9824ZM79.1207 24.74C78.1447 24.74 77.2807 24.62 76.5287 24.38C75.7767 24.124 75.1367 23.74 74.6087 23.228C74.0967 22.7 73.7047 22.036 73.4327 21.236C73.1767 20.42 73.0487 19.452 73.0487 18.332C73.0487 17.036 73.2007 15.94 73.5047 15.044C73.8247 14.132 74.2727 13.404 74.8487 12.86C75.4247 12.3 76.0967 11.9 76.8647 11.66C77.6327 11.404 78.4727 11.276 79.3847 11.276C81.1927 11.276 82.5207 11.732 83.3687 12.644C84.2327 13.556 84.6647 15.044 84.6647 17.108C84.6647 17.252 84.6647 17.436 84.6647 17.66C84.6647 17.884 84.6487 18.1 84.6167 18.308C84.2487 18.34 83.7767 18.38 83.2007 18.428C82.6247 18.476 81.9767 18.524 81.2567 18.572C80.5367 18.62 79.7607 18.66 78.9287 18.692C78.0967 18.724 77.2407 18.756 76.3607 18.788C76.3447 18.836 76.3367 18.892 76.3367 18.956C76.3367 19.02 76.3367 19.084 76.3367 19.148C76.3367 19.884 76.4567 20.476 76.6967 20.924C76.9527 21.356 77.3287 21.684 77.8247 21.908C78.3207 22.116 78.9447 22.22 79.6967 22.22C80.1767 22.22 80.6647 22.196 81.1607 22.148C81.6727 22.084 82.1767 22.012 82.6727 21.932C83.1847 21.836 83.6807 21.732 84.1607 21.62L84.5447 23.972C84.0327 24.132 83.4887 24.276 82.9127 24.404C82.3367 24.516 81.7367 24.596 81.1127 24.644C80.4887 24.708 79.8247 24.74 79.1207 24.74ZM76.3847 16.724C76.9447 16.724 77.4807 16.716 77.9927 16.7C78.5207 16.668 79.0167 16.644 79.4807 16.628C79.9447 16.596 80.3447 16.572 80.6807 16.556C81.0167 16.524 81.2807 16.5 81.4727 16.484C81.4567 15.78 81.3607 15.212 81.1847 14.78C81.0247 14.348 80.7687 14.036 80.4167 13.844C80.0807 13.652 79.6567 13.556 79.1447 13.556C78.8247 13.556 78.5127 13.604 78.2087 13.7C77.9047 13.796 77.6247 13.964 77.3687 14.204C77.1127 14.444 76.8967 14.764 76.7207 15.164C76.5607 15.564 76.4487 16.084 76.3847 16.724ZM86.6543 24.5V11.516H89.5583V12.644C90.0863 12.34 90.5903 12.092 91.0703 11.9C91.5503 11.692 92.0223 11.54 92.4863 11.444C92.9663 11.332 93.4703 11.276 93.9983 11.276C94.8303 11.276 95.5183 11.428 96.0623 11.732C96.6223 12.02 97.0383 12.436 97.3103 12.98C97.5823 13.524 97.7183 14.18 97.7183 14.948V24.5H94.5263V15.956C94.5263 15.284 94.3663 14.788 94.0463 14.468C93.7423 14.132 93.2783 13.964 92.6543 13.964C92.3343 13.964 92.0223 14.004 91.7183 14.084C91.4143 14.148 91.1103 14.236 90.8063 14.348C90.5023 14.46 90.1823 14.604 89.8463 14.78V24.5H86.6543ZM104.929 24.74C104.097 24.74 103.393 24.58 102.817 24.26C102.257 23.94 101.833 23.452 101.545 22.796C101.273 22.14 101.137 21.3 101.137 20.276V13.844H99.1446V11.732L101.137 11.516L101.521 8.636H104.329V11.516H108.001V13.868H104.329V20.012C104.329 20.748 104.465 21.268 104.737 21.572C105.009 21.876 105.433 22.028 106.009 22.028C106.329 22.028 106.657 22.004 106.993 21.956C107.329 21.892 107.681 21.812 108.049 21.716L108.481 24.14C107.841 24.364 107.217 24.516 106.609 24.596C106.017 24.692 105.457 24.74 104.929 24.74ZM112.808 11.516V13.052C113.256 12.636 113.672 12.3 114.056 12.044C114.456 11.772 114.856 11.58 115.256 11.468C115.672 11.34 116.104 11.276 116.552 11.276C116.84 11.276 117.128 11.3 117.416 11.348C117.72 11.38 118.016 11.444 118.304 11.54L117.8 14.42C117.512 14.356 117.216 14.308 116.912 14.276C116.624 14.228 116.352 14.204 116.096 14.204C115.632 14.204 115.152 14.292 114.656 14.468C114.16 14.644 113.64 14.948 113.096 15.38V24.5H109.904V11.516H112.808ZM122.507 29.516L124.115 24.5H123.563L118.739 11.54L122.243 11.468L125.435 21.86L128.411 11.468L131.699 11.54L125.795 29.588L122.507 29.516Z" fill="#1D2939"/>
<defs>
<clipPath id="clip0_200_771">
<rect width="32" height="32" rx="16" fill="white"/>
</clipPath>
</defs>
</svg>
