<svg width="356" height="319" viewBox="0 0 356 319" fill="none" xmlns="http://www.w3.org/2000/svg">
<g filter="url(#filter0_bd_162_1045)">
<rect x="24.9893" y="24.8082" width="306.251" height="385.902" rx="18.0147" fill="white" shape-rendering="crispEdges"/>
<rect x="25.4893" y="25.3082" width="305.251" height="384.902" rx="17.5147" stroke="white" shape-rendering="crispEdges"/>
<rect x="38.5" y="38.3193" width="279.229" height="185.777" rx="13.5111" fill="#D9D9D9"/>
<path d="M45.9581 257.824C42.121 257.824 39.2746 254.887 39.2746 250.888C39.2746 246.889 42.1029 243.97 45.9581 243.97C48.7864 243.97 50.8761 245.592 51.5607 247.465L49.543 248.438C48.9846 247.015 47.7055 246.024 45.9581 246.024C43.346 246.024 41.5445 248.006 41.5445 250.888C41.5445 253.788 43.346 255.77 45.9581 255.77C47.7055 255.77 48.9846 254.779 49.543 253.356L51.5607 254.329C50.8761 256.202 48.7864 257.824 45.9581 257.824ZM53.2846 257.607V244.186H55.4464V257.607H53.2846ZM66.4777 252.401C66.4777 252.743 66.4417 253.086 66.3697 253.374H59.2358C59.3439 254.923 60.4788 255.914 61.9741 255.914C63.127 255.914 63.9016 255.356 64.334 254.563L66.1174 255.428C65.523 256.815 63.9377 257.824 61.956 257.824C59.0196 257.824 56.984 255.59 56.984 252.743C56.984 249.825 59.0557 247.681 61.7939 247.681C64.5321 247.681 66.4777 249.825 66.4777 252.401ZM59.2718 251.699H64.1538C64.0818 250.402 63.0369 249.483 61.7939 249.483C60.5329 249.483 59.5241 250.275 59.2718 251.699ZM78.4979 247.681C80.5156 247.681 81.9568 249.14 81.9568 251.302V257.607H79.795V251.843C79.795 250.492 79.0384 249.681 77.8854 249.681C76.7505 249.681 75.9759 250.492 75.9759 251.843V257.607H73.8141V251.843C73.8141 250.492 73.0575 249.681 71.9045 249.681C70.7696 249.681 70.013 250.492 70.013 251.843V257.607H67.8512V247.897H69.8869V249.086C70.3913 248.168 71.3281 247.681 72.499 247.681C73.7961 247.681 74.859 248.276 75.4715 249.285C76.0479 248.294 77.1648 247.681 78.4979 247.681ZM92.8137 252.401C92.8137 252.743 92.7777 253.086 92.7057 253.374H85.5718C85.6799 254.923 86.8148 255.914 88.3101 255.914C89.463 255.914 90.2376 255.356 90.67 254.563L92.4535 255.428C91.859 256.815 90.2737 257.824 88.292 257.824C85.3556 257.824 83.32 255.59 83.32 252.743C83.32 249.825 85.3917 247.681 88.1299 247.681C90.8682 247.681 92.8137 249.825 92.8137 252.401ZM85.6078 251.699H90.4898C90.4178 250.402 89.3729 249.483 88.1299 249.483C86.8689 249.483 85.8601 250.275 85.6078 251.699ZM98.9792 247.681C101.141 247.681 102.636 249.177 102.636 251.302V257.607H100.474V251.843C100.474 250.528 99.6457 249.681 98.4207 249.681C97.1777 249.681 96.349 250.528 96.349 251.843V257.607H94.1872V247.897H96.2229V249.068C96.7633 248.168 97.7722 247.681 98.9792 247.681ZM108.927 257.716C106.747 257.716 105.522 256.491 105.522 254.347V249.843H103.757V247.897H104.045C104.982 247.897 105.522 247.375 105.522 246.438V244.889H107.684V247.897H109.99V249.843H107.684V254.347C107.684 255.175 108.026 255.95 109.395 255.95C109.575 255.95 109.81 255.932 110.044 255.896V257.625C109.701 257.679 109.269 257.716 108.927 257.716ZM119.779 257.824C117.131 257.824 114.969 256.274 114.285 254.113L116.231 253.23C116.861 254.905 118.248 255.824 119.779 255.824C121.293 255.824 122.265 255.085 122.265 254.095C122.265 253.176 121.707 252.689 120.644 252.365L118.014 251.554C115.798 250.888 114.717 249.555 114.717 247.825C114.717 245.538 116.591 243.97 119.329 243.97C121.869 243.97 123.797 245.411 124.481 247.303L122.518 248.204C122.031 246.781 120.878 245.97 119.347 245.97C117.942 245.97 117.005 246.69 117.005 247.717C117.005 248.546 117.582 249.159 118.663 249.483L121.203 250.257C123.418 250.942 124.553 252.131 124.553 253.932C124.553 256.256 122.626 257.824 119.779 257.824ZM130.816 257.824C127.97 257.824 125.718 255.68 125.718 252.743C125.718 249.807 127.952 247.681 130.816 247.681C133.662 247.681 135.914 249.807 135.914 252.743C135.914 255.68 133.644 257.824 130.816 257.824ZM130.816 255.824C132.455 255.824 133.662 254.545 133.662 252.761C133.662 250.978 132.455 249.681 130.816 249.681C129.159 249.681 127.97 250.978 127.97 252.761C127.97 254.545 129.159 255.824 130.816 255.824ZM148.094 247.681C150.112 247.681 151.553 249.14 151.553 251.302V257.607H149.391V251.843C149.391 250.492 148.634 249.681 147.481 249.681C146.347 249.681 145.572 250.492 145.572 251.843V257.607H143.41V251.843C143.41 250.492 142.654 249.681 141.501 249.681C140.366 249.681 139.609 250.492 139.609 251.843V257.607H137.447V247.897H139.483V249.086C139.987 248.168 140.924 247.681 142.095 247.681C143.392 247.681 144.455 248.276 145.067 249.285C145.644 248.294 146.761 247.681 148.094 247.681ZM157.384 247.681C159.744 247.681 161.365 249.104 161.365 251.122V257.607H159.329V256.527C158.609 257.391 157.618 257.824 156.447 257.824C154.285 257.824 152.916 256.599 152.916 254.941C152.916 253.5 154.051 252.545 156.015 252.113L159.203 251.428V251.122C159.203 250.221 158.465 249.627 157.384 249.627C156.339 249.627 155.51 250.203 155.15 251.122L153.276 250.185C153.835 248.708 155.456 247.681 157.384 247.681ZM156.699 256.112C158.14 256.112 159.203 255.067 159.203 253.698V253.068L156.447 253.68C155.636 253.86 155.168 254.329 155.168 254.923C155.168 255.662 155.762 256.112 156.699 256.112ZM163.097 257.607V244.186H165.259V257.607H163.097ZM167.265 246.618V244.186H169.427V246.618H167.265ZM167.265 257.607V247.897H169.427V257.607H167.265ZM175.363 247.681C177.723 247.681 179.344 249.104 179.344 251.122V257.607H177.309V256.527C176.588 257.391 175.597 257.824 174.426 257.824C172.265 257.824 170.896 256.599 170.896 254.941C170.896 253.5 172.03 252.545 173.994 252.113L177.183 251.428V251.122C177.183 250.221 176.444 249.627 175.363 249.627C174.318 249.627 173.49 250.203 173.129 251.122L171.256 250.185C171.814 248.708 173.436 247.681 175.363 247.681ZM174.679 256.112C176.12 256.112 177.183 255.067 177.183 253.698V253.068L174.426 253.68C173.616 253.86 173.147 254.329 173.147 254.923C173.147 255.662 173.742 256.112 174.679 256.112Z" fill="#1D2939"/>
<path d="M49.1242 273.368H50.4798V285.111H48.9823V276.174L45.1519 281.612H45.0258L41.1955 276.11V285.111H39.698V273.368H41.0536L45.0889 279.121L49.1242 273.368ZM58.0608 276.757H59.4164V285.111H58.0923V284.15C57.6037 284.875 56.7052 285.3 55.6963 285.3C53.8836 285.3 52.5595 283.85 52.5595 282.069V276.757H53.9151V281.817C53.9151 283.141 54.7348 283.992 55.9958 283.992C57.2253 283.992 58.0608 283.125 58.0608 281.817V276.757ZM61.4914 285.111V273.368H62.847V285.111H61.4914ZM68.4235 285.206C66.7369 285.206 65.7911 284.244 65.7911 282.557V278.049H64.1675V276.757H64.5931C65.3182 276.757 65.7911 276.268 65.7911 275.527V274.046H67.1467V276.757H69.1644V278.049H67.1467V282.557C67.1467 283.093 67.2413 284.071 68.6757 284.071C68.8491 284.071 69.0856 284.055 69.259 284.023V285.127C68.991 285.19 68.66 285.206 68.4235 285.206ZM70.7399 275.212V273.368H72.0955V275.212H70.7399ZM70.7399 285.111V276.757H72.0955V285.111H70.7399ZM74.3835 281.517V280.225H80.2158V281.517H74.3835ZM89.3416 273.368H90.6972V285.111H89.3732V283.897C88.7584 284.796 87.6392 285.3 86.3782 285.3C83.998 285.3 82.1538 283.456 82.1538 280.934C82.1538 278.412 84.0138 276.568 86.3624 276.568C87.6235 276.568 88.7426 277.104 89.3416 277.986V273.368ZM86.457 283.992C88.1121 283.992 89.3416 282.699 89.3416 280.934C89.3416 279.184 88.1121 277.876 86.457 277.876C84.8019 277.876 83.5882 279.184 83.5882 280.934C83.5882 282.699 84.8019 283.992 86.457 283.992ZM92.6448 275.212V273.368H94.0004V275.212H92.6448ZM92.6448 285.111V276.757H94.0004V285.111H92.6448ZM98.8735 285.3C97.2342 285.3 95.8943 284.433 95.3584 283.015L96.5091 282.447C96.9347 283.503 97.8332 284.055 98.8735 284.055C99.8508 284.055 100.513 283.551 100.513 282.857C100.513 282.258 100.008 281.927 99.2361 281.706L97.8647 281.328C96.4618 280.934 95.7367 280.13 95.7367 278.995C95.7367 277.545 96.9031 276.568 98.6371 276.568C100.182 276.568 101.411 277.371 101.9 278.68L100.765 279.232C100.418 278.333 99.6301 277.813 98.6371 277.813C97.7386 277.813 97.1396 278.254 97.1396 278.916C97.1396 279.484 97.6125 279.862 98.3376 280.083L99.7562 280.508C101.159 280.918 101.916 281.738 101.916 282.857C101.916 284.307 100.67 285.3 98.8735 285.3ZM107.097 285.3C104.701 285.3 102.92 283.424 102.92 280.918C102.92 278.412 104.701 276.568 107.097 276.568C108.736 276.568 110.123 277.529 110.643 278.774L109.43 279.405C109.02 278.491 108.184 277.876 107.097 277.876C105.52 277.876 104.354 279.168 104.354 280.934C104.354 282.668 105.52 283.992 107.097 283.992C108.184 283.992 109.02 283.377 109.43 282.463L110.643 283.093C110.123 284.323 108.72 285.3 107.097 285.3ZM111.964 275.212V273.368H113.319V275.212H111.964ZM111.964 285.111V276.757H113.319V285.111H111.964ZM119.595 276.568C121.944 276.568 123.82 278.38 123.82 280.918C123.82 283.456 121.944 285.3 119.564 285.3C118.334 285.3 117.247 284.796 116.632 283.96V288.264H115.276V276.757H116.6V278.034C117.168 277.119 118.303 276.568 119.595 276.568ZM119.516 283.992C121.171 283.992 122.385 282.699 122.385 280.934C122.385 279.168 121.156 277.876 119.516 277.876C117.861 277.876 116.632 279.168 116.632 280.934C116.632 282.699 117.846 283.992 119.516 283.992ZM125.42 285.111V273.368H126.776V285.111H125.42ZM128.727 275.212V273.368H130.083V275.212H128.727ZM128.727 285.111V276.757H130.083V285.111H128.727ZM135.775 276.568C137.588 276.568 138.897 277.86 138.897 279.61V285.111H137.541V280.051C137.541 278.727 136.737 277.876 135.476 277.876C134.231 277.876 133.395 278.743 133.395 280.051V285.111H132.04V276.757H133.364V277.718C133.852 276.993 134.751 276.568 135.775 276.568ZM144.03 276.568C145.937 276.568 147.277 277.75 147.277 279.452V285.111H145.953V283.945C145.385 284.78 144.392 285.3 143.32 285.3C141.539 285.3 140.341 284.26 140.341 282.794C140.341 281.564 141.334 280.713 143.021 280.335L145.921 279.689V279.452C145.921 278.491 145.133 277.86 144.03 277.86C143.021 277.86 142.233 278.396 141.87 279.216L140.656 278.585C141.129 277.45 142.485 276.568 144.03 276.568ZM143.399 284.086C144.865 284.086 145.921 282.983 145.921 281.517V280.792L143.336 281.391C142.39 281.596 141.775 282.116 141.775 282.794C141.775 283.582 142.406 284.086 143.399 284.086ZM152.612 276.662H153.29V277.955H152.407C151.209 277.955 150.405 278.743 150.405 280.13V285.111H149.049V276.757H150.358V277.797C150.799 277.025 151.603 276.662 152.612 276.662ZM160.64 276.741H162.217L158.355 286.151C157.929 287.208 157.33 288.532 155.376 288.532C154.997 288.532 154.587 288.484 154.272 288.358V287.144C154.43 287.192 154.808 287.239 155.139 287.239C156.369 287.239 156.684 286.482 156.936 285.899L157.299 285.032L153.957 276.741H155.502L158.071 283.204L160.64 276.741ZM169.429 276.568C171.336 276.568 172.676 277.75 172.676 279.452V285.111H171.352V283.945C170.784 284.78 169.791 285.3 168.719 285.3C166.938 285.3 165.74 284.26 165.74 282.794C165.74 281.564 166.733 280.713 168.42 280.335L171.32 279.689V279.452C171.32 278.491 170.532 277.86 169.429 277.86C168.42 277.86 167.632 278.396 167.269 279.216L166.055 278.585C166.528 277.45 167.884 276.568 169.429 276.568ZM168.798 284.086C170.264 284.086 171.32 282.983 171.32 281.517V280.792L168.735 281.391C167.789 281.596 167.175 282.116 167.175 282.794C167.175 283.582 167.805 284.086 168.798 284.086ZM178.011 276.662H178.689V277.955H177.806C176.608 277.955 175.804 278.743 175.804 280.13V285.111H174.449V276.757H175.757V277.797C176.198 277.025 177.002 276.662 178.011 276.662ZM183.705 285.206C182.019 285.206 181.073 284.244 181.073 282.557V278.049H179.449V276.757H179.875C180.6 276.757 181.073 276.268 181.073 275.527V274.046H182.428V276.757H184.446V278.049H182.428V282.557C182.428 283.093 182.523 284.071 183.957 284.071C184.131 284.071 184.367 284.055 184.541 284.023V285.127C184.273 285.19 183.942 285.206 183.705 285.206ZM186.022 275.212V273.368H187.377V275.212H186.022ZM186.022 285.111V276.757H187.377V285.111H186.022ZM192.25 285.3C190.611 285.3 189.271 284.433 188.735 283.015L189.886 282.447C190.311 283.503 191.21 284.055 192.25 284.055C193.228 284.055 193.89 283.551 193.89 282.857C193.89 282.258 193.385 281.927 192.613 281.706L191.241 281.328C189.839 280.934 189.113 280.13 189.113 278.995C189.113 277.545 190.28 276.568 192.014 276.568C193.559 276.568 194.788 277.371 195.277 278.68L194.142 279.232C193.795 278.333 193.007 277.813 192.014 277.813C191.115 277.813 190.516 278.254 190.516 278.916C190.516 279.484 190.989 279.862 191.714 280.083L193.133 280.508C194.536 280.918 195.292 281.738 195.292 282.857C195.292 284.307 194.047 285.3 192.25 285.3ZM200.269 285.206C198.582 285.206 197.636 284.244 197.636 282.557V278.049H196.013V276.757H196.438C197.163 276.757 197.636 276.268 197.636 275.527V274.046H198.992V276.757H201.009V278.049H198.992V282.557C198.992 283.093 199.086 284.071 200.521 284.071C200.694 284.071 200.931 284.055 201.104 284.023V285.127C200.836 285.19 200.505 285.206 200.269 285.206Z" fill="#667085"/>
<g clip-path="url(#clip0_162_1045)">
<path d="M38.5 316.133C38.5 313.683 39.1035 311.422 40.3105 309.351C41.5175 307.279 43.1568 305.64 45.2285 304.433C47.3002 303.226 49.5611 302.622 52.0111 302.622C54.4611 302.622 56.7219 303.226 58.7936 304.433C60.8653 305.64 62.5046 307.279 63.7116 309.351C64.9186 311.422 65.5221 313.683 65.5221 316.133C65.5221 318.583 64.9186 320.844 63.7116 322.916C62.5046 324.987 60.8653 326.627 58.7936 327.834C56.7219 329.041 54.4611 329.644 52.0111 329.644C49.5611 329.644 47.3002 329.041 45.2285 327.834C43.1568 326.627 41.5175 324.987 40.3105 322.916C39.1035 320.844 38.5 318.583 38.5 316.133ZM40.7428 316.133C40.7428 318.943 41.6886 321.421 43.5802 323.564C44.4449 321.871 45.814 320.259 47.6875 318.727C49.5611 317.196 51.3895 316.232 53.173 315.836C52.9028 315.205 52.6416 314.638 52.3894 314.134C49.2908 315.124 45.9401 315.62 42.3371 315.62C41.6346 315.62 41.1121 315.611 40.7699 315.593C40.7699 315.665 40.7654 315.755 40.7563 315.863C40.7473 315.971 40.7428 316.061 40.7428 316.133ZM41.0941 313.35C41.4904 313.386 42.0759 313.404 42.8506 313.404C45.859 313.404 48.7144 312.999 51.4166 312.188C50.0475 309.756 48.5432 307.729 46.9039 306.108C45.4807 306.829 44.2602 307.828 43.2424 309.107C42.2245 310.386 41.5085 311.801 41.0941 313.35ZM45.1204 325.023C47.1561 326.609 49.453 327.401 52.0111 327.401C53.3441 327.401 54.6682 327.149 55.9833 326.645C55.623 323.564 54.9204 320.583 53.8756 317.7C52.2182 318.061 50.5474 318.971 48.863 320.43C47.1786 321.889 45.9311 323.42 45.1204 325.023ZM49.2548 305.243C50.8401 306.883 52.3083 308.927 53.6594 311.377C56.1094 310.35 57.9559 309.044 59.1989 307.459C57.1092 305.73 54.7133 304.865 52.0111 304.865C51.0923 304.865 50.1736 304.991 49.2548 305.243ZM54.6322 313.296C54.9024 313.872 55.2087 314.602 55.551 315.485C56.884 315.359 58.3342 315.296 59.9015 315.296C61.0184 315.296 62.1263 315.323 63.2252 315.377C63.0811 312.927 62.1984 310.747 60.5771 308.837C59.4061 310.585 57.4245 312.071 54.6322 313.296ZM56.2265 317.376C57.1453 320.042 57.7668 322.781 58.091 325.591C59.5142 324.672 60.6762 323.492 61.5769 322.051C62.4776 320.61 63.0181 319.052 63.1982 317.376C61.8831 317.286 60.6852 317.241 59.6043 317.241C58.6135 317.241 57.4875 317.286 56.2265 317.376Z" fill="#1D2939"/>
</g>
<g clip-path="url(#clip1_162_1045)">
<path d="M107.187 302.622L94.8193 311.773L97.1193 306.38L107.187 302.622Z" fill="#E17726"/>
<path d="M79.7295 302.633L89.7706 306.381L91.9544 311.845L79.7295 302.633Z" fill="#E27625"/>
<path d="M91.6575 310.453L91.881 317.668L85.1963 317.364L87.0977 314.496L87.1218 314.468L91.6575 310.453Z" fill="#E27625"/>
<path d="M95.1617 310.373L99.7667 314.468L99.7905 314.496L101.692 317.364L95.0088 317.668L95.1617 310.373Z" fill="#E27625"/>
<path d="M90.2928 318.61L91.414 320.966L87.5967 319.848L90.2928 318.61Z" fill="#233447"/>
<path d="M96.5955 318.61L99.3043 319.848L95.4746 320.966L96.5955 318.61Z" fill="#233447"/>
<path d="M101.789 317.078L98.9326 319.988L96.7307 318.982L95.6765 321.198L94.9854 317.387L101.789 317.078Z" fill="#CC6228"/>
<path d="M85.0986 317.077L91.903 317.387L91.2119 321.198L90.1575 318.982L87.9672 319.988L85.0986 317.077Z" fill="#CC6228"/>
<path d="M84.9062 316.48L88.1375 319.759L88.2494 322.996L84.9062 316.48Z" fill="#E27525"/>
<path d="M101.986 316.474L98.6367 323.002L98.7628 319.759L101.986 316.474Z" fill="#E27525"/>
<path d="M91.745 316.68L91.875 317.498L92.1964 319.538L91.9898 325.801L91.013 320.769L91.0127 320.717L91.745 316.68Z" fill="#E27525"/>
<path d="M95.1419 316.669L95.8761 320.717L95.8758 320.769L94.8966 325.813L94.8579 324.552L94.7051 319.5L95.1419 316.669Z" fill="#E27525"/>
<path d="M106.371 302.875L107.856 307.329L106.929 311.833L107.589 312.342L106.696 313.023L107.367 313.542L106.478 314.352L107.024 314.747L105.575 316.439L99.6338 314.709L99.5823 314.681L95.3008 311.069L106.371 302.875Z" fill="#763E1A"/>
<path d="M80.5169 302.875L91.5875 311.069L87.306 314.681L87.2545 314.709L81.313 316.439L79.8644 314.747L80.4098 314.352L79.5212 313.542L80.1913 313.024L79.2846 312.34L79.9697 311.831L79.0322 307.329L80.5169 302.875Z" fill="#763E1A"/>
<path d="M99.3434 314.331L105.639 316.163L107.684 322.467L102.288 322.467L98.5703 322.514L101.274 317.244L99.3434 314.331Z" fill="#F5841F"/>
<path d="M87.5451 314.331L85.614 317.244L88.3182 322.514L84.6021 322.467H79.2158L81.2496 316.163L87.5451 314.331Z" fill="#F5841F"/>
<path d="M97.428 306.35L95.6671 311.106L95.2934 317.531L95.1505 319.544L95.1391 324.688H91.7488L91.7378 319.554L91.5944 317.529L91.2205 311.106L89.46 306.35H97.428Z" fill="#F5841F"/>
</g>
<g clip-path="url(#clip2_162_1045)">
<path d="M121.368 316.133C121.368 313.683 121.972 311.422 123.179 309.351C124.386 307.279 126.025 305.64 128.097 304.433C130.168 303.226 132.429 302.622 134.879 302.622C137.329 302.622 139.59 303.226 141.662 304.433C143.733 305.64 145.373 307.279 146.58 309.351C147.787 311.422 148.39 313.683 148.39 316.133C148.39 318.583 147.787 320.844 146.58 322.916C145.373 324.987 143.733 326.627 141.662 327.834C139.59 329.041 137.329 329.644 134.879 329.644C132.429 329.644 130.168 329.041 128.097 327.834C126.025 326.627 124.386 324.987 123.179 322.916C121.972 320.844 121.368 318.583 121.368 316.133ZM123.611 316.133C123.611 318.943 124.557 321.421 126.448 323.564C127.313 321.871 128.682 320.259 130.556 318.727C132.429 317.196 134.258 316.232 136.041 315.836C135.771 315.205 135.51 314.638 135.258 314.134C132.159 315.124 128.808 315.62 125.205 315.62C124.503 315.62 123.98 315.611 123.638 315.593C123.638 315.665 123.634 315.755 123.625 315.863C123.616 315.971 123.611 316.061 123.611 316.133ZM123.962 313.35C124.359 313.386 124.944 313.404 125.719 313.404C128.727 313.404 131.583 312.999 134.285 312.188C132.916 309.756 131.411 307.729 129.772 306.108C128.349 306.829 127.128 307.828 126.111 309.107C125.093 310.386 124.377 311.801 123.962 313.35ZM127.989 325.023C130.024 326.609 132.321 327.401 134.879 327.401C136.212 327.401 137.536 327.149 138.851 326.645C138.491 323.564 137.789 320.583 136.744 317.7C135.086 318.061 133.416 318.971 131.731 320.43C130.047 321.889 128.799 323.42 127.989 325.023ZM132.123 305.243C133.708 306.883 135.176 308.927 136.528 311.377C138.978 310.35 140.824 309.044 142.067 307.459C139.977 305.73 137.581 304.865 134.879 304.865C133.96 304.865 133.042 304.991 132.123 305.243ZM137.5 313.296C137.771 313.872 138.077 314.602 138.419 315.485C139.752 315.359 141.202 315.296 142.77 315.296C143.887 315.296 144.995 315.323 146.093 315.377C145.949 312.927 145.067 310.747 143.445 308.837C142.274 310.585 140.293 312.071 137.5 313.296ZM139.095 317.376C140.013 320.042 140.635 322.781 140.959 325.591C142.382 324.672 143.544 323.492 144.445 322.051C145.346 320.61 145.886 319.052 146.066 317.376C144.751 317.286 143.553 317.241 142.472 317.241C141.482 317.241 140.356 317.286 139.095 317.376Z" fill="url(#paint0_linear_162_1045)"/>
</g>
<g clip-path="url(#clip3_162_1045)">
<path d="M190.056 302.622L177.688 311.774L179.988 306.38L190.056 302.622Z" fill="#E17726"/>
<path d="M162.599 302.633L172.64 306.381L174.824 311.845L162.599 302.633Z" fill="#E27625"/>
<path d="M174.527 310.453L174.75 317.668L168.065 317.364L169.967 314.496L169.991 314.468L174.527 310.453Z" fill="#E27625"/>
<path d="M178.031 310.373L182.636 314.468L182.66 314.496L184.561 317.364L177.878 317.668L178.031 310.373Z" fill="#E27625"/>
<path d="M173.162 318.61L174.283 320.966L170.466 319.848L173.162 318.61Z" fill="#233447"/>
<path d="M179.465 318.61L182.173 319.848L178.344 320.966L179.465 318.61Z" fill="#233447"/>
<path d="M184.658 317.078L181.802 319.988L179.6 318.982L178.546 321.198L177.854 317.387L184.658 317.078Z" fill="#CC6228"/>
<path d="M167.968 317.077L174.772 317.387L174.081 321.198L173.027 318.982L170.836 319.988L167.968 317.077Z" fill="#CC6228"/>
<path d="M167.775 316.48L171.007 319.759L171.119 322.996L167.775 316.48Z" fill="#E27525"/>
<path d="M184.855 316.474L181.506 323.002L181.632 319.759L184.855 316.474Z" fill="#E27525"/>
<path d="M174.614 316.68L174.744 317.498L175.065 319.538L174.859 325.801L173.882 320.769L173.882 320.717L174.614 316.68Z" fill="#E27525"/>
<path d="M178.011 316.669L178.745 320.717L178.745 320.769L177.766 325.813L177.727 324.552L177.574 319.5L178.011 316.669Z" fill="#E27525"/>
<path d="M189.241 302.875L190.725 307.329L189.798 311.833L190.458 312.342L189.565 313.024L190.236 313.542L189.347 314.352L189.893 314.747L188.444 316.439L182.503 314.709L182.451 314.681L178.17 311.07L189.241 302.875Z" fill="#763E1A"/>
<path d="M163.386 302.875L174.457 311.07L170.175 314.681L170.124 314.709L164.182 316.439L162.734 314.747L163.279 314.352L162.39 313.542L163.06 313.024L162.154 312.341L162.839 311.831L161.901 307.329L163.386 302.875Z" fill="#763E1A"/>
<path d="M182.212 314.331L188.507 316.163L190.552 322.467L185.156 322.467L181.438 322.514L184.142 317.244L182.212 314.331Z" fill="#F5841F"/>
<path d="M170.414 314.331L168.483 317.244L171.187 322.514L167.471 322.467H162.085L164.119 316.164L170.414 314.331Z" fill="#F5841F"/>
<path d="M180.297 306.35L178.536 311.106L178.163 317.531L178.02 319.544L178.008 324.688H174.618L174.607 319.554L174.464 317.529L174.09 311.106L172.329 306.35H180.297Z" fill="#F5841F"/>
</g>
</g>
<defs>
<filter id="filter0_bd_162_1045" x="-15.0107" y="-15.1918" width="386.251" height="465.902" filterUnits="userSpaceOnUse" color-interpolation-filters="sRGB">
<feFlood flood-opacity="0" result="BackgroundImageFix"/>
<feGaussianBlur in="BackgroundImageFix" stdDeviation="20"/>
<feComposite in2="SourceAlpha" operator="in" result="effect1_backgroundBlur_162_1045"/>
<feColorMatrix in="SourceAlpha" type="matrix" values="0 0 0 0 0 0 0 0 0 0 0 0 0 0 0 0 0 0 127 0" result="hardAlpha"/>
<feOffset/>
<feGaussianBlur stdDeviation="12"/>
<feComposite in2="hardAlpha" operator="out"/>
<feColorMatrix type="matrix" values="0 0 0 0 0.0710667 0 0 0 0 0.0918401 0 0 0 0 0.136667 0 0 0 0.12 0"/>
<feBlend mode="normal" in2="effect1_backgroundBlur_162_1045" result="effect2_dropShadow_162_1045"/>
<feBlend mode="normal" in="SourceGraphic" in2="effect2_dropShadow_162_1045" result="shape"/>
</filter>
<linearGradient id="paint0_linear_162_1045" x1="135.134" y1="302.622" x2="141.717" y2="318.624" gradientUnits="userSpaceOnUse">
<stop stop-color="#938BEC"/>
<stop offset="0.505" stop-color="#F9C8FF"/>
<stop offset="1" stop-color="#FFBF7F"/>
</linearGradient>
<clipPath id="clip0_162_1045">
<rect width="27.0221" height="27.0221" fill="white" transform="translate(38.5 302.622)"/>
</clipPath>
<clipPath id="clip1_162_1045">
<rect width="28.8236" height="27.0221" fill="white" transform="translate(79.0332 302.622)"/>
</clipPath>
<clipPath id="clip2_162_1045">
<rect width="27.0221" height="27.0221" fill="white" transform="translate(121.368 302.622)"/>
</clipPath>
<clipPath id="clip3_162_1045">
<rect width="28.8236" height="27.0221" fill="white" transform="translate(161.901 302.622)"/>
</clipPath>
</defs>
</svg>
