<svg width="367" height="388" viewBox="0 0 367 388" fill="none" xmlns="http://www.w3.org/2000/svg">
<g filter="url(#filter0_bd_162_881)">
<rect x="41.3369" y="20.0117" width="306.251" height="385.902" rx="18.0147" transform="rotate(3.18 41.3369 20.0117)" fill="white" shape-rendering="crispEdges"/>
<rect x="41.8084" y="20.5387" width="305.251" height="384.902" rx="17.5147" transform="rotate(3.18 41.8084 20.5387)" stroke="white" shape-rendering="crispEdges"/>
<rect x="54.0771" y="34.2516" width="279.229" height="185.777" rx="13.5111" transform="rotate(3.18 54.0771 34.2516)" fill="#D9D9D9"/>
<path d="M49.3476 253.832C45.5164 253.619 42.8373 250.529 43.0592 246.536C43.281 242.543 46.2669 239.786 50.1161 240C52.9401 240.157 54.9366 241.891 55.5162 243.8L53.4477 244.659C52.969 243.207 51.7469 242.147 50.0022 242.05C47.3941 241.905 45.4854 243.784 45.3256 246.662C45.1647 249.558 46.8534 251.636 49.4616 251.781C51.2063 251.878 52.5383 250.96 53.1749 249.57L55.1355 250.653C54.348 252.486 52.1716 253.989 49.3476 253.832ZM56.6749 254.022L57.4194 240.622L59.5778 240.742L58.8333 254.142L56.6749 254.022ZM70.1365 249.556C70.1175 249.898 70.0625 250.237 69.9746 250.521L62.8517 250.125C62.8737 251.678 63.9519 252.731 65.4448 252.813C66.596 252.877 67.4004 252.363 67.8761 251.595L69.6088 252.558C68.9383 253.91 67.2995 254.829 65.3209 254.719C62.3891 254.556 60.4804 252.213 60.6383 249.371C60.8002 246.457 62.9876 244.431 65.7217 244.583C68.4557 244.735 70.2794 246.984 70.1365 249.556ZM62.9806 248.455L67.8551 248.725C67.8551 247.426 66.8628 246.451 65.6217 246.382C64.3626 246.312 63.3114 247.048 62.9806 248.455ZM82.4 245.51C84.4145 245.622 85.7725 247.159 85.6526 249.317L85.3029 255.613L83.1444 255.493L83.4642 249.737C83.5392 248.388 82.8287 247.537 81.6775 247.473C80.5443 247.41 79.7259 248.176 79.651 249.525L79.3312 255.281L77.1727 255.161L77.4925 249.405C77.5675 248.056 76.857 247.205 75.7058 247.141C74.5726 247.078 73.7722 247.845 73.6973 249.194L73.3775 254.95L71.219 254.83L71.7577 245.135L73.7902 245.248L73.7242 246.435C74.2788 245.546 75.2412 245.112 76.4103 245.177C77.7054 245.249 78.7336 245.902 79.2892 246.943C79.9198 245.986 81.0689 245.436 82.4 245.51ZM96.4319 251.017C96.4129 251.359 96.358 251.698 96.27 251.982L89.1472 251.586C89.1692 253.139 90.2474 254.191 91.7403 254.274C92.8915 254.338 93.6959 253.824 94.1715 253.056L95.9043 254.019C95.2338 255.371 93.595 256.29 91.6164 256.18C88.6845 256.017 86.7759 253.674 86.9338 250.832C87.0957 247.918 89.2831 245.892 92.0171 246.044C94.7511 246.196 96.5748 248.445 96.4319 251.017ZM89.2761 249.916L94.1506 250.186C94.1506 248.887 93.1583 247.912 91.9172 247.843C90.6581 247.773 89.6069 248.509 89.2761 249.916ZM102.85 246.646C105.008 246.766 106.418 248.342 106.3 250.464L105.95 256.76L103.792 256.64L104.112 250.884C104.185 249.571 103.404 248.68 102.181 248.612C100.94 248.543 100.066 249.342 99.9927 250.655L99.6729 256.411L97.5145 256.291L98.0531 246.596L100.086 246.709L100.021 247.878C100.61 247.009 101.645 246.579 102.85 246.646ZM112.225 257.217C110.049 257.096 108.894 255.805 109.013 253.664L109.263 249.168L107.5 249.07L107.608 247.127L107.896 247.143C108.831 247.195 109.399 246.703 109.451 245.768L109.537 244.221L111.696 244.341L111.529 247.345L113.831 247.473L113.723 249.415L111.421 249.287L111.171 253.784C111.125 254.612 111.424 255.404 112.791 255.48C112.971 255.49 113.206 255.485 113.441 255.462L113.346 257.189C113.001 257.224 112.567 257.236 112.225 257.217ZM123.055 257.927C120.411 257.78 118.339 256.113 117.775 253.917L119.767 253.143C120.303 254.851 121.637 255.845 123.166 255.93C124.677 256.014 125.689 255.331 125.744 254.341C125.795 253.424 125.265 252.907 124.221 252.525L121.64 251.569C119.465 250.781 118.46 249.39 118.556 247.663C118.682 245.379 120.64 243.918 123.374 244.07C125.91 244.211 127.755 245.757 128.333 247.683L126.323 248.474C125.916 247.026 124.81 246.152 123.281 246.067C121.878 245.989 120.903 246.657 120.846 247.682C120.8 248.51 121.342 249.153 122.403 249.537L124.896 250.451C127.07 251.258 128.138 252.508 128.038 254.306C127.909 256.627 125.897 258.085 123.055 257.927ZM134.075 258.539C131.233 258.381 129.104 256.116 129.266 253.184C129.429 250.252 131.778 248.253 134.638 248.412C137.48 248.57 139.61 250.818 139.447 253.749C139.284 256.681 136.899 258.696 134.075 258.539ZM134.186 256.542C135.823 256.633 137.099 255.423 137.198 253.642C137.297 251.862 136.164 250.5 134.527 250.409C132.872 250.317 131.613 251.546 131.514 253.327C131.415 255.107 132.531 256.45 134.186 256.542ZM151.889 249.371C153.903 249.483 155.261 251.02 155.141 253.178L154.792 259.473L152.633 259.354L152.953 253.598C153.028 252.249 152.318 251.397 151.166 251.333C150.033 251.27 149.215 252.037 149.14 253.386L148.82 259.142L146.662 259.022L146.981 253.266C147.056 251.917 146.346 251.065 145.195 251.002C144.061 250.939 143.261 251.706 143.186 253.055L142.866 258.811L140.708 258.691L141.247 248.996L143.279 249.109L143.213 250.296C143.768 249.407 144.73 248.973 145.899 249.038C147.194 249.11 148.222 249.762 148.778 250.804C149.409 249.846 150.558 249.297 151.889 249.371ZM161.164 249.886C163.521 250.017 165.06 251.528 164.948 253.542L164.589 260.018L162.556 259.905L162.616 258.826C161.849 259.649 160.835 260.026 159.666 259.961C157.508 259.841 156.209 258.542 156.301 256.887C156.381 255.448 157.567 254.558 159.551 254.235L162.773 253.728L162.79 253.422C162.84 252.523 162.136 251.889 161.056 251.829C160.013 251.771 159.154 252.3 158.743 253.198L156.924 252.158C157.564 250.714 159.24 249.779 161.164 249.886ZM160.013 258.266C161.452 258.346 162.571 257.362 162.647 255.995L162.682 255.365L159.896 255.824C159.077 255.959 158.583 256.4 158.55 256.994C158.509 257.731 159.078 258.214 160.013 258.266ZM166.318 260.114L167.063 246.714L169.221 246.833L168.477 260.234L166.318 260.114ZM171.089 249.373L171.224 246.945L173.383 247.065L173.248 249.493L171.089 249.373ZM170.48 260.345L171.018 250.65L173.177 250.77L172.638 260.465L170.48 260.345ZM179.116 250.883C181.472 251.014 183.012 252.525 182.9 254.54L182.541 261.015L180.508 260.902L180.568 259.823C179.801 260.646 178.787 261.023 177.618 260.958C175.46 260.838 174.161 259.539 174.253 257.884C174.333 256.445 175.519 255.555 177.503 255.232L180.725 254.726L180.742 254.42C180.792 253.521 180.087 252.886 179.008 252.826C177.965 252.768 177.106 253.298 176.695 254.195L174.876 253.156C175.516 251.712 177.191 250.776 179.116 250.883ZM177.965 259.263C179.404 259.343 180.523 258.359 180.599 256.992L180.634 256.362L177.848 256.821C177.029 256.956 176.535 257.398 176.502 257.991C176.461 258.729 177.03 259.211 177.965 259.263Z" fill="#1D2939"/>
<path d="M51.6465 269.527L53 269.603L52.3486 281.328L50.8534 281.245L51.3492 272.321L47.2231 277.538L47.0971 277.531L43.5778 271.826L43.0785 280.813L41.5834 280.73L42.2348 269.005L43.5883 269.08L47.2983 275.048L51.6465 269.527ZM60.3813 273.407L61.7348 273.482L61.2714 281.824L59.9494 281.75L60.0027 280.79C59.4746 281.487 58.5539 281.862 57.5466 281.806C55.7367 281.706 54.4951 280.184 54.5939 278.406L54.8885 273.102L56.2421 273.177L55.9614 278.229C55.8879 279.551 56.6591 280.447 57.9182 280.516C59.1458 280.585 60.0281 279.765 60.1006 278.459L60.3813 273.407ZM63.3432 281.939L63.9947 270.214L65.3482 270.289L64.6968 282.014L63.3432 281.939ZM70.2594 282.418C68.5754 282.324 67.6844 281.312 67.778 279.628L68.0281 275.126L66.407 275.036L66.4787 273.746L66.9036 273.769C67.6276 273.81 68.1269 273.348 68.168 272.608L68.2502 271.129L69.6037 271.204L69.4533 273.911L71.4678 274.023L71.3961 275.314L69.3816 275.202L69.1315 279.703C69.1018 280.238 69.142 281.219 70.5742 281.299C70.7473 281.308 70.9843 281.306 71.1592 281.284L71.098 282.385C70.8269 282.434 70.4955 282.431 70.2594 282.418ZM73.1267 272.568L73.229 270.727L74.5825 270.802L74.4802 272.643L73.1267 272.568ZM72.5775 282.452L73.041 274.11L74.3945 274.186L73.931 282.527L72.5775 282.452ZM76.4148 279.066L76.4865 277.775L82.3098 278.099L82.2381 279.389L76.4148 279.066ZM91.802 271.758L93.1555 271.834L92.5041 283.559L91.1821 283.485L91.2494 282.274C90.5857 283.137 89.4403 283.578 88.1812 283.508C85.8047 283.376 84.0656 281.432 84.2055 278.914C84.3454 276.396 86.3049 274.658 88.6499 274.788C89.909 274.858 90.9967 275.455 91.5458 276.37L91.802 271.758ZM88.3325 282.206C89.985 282.298 91.2844 281.076 91.3823 279.313C91.4794 277.566 90.3243 276.191 88.6718 276.1C87.0192 276.008 85.7348 277.247 85.6377 278.994C85.5398 280.757 86.6799 282.114 88.3325 282.206ZM94.9978 273.783L95.1001 271.942L96.4536 272.017L96.3513 273.858L94.9978 273.783ZM94.4487 283.667L94.9121 275.325L96.2656 275.401L95.8022 283.742L94.4487 283.667ZM100.657 284.201C99.0205 284.11 97.7308 283.17 97.2744 281.724L98.4548 281.221C98.8211 282.3 99.6876 282.9 100.726 282.958C101.702 283.012 102.391 282.545 102.43 281.853C102.463 281.255 101.978 280.896 101.219 280.633L99.8704 280.179C98.4915 279.708 97.8121 278.865 97.8751 277.732C97.9555 276.284 99.1744 275.373 100.906 275.469C102.448 275.555 103.631 276.426 104.046 277.759L102.883 278.247C102.586 277.331 101.828 276.767 100.837 276.712C99.9394 276.663 99.3169 277.07 99.2802 277.731C99.2487 278.298 99.6999 278.702 100.412 278.962L101.804 279.466C103.182 279.953 103.892 280.813 103.83 281.931C103.75 283.379 102.451 284.301 100.657 284.201ZM108.868 284.658C106.476 284.525 104.801 282.553 104.94 280.05C105.079 277.548 106.96 275.805 109.352 275.938C110.989 276.029 112.321 277.066 112.771 278.338L111.524 278.901C111.166 277.965 110.366 277.305 109.28 277.245C107.706 277.157 106.469 278.383 106.371 280.146C106.275 281.877 107.367 283.264 108.94 283.351C110.026 283.412 110.895 282.844 111.355 281.954L112.531 282.651C111.944 283.85 110.489 284.748 108.868 284.658ZM114.287 274.855L114.389 273.013L115.743 273.089L115.64 274.93L114.287 274.855ZM113.738 284.739L114.201 276.397L115.555 276.472L115.091 284.814L113.738 284.739ZM121.831 276.632C124.177 276.762 125.949 278.676 125.808 281.21C125.667 283.744 123.692 285.481 121.316 285.349C120.088 285.281 119.03 284.717 118.463 283.849L118.224 288.145L116.87 288.07L117.509 276.581L118.831 276.654L118.76 277.929C119.377 277.048 120.541 276.56 121.831 276.632ZM121.341 284.04C122.994 284.132 124.277 282.909 124.375 281.146C124.473 279.383 123.317 278.025 121.68 277.934C120.028 277.842 118.728 279.064 118.63 280.827C118.532 282.59 119.673 283.947 121.341 284.04ZM127.174 285.485L127.825 273.76L129.179 273.835L128.527 285.56L127.174 285.485ZM131.025 275.785L131.127 273.943L132.48 274.018L132.378 275.86L131.025 275.785ZM130.475 285.669L130.939 277.327L132.292 277.402L131.829 285.744L130.475 285.669ZM137.987 277.529C139.797 277.63 141.031 278.993 140.934 280.74L140.629 286.233L139.276 286.157L139.556 281.105C139.63 279.783 138.874 278.889 137.615 278.819C136.372 278.75 135.49 279.569 135.417 280.875L135.136 285.928L133.783 285.852L134.246 277.511L135.568 277.584L135.515 278.544C136.043 277.847 136.964 277.472 137.987 277.529ZM146.228 277.987C148.133 278.093 149.405 279.348 149.31 281.047L148.996 286.698L147.674 286.624L147.739 285.459C147.126 286.262 146.106 286.726 145.036 286.667C143.257 286.568 142.119 285.463 142.2 283.999C142.268 282.772 143.307 281.977 145.012 281.693L147.944 281.208L147.957 280.972C148.01 280.012 147.258 279.339 146.157 279.278C145.149 279.222 144.333 279.713 143.925 280.511L142.748 279.815C143.283 278.708 144.686 277.901 146.228 277.987ZM145.182 285.459C146.645 285.541 147.761 284.498 147.842 283.034L147.882 282.31L145.268 282.765C144.312 282.917 143.67 283.402 143.632 284.079C143.588 284.866 144.19 285.404 145.182 285.459ZM154.792 278.558L155.469 278.595L155.397 279.886L154.516 279.837C153.32 279.77 152.473 280.513 152.396 281.898L152.12 286.871L150.766 286.796L151.23 278.454L152.536 278.527L152.478 279.566C152.962 278.819 153.785 278.502 154.792 278.558ZM162.804 279.082L164.378 279.169L160 288.351C159.516 289.382 158.845 290.671 156.893 290.562C156.515 290.541 156.109 290.471 155.801 290.328L155.868 289.116C156.023 289.172 156.398 289.24 156.729 289.258C157.956 289.327 158.313 288.589 158.597 288.02L159.007 287.175L156.131 278.711L157.673 278.797L159.88 285.392L162.804 279.082ZM171.588 279.396C173.493 279.502 174.765 280.757 174.67 282.456L174.357 288.107L173.034 288.033L173.099 286.868C172.486 287.671 171.466 288.135 170.396 288.076C168.617 287.977 167.479 286.872 167.56 285.408C167.628 284.181 168.667 283.386 170.372 283.102L173.304 282.617L173.317 282.381C173.37 281.421 172.618 280.748 171.517 280.687C170.509 280.631 169.693 281.122 169.285 281.92L168.108 281.223C168.643 280.117 170.046 279.31 171.588 279.396ZM170.542 286.868C172.005 286.95 173.121 285.907 173.202 284.443L173.243 283.719L170.628 284.174C169.673 284.326 169.03 284.811 168.992 285.488C168.949 286.275 169.55 286.813 170.542 286.868ZM180.152 279.967L180.829 280.004L180.757 281.295L179.876 281.246C178.68 281.179 177.833 281.922 177.756 283.307L177.48 288.28L176.127 288.205L176.59 279.863L177.896 279.936L177.839 280.975C178.322 280.228 179.145 279.911 180.152 279.967ZM185.364 288.813C183.679 288.719 182.789 287.707 182.882 286.023L183.132 281.521L181.511 281.431L181.583 280.141L182.008 280.164C182.732 280.205 183.231 279.743 183.272 279.003L183.354 277.524L184.708 277.599L184.557 280.306L186.572 280.418L186.5 281.709L184.486 281.597L184.236 286.098C184.206 286.633 184.246 287.614 185.678 287.694C185.851 287.703 186.088 287.701 186.263 287.679L186.202 288.78C185.931 288.829 185.6 288.826 185.364 288.813ZM188.231 278.963L188.333 277.122L189.687 277.197L189.584 279.038L188.231 278.963ZM187.682 288.847L188.145 280.505L189.499 280.581L189.035 288.922L187.682 288.847ZM193.89 289.381C192.253 289.29 190.964 288.35 190.507 286.904L191.688 286.401C192.054 287.479 192.921 288.08 193.959 288.138C194.935 288.192 195.624 287.725 195.663 287.033C195.696 286.435 195.211 286.076 194.452 285.813L193.103 285.359C191.724 284.888 191.045 284.045 191.108 282.912C191.188 281.464 192.407 280.553 194.139 280.649C195.681 280.735 196.864 281.605 197.279 282.939L196.116 283.427C195.819 282.51 195.061 281.947 194.069 281.892C193.172 281.842 192.55 282.25 192.513 282.911C192.482 283.477 192.933 283.881 193.645 284.142L195.037 284.646C196.415 285.133 197.125 285.993 197.063 287.111C196.983 288.558 195.684 289.481 193.89 289.381ZM201.901 289.732C200.217 289.638 199.326 288.626 199.42 286.941L199.67 282.44L198.049 282.35L198.121 281.06L198.546 281.083C199.27 281.123 199.769 280.662 199.81 279.922L199.892 278.443L201.246 278.518L201.095 281.225L203.11 281.337L203.038 282.627L201.024 282.515L200.773 287.017C200.744 287.552 200.784 288.533 202.216 288.612C202.389 288.622 202.626 288.619 202.801 288.598L202.74 289.699C202.469 289.747 202.137 289.745 201.901 289.732Z" fill="#667085"/>
<g clip-path="url(#clip0_162_881)">
<path d="M38.6655 311.638C38.8014 309.191 39.5294 306.968 40.8495 304.966C42.1695 302.964 43.8973 301.419 46.0328 300.328C48.1682 299.238 50.4591 298.761 52.9053 298.897C55.3515 299.033 57.5754 299.761 59.577 301.081C61.5785 302.401 63.1244 304.129 64.2146 306.264C65.3048 308.4 65.782 310.69 65.646 313.137C65.5101 315.583 64.7822 317.807 63.4621 319.808C62.1421 321.81 60.4143 323.356 58.2788 324.446C56.1434 325.536 53.8525 326.013 51.4063 325.877C48.9601 325.742 46.7362 325.014 44.7346 323.694C42.7331 322.373 41.1872 320.646 40.097 318.51C39.0068 316.375 38.5296 314.084 38.6655 311.638ZM40.9049 311.762C40.749 314.568 41.5559 317.094 43.3257 319.339C44.283 317.696 45.7394 316.162 47.695 314.738C49.6506 313.313 51.5297 312.452 53.3324 312.155C53.0976 311.51 52.8683 310.929 52.6444 310.412C49.4957 311.229 46.1227 311.538 42.5253 311.338C41.8238 311.299 41.3026 311.261 40.9619 311.224C40.9579 311.296 40.9484 311.386 40.9334 311.493C40.9184 311.6 40.9089 311.69 40.9049 311.762ZM41.4101 309.003C41.8038 309.061 42.3874 309.111 43.1608 309.154C46.1646 309.321 49.0381 309.075 51.7811 308.415C50.549 305.911 49.1595 303.804 47.6126 302.094C46.1517 302.735 44.8776 303.665 43.7904 304.886C42.7031 306.106 41.9097 307.479 41.4101 309.003ZM44.7826 320.882C46.7272 322.577 48.9766 323.496 51.5307 323.638C52.8618 323.712 54.1978 323.534 55.5388 323.103C55.35 320.007 54.8139 316.991 53.9305 314.056C52.2557 314.323 50.537 315.139 48.7742 316.502C47.0115 317.866 45.681 319.326 44.7826 320.882ZM50.0079 301.361C51.4998 303.086 52.8523 305.209 54.0654 307.73C56.5686 306.841 58.4847 305.639 59.8138 304.125C57.8232 302.283 55.4789 301.286 52.7809 301.136C51.8635 301.085 50.9392 301.16 50.0079 301.361ZM54.9303 309.7C55.1681 310.29 55.4334 311.036 55.7262 311.936C57.0642 311.884 58.5157 311.902 60.0806 311.989C61.1958 312.05 62.3005 312.139 63.3947 312.254C63.3867 309.8 62.6262 307.574 61.1133 305.578C59.8473 307.257 57.7862 308.631 54.9303 309.7ZM56.2958 313.862C57.0652 316.575 57.5339 319.344 57.7018 322.168C59.1737 321.329 60.3993 320.216 61.3786 318.827C62.3579 317.438 62.984 315.912 63.2568 314.249C61.9487 314.086 60.7551 313.975 59.6759 313.915C58.6866 313.86 57.5599 313.842 56.2958 313.862Z" fill="#1D2939"/>
</g>
<g clip-path="url(#clip1_162_881)">
<path d="M107.997 301.958L95.1408 310.409L97.7363 305.152L107.997 301.958Z" fill="#E17726"/>
<path d="M80.5811 300.445L90.3987 304.745L92.2762 310.321L80.5811 300.445Z" fill="#E27625"/>
<path d="M101.949 321.114L107.402 321.521L105.134 327.895L98.5759 325.692L101.949 321.114Z" fill="#E27625"/>
<path d="M84.4429 320.142L87.2769 325.064L80.5262 326.528L78.9903 319.943L84.4429 320.142Z" fill="#E27625"/>
<path d="M92.0568 308.915L91.8796 316.132L85.2221 315.457L87.2797 312.699L87.3053 312.672L92.0568 308.915Z" fill="#E27625"/>
<path d="M95.5609 309.029L99.9316 313.374L99.9538 313.403L101.693 316.372L95.0035 316.305L95.5609 309.029Z" fill="#E27625"/>
<path d="M87.7355 320.345L91.2222 323.388L86.8752 325.196L87.7355 320.345Z" fill="#E27625"/>
<path d="M98.6545 320.952L98.96 325.868L94.852 323.589L98.6545 320.952Z" fill="#E27625"/>
<path d="M94.9609 323.327L99.1296 325.639L95.0395 327.312L95.1504 326.062L94.9609 323.327Z" fill="#D5BFB2"/>
<path d="M91.1412 323.115L90.6644 325.792L90.6206 327.065L86.7315 324.95L91.1412 323.115Z" fill="#D5BFB2"/>
<path d="M90.2417 316.984L91.2305 319.399L87.4811 318.071L90.2417 316.984Z" fill="#233447"/>
<path d="M96.5352 317.334L99.1711 318.72L95.2853 319.624L96.5352 317.334Z" fill="#233447"/>
<path d="M88.0275 320.338L87.1301 325.367L84.1032 320.231L88.0275 320.338Z" fill="#CC6228"/>
<path d="M98.3643 320.912L102.276 321.24L98.6867 326.009L98.3643 320.912Z" fill="#CC6228"/>
<path d="M101.805 316.091L98.7924 318.839L96.6497 317.712L95.4742 319.867L94.9955 316.023L101.805 316.091Z" fill="#CC6228"/>
<path d="M85.1406 315.166L91.9174 315.852L91.0159 319.619L90.086 317.348L87.8433 318.231L85.1406 315.166Z" fill="#CC6228"/>
<path d="M84.9814 314.559L88.0258 318.012L87.958 321.25L84.9814 314.559Z" fill="#E27525"/>
<path d="M102.035 315.5L98.3293 321.832L98.6351 318.601L102.035 315.5Z" fill="#E27525"/>
<path d="M91.7995 315.137L91.8839 315.962L92.0917 318.016L91.538 324.257L90.8418 319.18L90.8444 319.128L91.7995 315.137Z" fill="#E27525"/>
<path d="M95.191 315.314L95.6995 319.398L95.6963 319.45L94.4389 324.431L94.4701 323.169L94.5978 318.118L95.191 315.314Z" fill="#E27525"/>
<path d="M98.9291 318.487L98.6639 321.289L95.1132 323.751L94.4522 323.227L95.4441 319.297L98.9291 318.487Z" fill="#F5841F"/>
<path d="M87.7461 317.865L91.108 319.057L91.6585 323.072L90.9435 323.52L87.6872 320.679L87.7461 317.865Z" fill="#F5841F"/>
<path d="M86.1162 324.294L90.3558 326.599L90.3863 325.717L90.7684 325.417L95.0778 325.657L95.4376 325.997L95.3609 326.875L99.8017 325.06L97.5998 326.682L94.9568 328.289L90.5873 328.047L88.1407 326.15L86.1162 324.294Z" fill="#C0AC9D"/>
<path d="M94.6633 323.035L95.2547 323.504L95.4556 326.402L94.958 325.933L90.8575 325.705L90.3203 326.126L90.8296 323.258L91.4697 322.857L94.6633 323.035Z" fill="#161616"/>
<path d="M107.169 302.165L108.404 306.695L107.229 311.14L107.859 311.685L106.93 312.316L107.571 312.871L106.639 313.63L107.162 314.055L105.622 315.664L99.7852 313.607L99.7353 313.577L95.6607 309.733L107.169 302.165Z" fill="#763E1A"/>
<path d="M81.3544 300.731L91.9535 309.527L87.4782 312.895L87.4252 312.92L81.3969 314.318L80.0444 312.548L80.6109 312.184L79.7685 311.326L80.4664 310.846L79.599 310.113L80.3113 309.642L79.625 305.096L81.3544 300.731Z" fill="#763E1A"/>
<path d="M99.516 313.213L105.7 315.392L107.392 321.8L102.005 321.5L98.2902 321.341L101.282 316.229L99.516 313.213Z" fill="#F5841F"/>
<path d="M87.7364 312.559L85.6467 315.36L88.0543 320.772L84.3466 320.519L78.9686 320.22L81.3489 314.04L87.7364 312.559Z" fill="#F5841F"/>
<path d="M98.0466 305.139L96.0246 309.789L95.2951 316.183L95.0406 318.186L94.744 323.322L91.3589 323.134L91.6327 318.006L91.6018 315.976L91.5849 309.543L90.0908 304.697L98.0466 305.139Z" fill="#F5841F"/>
</g>
<g clip-path="url(#clip2_162_881)">
<path d="M121.406 316.235C121.542 313.788 122.27 311.565 123.59 309.563C124.91 307.561 126.638 306.016 128.773 304.925C130.908 303.835 133.199 303.358 135.646 303.494C138.092 303.63 140.316 304.358 142.317 305.678C144.319 306.998 145.865 308.726 146.955 310.861C148.045 312.997 148.522 315.287 148.386 317.734C148.25 320.18 147.522 322.404 146.202 324.405C144.882 326.407 143.155 327.953 141.019 329.043C138.884 330.133 136.593 330.61 134.147 330.474C131.7 330.338 129.476 329.611 127.475 328.29C125.473 326.97 123.927 325.243 122.837 323.107C121.747 320.972 121.27 318.681 121.406 316.235ZM123.645 316.359C123.489 319.165 124.296 321.691 126.066 323.936C127.023 322.293 128.48 320.759 130.435 319.334C132.391 317.909 134.27 317.049 136.073 316.752C135.838 316.107 135.609 315.526 135.385 315.009C132.236 315.826 128.863 316.135 125.265 315.935C124.564 315.896 124.043 315.858 123.702 315.821C123.698 315.893 123.689 315.983 123.674 316.09C123.659 316.197 123.649 316.287 123.645 316.359ZM124.15 313.6C124.544 313.658 125.128 313.708 125.901 313.751C128.905 313.918 131.778 313.672 134.521 313.012C133.289 310.508 131.9 308.401 130.353 306.691C128.892 307.332 127.618 308.262 126.531 309.483C125.443 310.703 124.65 312.076 124.15 313.6ZM127.523 325.478C129.467 327.174 131.717 328.093 134.271 328.235C135.602 328.309 136.938 328.131 138.279 327.7C138.09 324.604 137.554 321.588 136.671 318.652C134.996 318.92 133.277 319.736 131.514 321.099C129.752 322.463 128.421 323.923 127.523 325.478ZM132.748 305.958C134.24 307.683 135.593 309.806 136.806 312.327C139.309 311.438 141.225 310.236 142.554 308.722C140.563 306.879 138.219 305.883 135.521 305.733C134.604 305.682 133.679 305.757 132.748 305.958ZM137.671 314.297C137.908 314.887 138.174 315.633 138.466 316.533C139.804 316.481 141.256 316.499 142.821 316.585C143.936 316.647 145.041 316.736 146.135 316.851C146.127 314.397 145.366 312.171 143.854 310.175C142.587 311.854 140.526 313.228 137.671 314.297ZM139.036 318.459C139.805 321.172 140.274 323.941 140.442 326.765C141.914 325.926 143.14 324.813 144.119 323.424C145.098 322.035 145.724 320.509 145.997 318.846C144.689 318.683 143.495 318.572 142.416 318.512C141.427 318.457 140.3 318.439 139.036 318.459Z" fill="url(#paint0_linear_162_881)"/>
</g>
<g clip-path="url(#clip3_162_881)">
<path d="M190.738 306.555L177.881 315.006L180.477 309.749L190.738 306.555Z" fill="#E17726"/>
<path d="M163.321 305.042L173.139 309.342L175.016 314.918L163.321 305.042Z" fill="#E27625"/>
<path d="M184.69 325.711L190.142 326.118L187.874 332.492L181.316 330.289L184.69 325.711Z" fill="#E27625"/>
<path d="M167.183 324.739L170.017 329.661L163.266 331.125L161.731 324.54L167.183 324.739Z" fill="#E27625"/>
<path d="M174.797 313.512L174.62 320.729L167.962 320.054L170.02 317.296L170.045 317.269L174.797 313.512Z" fill="#E27625"/>
<path d="M178.301 313.626L182.672 317.971L182.694 318L184.433 320.969L177.744 320.902L178.301 313.626Z" fill="#E27625"/>
<path d="M170.476 324.942L173.962 327.984L169.615 329.793L170.476 324.942Z" fill="#E27625"/>
<path d="M181.395 325.549L181.7 330.465L177.592 328.186L181.395 325.549Z" fill="#E27625"/>
<path d="M177.701 327.924L181.87 330.236L177.78 331.908L177.891 330.659L177.701 327.924Z" fill="#D5BFB2"/>
<path d="M173.881 327.712L173.405 330.389L173.361 331.662L169.472 329.547L173.881 327.712Z" fill="#D5BFB2"/>
<path d="M172.982 321.581L173.971 323.996L170.221 322.667L172.982 321.581Z" fill="#233447"/>
<path d="M179.275 321.931L181.911 323.317L178.026 324.221L179.275 321.931Z" fill="#233447"/>
<path d="M170.768 324.935L169.87 329.964L166.843 324.828L170.768 324.935Z" fill="#CC6228"/>
<path d="M181.104 325.509L185.017 325.837L181.427 330.606L181.104 325.509Z" fill="#CC6228"/>
<path d="M184.546 320.688L181.533 323.436L179.39 322.309L178.214 324.464L177.736 320.62L184.546 320.688Z" fill="#CC6228"/>
<path d="M167.881 319.762L174.658 320.449L173.756 324.216L172.826 321.945L170.584 322.828L167.881 319.762Z" fill="#CC6228"/>
<path d="M167.722 319.155L170.766 322.608L170.698 325.847L167.722 319.155Z" fill="#E27525"/>
<path d="M184.776 320.097L181.07 326.429L181.375 323.198L184.776 320.097Z" fill="#E27525"/>
<path d="M174.54 319.734L174.624 320.559L174.832 322.612L174.278 328.854L173.582 323.777L173.585 323.725L174.54 319.734Z" fill="#E27525"/>
<path d="M177.931 319.911L178.44 323.995L178.437 324.047L177.179 329.028L177.21 327.766L177.338 322.715L177.931 319.911Z" fill="#E27525"/>
<path d="M181.669 323.084L181.404 325.886L177.853 328.348L177.192 327.824L178.184 323.894L181.669 323.084Z" fill="#F5841F"/>
<path d="M170.486 322.462L173.848 323.654L174.399 327.669L173.684 328.117L170.427 325.276L170.486 322.462Z" fill="#F5841F"/>
<path d="M168.856 328.891L173.096 331.196L173.127 330.314L173.509 330.014L177.818 330.254L178.178 330.594L178.101 331.472L182.542 329.657L180.34 331.279L177.697 332.886L173.328 332.644L170.881 330.747L168.856 328.891Z" fill="#C0AC9D"/>
<path d="M177.403 327.632L177.995 328.101L178.196 330.999L177.698 330.529L173.598 330.302L173.061 330.723L173.57 327.855L174.21 327.454L177.403 327.632Z" fill="#161616"/>
<path d="M189.909 306.762L191.144 311.292L189.969 315.737L190.6 316.282L189.67 316.913L190.312 317.468L189.379 318.227L189.902 318.652L188.362 320.261L182.525 318.204L182.476 318.173L178.401 314.33L189.909 306.762Z" fill="#763E1A"/>
<path d="M164.095 305.328L174.694 314.124L170.218 317.492L170.165 317.517L164.137 318.915L162.785 317.145L163.351 316.781L162.509 315.923L163.207 315.443L162.339 314.71L163.052 314.239L162.365 309.693L164.095 305.328Z" fill="#763E1A"/>
<path d="M182.256 317.81L188.44 319.989L190.133 326.397L184.745 326.097L181.03 325.938L184.022 320.826L182.256 317.81Z" fill="#F5841F"/>
<path d="M170.477 317.156L168.387 319.957L170.795 325.369L167.087 325.116L161.709 324.817L164.089 318.636L170.477 317.156Z" fill="#F5841F"/>
<path d="M180.787 309.736L178.765 314.386L178.035 320.78L177.781 322.783L177.484 327.919L174.099 327.731L174.373 322.603L174.342 320.573L174.325 314.14L172.831 309.294L180.787 309.736Z" fill="#F5841F"/>
</g>
<rect x="37.1988" y="348.205" width="133.985" height="43.9109" rx="12.9481" transform="rotate(3.18 37.1988 348.205)" stroke="url(#paint1_linear_162_881)" stroke-width="1.12592"/>
<path d="M77.064 379.109C73.7117 378.922 71.3675 376.219 71.5616 372.725C71.7558 369.231 74.3684 366.819 77.7364 367.006C80.2074 367.143 81.9544 368.661 82.4615 370.331L80.6516 371.083C80.2328 369.812 79.1634 368.885 77.6368 368.8C75.3547 368.673 73.6846 370.317 73.5447 372.835C73.4039 375.369 74.8816 377.188 77.1637 377.314C78.6904 377.399 79.8559 376.596 80.4129 375.379L82.1284 376.327C81.4394 377.931 79.535 379.246 77.064 379.109ZM87.293 379.677C84.8063 379.539 82.943 377.557 83.0856 374.991C83.2281 372.426 85.2829 370.677 87.7853 370.816C90.272 370.954 92.1362 372.921 91.9936 375.486C91.8511 378.052 89.764 379.814 87.293 379.677ZM87.3901 377.93C88.8223 378.01 89.9389 376.951 90.0254 375.393C90.112 373.834 89.1205 372.643 87.6883 372.563C86.2403 372.483 85.1386 373.558 85.052 375.116C84.9655 376.674 85.9421 377.85 87.3901 377.93ZM97.7651 371.371C99.6537 371.475 100.887 372.854 100.784 374.712L100.478 380.22L98.5896 380.115L98.8694 375.079C98.9332 373.93 98.2504 373.15 97.1801 373.09C96.0942 373.03 95.3291 373.73 95.2653 374.879L94.9854 379.915L93.0968 379.81L93.5681 371.327L95.3466 371.426L95.2897 372.449C95.8056 371.688 96.7106 371.312 97.7651 371.371ZM106.818 371.874C108.707 371.978 109.94 373.357 109.837 375.214L109.531 380.723L107.642 380.618L107.922 375.582C107.986 374.433 107.303 373.653 106.233 373.593C105.147 373.533 104.382 374.233 104.318 375.381L104.038 380.418L102.15 380.313L102.621 371.83L104.399 371.929L104.343 372.952C104.858 372.191 105.763 371.815 106.818 371.874ZM119.277 376.702C119.261 377.001 119.212 377.298 119.136 377.547L112.903 377.2C112.922 378.559 113.866 379.48 115.172 379.552C116.179 379.608 116.883 379.158 117.299 378.487L118.816 379.329C118.229 380.512 116.795 381.316 115.064 381.22C112.498 381.077 110.828 379.027 110.966 376.54C111.108 373.991 113.022 372.218 115.414 372.351C117.807 372.484 119.402 374.451 119.277 376.702ZM113.016 375.738L117.281 375.975C117.281 374.839 116.413 373.985 115.327 373.925C114.225 373.864 113.305 374.507 113.016 375.738ZM124.101 381.722C121.615 381.584 119.848 379.575 119.988 377.041C120.129 374.508 122.091 372.722 124.594 372.861C126.388 372.961 127.811 374.05 128.251 375.511L126.569 376.239C126.289 375.308 125.52 374.665 124.497 374.608C123.112 374.531 122.042 375.593 121.955 377.166C121.869 378.709 122.813 379.898 124.198 379.975C125.237 380.033 126.056 379.494 126.439 378.584L128.029 379.509C127.448 380.866 125.911 381.823 124.101 381.722ZM132.927 382.118C131.023 382.012 130.012 380.882 130.116 379.009L130.335 375.075L128.793 374.989L128.887 373.289L129.139 373.303C129.957 373.349 130.455 372.918 130.5 372.1L130.575 370.746L132.464 370.851L132.318 373.48L134.333 373.592L134.238 375.291L132.224 375.179L132.005 379.114C131.965 379.838 132.226 380.531 133.422 380.598C133.58 380.607 133.785 380.602 133.991 380.582L133.908 382.093C133.606 382.124 133.226 382.134 132.927 382.118Z" fill="#187BEB"/>
<rect x="181.095" y="356.2" width="133.985" height="43.9109" rx="12.9481" transform="rotate(3.18 181.095 356.2)" stroke="url(#paint2_linear_162_881)" stroke-width="1.12592"/>
<path d="M232 387.527L232.651 375.802L234.635 375.912L234.342 381.169L239.568 381.459L239.86 376.202L241.859 376.313L241.207 388.039L239.208 387.928L239.471 383.206L234.245 382.916L233.983 387.637L232 387.527ZM243.641 378.544L243.759 376.419L245.647 376.524L245.529 378.649L243.641 378.544ZM243.107 388.144L243.579 379.661L245.467 379.766L244.996 388.249L243.107 388.144ZM251.304 379.996L252.091 380.039L251.997 381.739L250.974 381.682C249.809 381.618 248.98 382.329 248.907 383.651L248.64 388.452L246.751 388.347L247.223 379.864L249.001 379.962L248.936 381.143C249.428 380.239 250.265 379.938 251.304 379.996ZM260.866 384.568C260.85 384.867 260.802 385.165 260.725 385.413L254.492 385.067C254.512 386.426 255.455 387.346 256.761 387.419C257.769 387.475 258.472 387.024 258.889 386.353L260.405 387.195C259.818 388.378 258.384 389.182 256.653 389.086C254.087 388.944 252.417 386.893 252.556 384.407C252.697 381.857 254.611 380.085 257.003 380.218C259.396 380.35 260.991 382.318 260.866 384.568ZM254.605 383.605L258.87 383.842C258.87 382.705 258.002 381.852 256.916 381.791C255.814 381.73 254.895 382.374 254.605 383.605Z" fill="#187BEB"/>
</g>
<defs>
<filter id="filter0_bd_162_881" x="-20.0703" y="-19.9883" width="407.187" height="482.297" filterUnits="userSpaceOnUse" color-interpolation-filters="sRGB">
<feFlood flood-opacity="0" result="BackgroundImageFix"/>
<feGaussianBlur in="BackgroundImageFix" stdDeviation="20"/>
<feComposite in2="SourceAlpha" operator="in" result="effect1_backgroundBlur_162_881"/>
<feColorMatrix in="SourceAlpha" type="matrix" values="0 0 0 0 0 0 0 0 0 0 0 0 0 0 0 0 0 0 127 0" result="hardAlpha"/>
<feOffset/>
<feGaussianBlur stdDeviation="10"/>
<feComposite in2="hardAlpha" operator="out"/>
<feColorMatrix type="matrix" values="0 0 0 0 0.0705882 0 0 0 0 0.0901961 0 0 0 0 0.137255 0 0 0 0.12 0"/>
<feBlend mode="normal" in2="effect1_backgroundBlur_162_881" result="effect2_dropShadow_162_881"/>
<feBlend mode="normal" in="SourceGraphic" in2="effect2_dropShadow_162_881" result="shape"/>
</filter>
<linearGradient id="paint0_linear_162_881" x1="135.9" y1="303.508" x2="141.585" y2="319.85" gradientUnits="userSpaceOnUse">
<stop stop-color="#938BEC"/>
<stop offset="0.505" stop-color="#F9C8FF"/>
<stop offset="1" stop-color="#FFBF7F"/>
</linearGradient>
<linearGradient id="paint1_linear_162_881" x1="36.3368" y1="382.328" x2="181.471" y2="364.779" gradientUnits="userSpaceOnUse">
<stop stop-color="#157BEB"/>
<stop offset="1" stop-color="#C790F3"/>
</linearGradient>
<linearGradient id="paint2_linear_162_881" x1="180.233" y1="390.322" x2="325.367" y2="372.773" gradientUnits="userSpaceOnUse">
<stop stop-color="#157BEB"/>
<stop offset="1" stop-color="#C790F3"/>
</linearGradient>
<clipPath id="clip0_162_881">
<rect width="27.0221" height="27.0221" fill="white" transform="translate(39.415 298.147) rotate(3.18)"/>
</clipPath>
<clipPath id="clip1_162_881">
<rect width="28.8236" height="27.0221" fill="white" transform="translate(79.8857 300.396) rotate(3.18)"/>
</clipPath>
<clipPath id="clip2_162_881">
<rect width="27.0221" height="27.0221" fill="white" transform="translate(122.155 302.744) rotate(3.18)"/>
</clipPath>
<clipPath id="clip3_162_881">
<rect width="28.8236" height="27.0221" fill="white" transform="translate(162.626 304.993) rotate(3.18)"/>
</clipPath>
</defs>
</svg>
