<svg width="456" height="388" viewBox="0 0 456 388" fill="none" xmlns="http://www.w3.org/2000/svg">
<g filter="url(#filter0_b_162_798)">
<rect y="69.0127" width="306.251" height="385.902" rx="18.0147" transform="rotate(-3.185 0 69.0127)" fill="white"/>
<rect x="0.527008" y="69.4841" width="305.251" height="384.902" rx="17.5147" transform="rotate(-3.185 0.527008 69.4841)" stroke="white"/>
<rect x="14.2412" y="81.7522" width="279.229" height="185.777" rx="13.5111" transform="rotate(-3.185 14.2412 81.7522)" fill="#D9D9D9"/>
<path d="M33.8833 300.503C30.0521 300.716 27.047 297.943 26.8248 293.949C26.6026 289.956 29.2644 286.885 33.1136 286.671C35.9375 286.514 38.1141 288.017 38.9017 289.849L36.9412 290.933C36.3045 289.543 34.9724 288.625 33.2277 288.722C30.6196 288.867 28.931 290.945 29.0911 293.823C29.2523 296.719 31.1611 298.598 33.7692 298.453C35.5139 298.355 36.7359 297.295 37.2144 295.843L39.283 296.702C38.7036 298.611 36.7072 300.346 33.8833 300.503ZM41.1865 299.88L40.4408 286.48L42.5992 286.36L43.3449 299.76L41.1865 299.88ZM54.0699 293.949C54.089 294.291 54.072 294.634 54.0161 294.926L46.8933 295.323C47.0873 296.863 48.2755 297.79 49.7684 297.707C50.9196 297.643 51.662 297.042 52.0496 296.226L53.8784 296.991C53.3619 298.409 51.8351 299.504 49.8565 299.614C46.9246 299.777 44.768 297.66 44.6099 294.818C44.4477 291.904 46.3971 289.649 49.1311 289.497C51.8651 289.344 53.9268 291.377 54.0699 293.949ZM46.8361 293.648L51.7106 293.377C51.5666 292.085 50.4723 291.226 49.2312 291.295C47.9721 291.365 47.0089 292.213 46.8361 293.648ZM65.8093 288.569C67.8239 288.456 69.3439 289.833 69.464 291.992L69.8143 298.287L67.6559 298.407L67.3356 292.651C67.2605 291.302 66.46 290.535 65.3089 290.599C64.1757 290.662 63.4473 291.515 63.5224 292.864L63.8427 298.619L61.6842 298.74L61.3639 292.984C61.2889 291.635 60.4884 290.867 59.3372 290.931C58.204 290.994 57.4936 291.846 57.5687 293.195L57.889 298.951L55.7306 299.071L55.1911 289.376L57.2236 289.263L57.2897 290.45C57.7422 289.505 58.6505 288.967 59.8197 288.902C61.1148 288.83 62.209 289.364 62.8766 290.337C63.3971 289.316 64.4783 288.643 65.8093 288.569ZM80.3653 292.486C80.3843 292.827 80.3673 293.171 80.3114 293.463L73.1886 293.859C73.3826 295.4 74.5708 296.326 76.0637 296.243C77.2149 296.179 77.9573 295.579 78.3449 294.763L80.1737 295.528C79.6572 296.946 78.1304 298.041 76.1518 298.151C73.22 298.314 71.0633 296.197 70.9052 293.355C70.743 290.441 72.6924 288.185 75.4264 288.033C78.1604 287.881 80.2221 289.914 80.3653 292.486ZM73.1315 292.185L78.0059 291.913C77.8619 290.622 76.7676 289.763 75.5265 289.832C74.2674 289.902 73.3042 290.75 73.1315 292.185ZM86.2589 287.431C88.4173 287.31 89.9933 288.72 90.1114 290.843L90.4618 297.138L88.3033 297.258L87.983 291.502C87.91 290.189 87.0355 289.39 85.8124 289.458C84.5713 289.527 83.791 290.419 83.864 291.732L84.1843 297.487L82.0259 297.608L81.4864 287.913L83.5189 287.8L83.584 288.969C84.0735 288.039 85.0538 287.498 86.2589 287.431ZM96.7487 296.897C94.5723 297.018 93.2811 295.863 93.162 293.722L92.9118 289.225L91.1491 289.324L91.041 287.381L91.3288 287.365C92.2641 287.313 92.7747 286.761 92.7226 285.826L92.6365 284.279L94.795 284.159L94.9621 287.163L97.2644 287.035L97.3725 288.977L95.0702 289.105L95.3204 293.602C95.3665 294.43 95.7513 295.184 97.1183 295.108C97.2981 295.098 97.531 295.067 97.7628 295.018L97.8589 296.745C97.5201 296.818 97.0905 296.878 96.7487 296.897ZM107.591 296.402C104.946 296.549 102.702 295.122 101.898 293.002L103.792 292.012C104.515 293.65 105.951 294.49 107.479 294.405C108.99 294.321 109.921 293.529 109.866 292.54C109.815 291.623 109.23 291.168 108.151 290.903L105.48 290.24C103.23 289.698 102.077 288.427 101.981 286.7C101.854 284.416 103.637 282.747 106.371 282.595C108.907 282.453 110.912 283.785 111.701 285.636L109.79 286.644C109.225 285.25 108.029 284.505 106.5 284.59C105.097 284.668 104.202 285.44 104.259 286.465C104.305 287.292 104.915 287.872 106.012 288.136L108.591 288.768C110.842 289.328 112.041 290.452 112.141 292.251C112.27 294.571 110.433 296.243 107.591 296.402ZM118.61 295.788C115.768 295.946 113.401 293.931 113.238 290.999C113.075 288.067 115.187 285.821 118.047 285.662C120.889 285.504 123.255 287.501 123.418 290.433C123.581 293.365 121.434 295.631 118.61 295.788ZM118.499 293.792C120.136 293.701 121.27 292.357 121.171 290.576C121.072 288.795 119.795 287.567 118.158 287.658C116.503 287.75 115.388 289.111 115.487 290.892C115.586 292.673 116.844 293.884 118.499 293.792ZM135.298 284.702C137.312 284.59 138.832 285.967 138.953 288.125L139.303 294.42L137.144 294.54L136.824 288.785C136.749 287.436 135.949 286.668 134.797 286.732C133.664 286.795 132.936 287.648 133.011 288.997L133.331 294.753L131.173 294.873L130.852 289.117C130.777 287.768 129.977 287.001 128.826 287.065C127.693 287.128 126.982 287.979 127.057 289.328L127.378 295.084L125.219 295.204L124.68 285.509L126.712 285.396L126.778 286.583C127.231 285.638 128.139 285.1 129.308 285.035C130.603 284.963 131.698 285.498 132.365 286.471C132.886 285.449 133.967 284.776 135.298 284.702ZM144.573 284.186C146.929 284.054 148.627 285.385 148.739 287.4L149.1 293.875L147.067 293.988L147.007 292.909C146.336 293.813 145.371 294.299 144.201 294.364C142.043 294.484 140.608 293.337 140.516 291.683C140.436 290.244 141.516 289.227 143.452 288.686L146.598 287.826L146.581 287.52C146.531 286.621 145.761 286.068 144.681 286.128C143.638 286.186 142.843 286.808 142.534 287.745L140.611 286.914C141.087 285.408 142.649 284.293 144.573 284.186ZM144.358 292.642C145.797 292.561 146.8 291.459 146.724 290.092L146.689 289.463L143.971 290.227C143.172 290.452 142.73 290.946 142.763 291.539C142.804 292.277 143.423 292.694 144.358 292.642ZM150.829 293.779L150.084 280.379L152.242 280.259L152.988 293.659L150.829 293.779ZM154.38 282.575L154.245 280.147L156.403 280.027L156.539 282.455L154.38 282.575ZM154.991 293.547L154.451 283.852L156.61 283.732L157.149 293.427L154.991 293.547ZM162.525 283.187C164.881 283.056 166.579 284.386 166.691 286.401L167.052 292.876L165.019 292.989L164.959 291.91C164.288 292.814 163.322 293.3 162.153 293.365C159.995 293.485 158.56 292.338 158.468 290.684C158.388 289.245 159.468 288.228 161.404 287.688L164.55 286.827L164.533 286.521C164.483 285.622 163.712 285.069 162.633 285.129C161.59 285.187 160.794 285.809 160.486 286.746L158.563 285.915C159.039 284.409 160.6 283.294 162.525 283.187ZM162.31 291.643C163.749 291.563 164.752 290.46 164.676 289.093L164.641 288.464L161.923 289.228C161.124 289.453 160.682 289.947 160.715 290.541C160.756 291.278 161.375 291.695 162.31 291.643Z" fill="#1D2939"/>
<path d="M37.9085 315.847L39.262 315.772L39.9145 327.497L38.4193 327.58L37.9228 318.657L34.4005 324.299L34.2745 324.306L30.1444 319.026L30.6445 328.013L29.1493 328.096L28.4969 316.371L29.8504 316.296L34.1991 321.816L37.9085 315.847ZM47.0196 318.735L48.3731 318.659L48.8373 327.001L47.5152 327.074L47.4618 326.114C47.0142 326.865 46.1408 327.34 45.1335 327.396C43.3236 327.497 41.9209 326.123 41.822 324.344L41.5268 319.04L42.8804 318.965L43.1615 324.017C43.2351 325.339 44.1008 326.143 45.3598 326.073C46.5874 326.005 47.3734 325.093 47.3007 323.787L47.0196 318.735ZM50.9091 326.885L50.2567 315.16L51.6102 315.085L52.2626 326.81L50.9091 326.885ZM57.8358 326.595C56.1517 326.688 55.154 325.781 55.0603 324.097L54.8098 319.596L53.1887 319.686L53.1169 318.395L53.5419 318.372C54.2658 318.331 54.7109 317.817 54.6697 317.077L54.5874 315.598L55.9409 315.523L56.0915 318.23L58.1061 318.118L58.1779 319.408L56.1633 319.52L56.4138 324.022C56.4436 324.557 56.5923 325.527 58.0245 325.447C58.1977 325.438 58.4329 325.409 58.6042 325.368L58.6655 326.47C58.4015 326.547 58.0718 326.582 57.8358 326.595ZM59.5933 316.488L59.4909 314.646L60.8444 314.571L60.9469 316.412L59.5933 316.488ZM60.1433 326.372L59.6792 318.03L61.0327 317.955L61.4969 326.296L60.1433 326.372ZM63.5816 322.581L63.5098 321.29L69.3331 320.966L69.4049 322.257L63.5816 322.581ZM78.0638 313.613L79.4174 313.538L80.0698 325.263L78.7478 325.336L78.6804 324.124C78.1165 325.056 77.0271 325.621 75.768 325.692C73.3914 325.824 71.4476 324.085 71.3074 321.567C71.1673 319.049 72.922 317.104 75.267 316.973C76.5261 316.903 77.6733 317.376 78.3205 318.224L78.0638 313.613ZM75.774 324.381C77.4265 324.289 78.5823 322.93 78.4842 321.167C78.387 319.42 77.0867 318.182 75.4342 318.274C73.7816 318.366 72.6424 319.74 72.7397 321.487C72.8377 323.25 74.1214 324.473 75.774 324.381ZM81.4644 315.271L81.3619 313.429L82.7155 313.354L82.8179 315.195L81.4644 315.271ZM82.0144 325.155L81.5502 316.813L82.9037 316.738L83.3679 325.079L82.0144 325.155ZM88.244 324.997C86.6072 325.088 85.2212 324.297 84.6073 322.911L85.7247 322.28C86.2083 323.311 87.136 323.812 88.1748 323.754C89.1506 323.7 89.7836 323.159 89.745 322.467C89.7118 321.869 89.1897 321.566 88.4063 321.389L87.016 321.087C85.5934 320.772 84.8247 320.009 84.7617 318.876C84.6811 317.428 85.7915 316.388 87.5227 316.291C89.0651 316.205 90.3374 316.94 90.8979 318.219L89.7954 318.833C89.3993 317.955 88.5834 317.479 87.5919 317.535C86.6948 317.585 86.1213 318.059 86.158 318.72C86.1896 319.286 86.6827 319.638 87.419 319.818L88.8591 320.164C90.2826 320.495 91.0836 321.271 91.1458 322.389C91.2263 323.837 90.0382 324.897 88.244 324.997ZM96.4545 324.54C94.0622 324.674 92.1795 322.9 92.0403 320.397C91.901 317.895 93.577 315.954 95.9693 315.821C97.6061 315.73 99.0445 316.613 99.6331 317.828L98.4562 318.525C97.9962 317.635 97.1279 317.067 96.042 317.128C94.4681 317.215 93.3753 318.571 93.4734 320.333C93.5697 322.064 94.8079 323.322 96.3818 323.234C97.4677 323.174 98.2677 322.513 98.6261 321.578L99.873 322.14C99.422 323.396 98.0755 324.45 96.4545 324.54ZM100.753 314.197L100.651 312.356L102.004 312.281L102.107 314.122L100.753 314.197ZM101.303 324.081L100.839 315.74L102.193 315.664L102.657 324.006L101.303 324.081ZM108.448 315.127C110.794 314.996 112.767 316.702 112.908 319.236C113.049 321.77 111.279 323.716 108.902 323.848C107.675 323.916 106.561 323.473 105.9 322.673L106.139 326.97L104.786 327.045L104.147 315.556L105.469 315.482L105.54 316.757C106.055 315.813 107.158 315.199 108.448 315.127ZM108.782 322.544C110.435 322.452 111.575 321.094 111.477 319.331C111.379 317.569 110.079 316.346 108.442 316.438C106.79 316.529 105.634 317.888 105.732 319.651C105.83 321.414 107.114 322.637 108.782 322.544ZM114.739 323.334L114.087 311.608L115.44 311.533L116.093 323.258L114.739 323.334ZM117.491 313.266L117.388 311.425L118.742 311.349L118.844 313.191L117.491 313.266ZM118.041 323.15L117.577 314.808L118.93 314.733L119.394 323.074L118.041 323.15ZM124.604 314.228C126.414 314.127 127.792 315.345 127.889 317.092L128.195 322.585L126.841 322.66L126.56 317.608C126.486 316.286 125.636 315.481 124.377 315.551C123.134 315.62 122.348 316.532 122.421 317.838L122.702 322.89L121.348 322.966L120.884 314.624L122.206 314.551L122.26 315.511C122.707 314.76 123.581 314.285 124.604 314.228ZM132.845 313.769C134.749 313.663 136.153 314.769 136.247 316.469L136.562 322.119L135.24 322.193L135.175 321.028C134.655 321.894 133.692 322.468 132.622 322.528C130.844 322.627 129.59 321.655 129.508 320.191C129.44 318.963 130.384 318.058 132.047 317.587L134.907 316.78L134.894 316.544C134.841 315.584 134.019 314.999 132.917 315.06C131.91 315.116 131.152 315.695 130.836 316.533L129.589 315.971C129.998 314.812 131.303 313.855 132.845 313.769ZM132.633 321.312C134.097 321.23 135.09 320.07 135.009 318.606L134.968 317.882L132.421 318.624C131.488 318.881 130.903 319.434 130.94 320.111C130.984 320.898 131.642 321.367 132.633 321.312ZM141.419 313.387L142.096 313.349L142.168 314.64L141.287 314.689C140.09 314.755 139.332 315.587 139.409 316.972L139.685 321.945L138.332 322.021L137.868 313.679L139.174 313.607L139.232 314.645C139.63 313.85 140.412 313.443 141.419 313.387ZM149.44 313.02L151.014 312.932L147.681 322.542C147.314 323.621 146.79 324.976 144.838 325.084C144.461 325.105 144.049 325.081 143.727 324.973L143.659 323.761C143.819 323.799 144.2 323.825 144.53 323.807C145.758 323.739 146.031 322.966 146.25 322.369L146.564 321.484L142.767 313.391L144.309 313.305L147.234 319.615L149.44 313.02ZM158.205 312.358C160.109 312.252 161.513 313.358 161.607 315.058L161.922 320.708L160.6 320.782L160.535 319.617C160.015 320.483 159.052 321.057 157.982 321.117C156.204 321.216 154.95 320.243 154.868 318.78C154.8 317.552 155.744 316.647 157.407 316.176L160.267 315.369L160.254 315.133C160.201 314.173 159.379 313.587 158.277 313.649C157.27 313.705 156.512 314.284 156.196 315.122L154.949 314.56C155.358 313.401 156.663 312.444 158.205 312.358ZM157.993 319.9C159.457 319.819 160.45 318.659 160.369 317.195L160.328 316.471L157.781 317.213C156.848 317.47 156.263 318.023 156.3 318.7C156.344 319.487 157.002 319.956 157.993 319.9ZM166.779 311.976L167.456 311.938L167.528 313.229L166.647 313.278C165.45 313.344 164.692 314.176 164.769 315.561L165.045 320.534L163.692 320.609L163.228 312.268L164.534 312.195L164.592 313.234C164.99 312.438 165.772 312.032 166.779 311.976ZM172.939 320.19C171.255 320.283 170.258 319.376 170.164 317.692L169.913 313.191L168.292 313.281L168.22 311.99L168.645 311.967C169.369 311.926 169.814 311.412 169.773 310.672L169.691 309.193L171.044 309.118L171.195 311.825L173.21 311.713L173.281 313.003L171.267 313.115L171.517 317.616C171.547 318.152 171.696 319.122 173.128 319.042C173.301 319.033 173.536 319.004 173.708 318.963L173.769 320.065C173.505 320.142 173.175 320.176 172.939 320.19ZM174.697 310.083L174.594 308.241L175.948 308.166L176.05 310.007L174.697 310.083ZM175.247 319.967L174.783 311.625L176.136 311.55L176.6 319.891L175.247 319.967ZM181.476 319.809C179.84 319.9 178.454 319.109 177.84 317.723L178.957 317.092C179.441 318.123 180.369 318.624 181.407 318.566C182.383 318.512 183.016 317.971 182.978 317.279C182.944 316.681 182.422 316.378 181.639 316.201L180.248 315.899C178.826 315.584 178.057 314.821 177.994 313.688C177.914 312.24 179.024 311.2 180.755 311.103C182.298 311.017 183.57 311.752 184.13 313.031L183.028 313.645C182.632 312.767 181.816 312.291 180.824 312.347C179.927 312.397 179.354 312.871 179.391 313.532C179.422 314.098 179.915 314.45 180.651 314.63L182.092 314.976C183.515 315.307 184.316 316.083 184.378 317.201C184.459 318.649 183.271 319.709 181.476 319.809ZM189.477 319.269C187.793 319.363 186.795 318.456 186.702 316.772L186.451 312.27L184.83 312.361L184.758 311.07L185.183 311.046C185.907 311.006 186.352 310.492 186.311 309.752L186.229 308.273L187.582 308.197L187.733 310.904L189.747 310.792L189.819 312.083L187.805 312.195L188.055 316.696C188.085 317.231 188.234 318.202 189.666 318.122C189.839 318.113 190.074 318.084 190.246 318.043L190.307 319.144C190.043 319.222 189.713 319.256 189.477 319.269Z" fill="#667085"/>
<g clip-path="url(#clip0_162_798)">
<path d="M29.6765 359.137C29.5403 356.691 30.0173 354.4 31.1073 352.264C32.1973 350.129 33.7431 348.401 35.7445 347.081C37.7459 345.76 39.9697 345.032 42.416 344.896C44.8622 344.76 47.1531 345.237 49.2886 346.327C51.4242 347.417 53.1521 348.963 54.4723 350.964C55.7925 352.966 56.5207 355.189 56.6568 357.636C56.793 360.082 56.316 362.373 55.226 364.508C54.136 366.644 52.5902 368.372 50.5888 369.692C48.5874 371.012 46.3635 371.74 43.9173 371.876C41.4711 372.013 39.1802 371.536 37.0447 370.446C34.9091 369.356 33.1812 367.81 31.861 365.808C30.5408 363.807 29.8126 361.583 29.6765 359.137ZM31.9158 359.012C32.072 361.818 33.1539 364.239 35.1616 366.274C35.9309 364.536 37.2084 362.85 38.9939 361.217C40.7795 359.584 42.5516 358.52 44.3103 358.025C44.0055 357.41 43.7131 356.858 43.4333 356.369C40.3946 357.53 37.0765 358.211 33.4791 358.411C32.7777 358.45 32.2555 358.47 31.9128 358.471C31.9168 358.543 31.9173 358.633 31.9143 358.742C31.9113 358.85 31.9118 358.94 31.9158 359.012ZM32.1119 356.214C32.5096 356.228 33.0952 356.213 33.8687 356.17C36.8725 356.003 39.7009 355.44 42.3539 354.48C40.8518 352.128 39.2372 350.188 37.5104 348.66C36.1294 349.459 34.9664 350.525 34.0212 351.859C33.076 353.192 32.4396 354.644 32.1119 356.214ZM36.7806 367.646C38.9012 369.115 41.2386 369.779 43.7927 369.637C45.1237 369.563 46.4318 369.238 47.7168 368.661C47.1859 365.605 46.3188 362.667 45.1154 359.848C43.4806 360.299 41.8629 361.301 40.2621 362.851C38.6614 364.402 37.5009 366 36.7806 367.646ZM39.8096 347.666C41.4835 349.215 43.0631 351.175 44.5482 353.546C46.9374 352.385 48.7085 350.978 49.8615 349.326C47.6789 347.716 45.2386 346.985 42.5406 347.135C41.6232 347.187 40.7129 347.363 39.8096 347.666ZM45.6261 355.408C45.9279 355.968 46.2742 356.68 46.665 357.542C47.9891 357.342 49.4335 357.199 50.9984 357.112C52.1136 357.049 53.2213 357.015 54.3215 357.008C54.0414 354.57 53.039 352.442 51.3141 350.626C50.242 352.435 48.346 354.029 45.6261 355.408ZM47.4446 359.393C48.5101 362.004 49.2828 364.704 49.7627 367.492C51.1326 366.495 52.2272 365.253 53.0465 363.764C53.8658 362.275 54.3188 360.689 54.4056 359.006C53.0875 358.989 51.8889 359.011 50.8097 359.071C49.8204 359.126 48.6987 359.233 47.4446 359.393Z" fill="#1D2939"/>
</g>
<g clip-path="url(#clip1_162_798)">
<path d="M97.509 341.83L85.6686 351.655L87.6653 346.142L97.509 341.83Z" fill="#E17726"/>
<path d="M70.0928 343.367L80.3266 346.551L82.8107 351.885L70.0928 343.367Z" fill="#E27625"/>
<path d="M93.6212 361.539L99.0849 361.34L97.538 367.926L90.776 366.463L93.6212 361.539Z" fill="#E27625"/>
<path d="M76.1147 362.513L79.477 367.091L72.9302 369.295L70.6737 362.92L76.1147 362.513Z" fill="#E27625"/>
<path d="M82.4376 350.512L83.0616 357.704L76.3703 357.772L78.1094 354.802L78.1319 354.773L82.4376 350.512Z" fill="#E27625"/>
<path d="M85.932 350.237L90.7574 354.071L90.7827 354.097L92.8406 356.855L86.1847 357.53L85.932 350.237Z" fill="#E27625"/>
<path d="M79.4093 362.351L83.2118 364.988L79.0921 367.267L79.4093 362.351Z" fill="#E27625"/>
<path d="M90.3303 361.743L91.1789 366.595L86.8436 364.786L90.3303 361.743Z" fill="#E27625"/>
<path d="M86.9209 364.513L91.3202 366.349L87.4407 368.465L87.4125 367.211L86.9209 364.513Z" fill="#D5BFB2"/>
<path d="M83.1031 364.726L82.926 367.44L83.0235 368.709L78.924 367.039L83.1031 364.726Z" fill="#D5BFB2"/>
<path d="M81.5288 358.732L82.7792 361.023L78.9057 360.118L81.5288 358.732Z" fill="#233447"/>
<path d="M87.8223 358.382L90.5956 359.468L86.834 360.797L87.8223 358.382Z" fill="#233447"/>
<path d="M79.6994 362.311L79.365 367.409L75.7874 362.64L79.6994 362.311Z" fill="#CC6228"/>
<path d="M90.0361 361.736L93.9606 361.628L90.9217 366.766L90.0361 361.736Z" fill="#CC6228"/>
<path d="M92.9216 356.564L90.2318 359.628L87.9774 358.746L87.0479 361.017L86.1461 357.251L92.9216 356.564Z" fill="#CC6228"/>
<path d="M76.2568 357.491L83.0679 357.422L82.5896 361.265L81.4137 359.111L79.2826 360.238L76.2568 357.491Z" fill="#CC6228"/>
<path d="M76.0322 356.905L79.4406 359.999L79.7323 363.225L76.0322 356.905Z" fill="#E27525"/>
<path d="M93.0852 355.95L90.1039 362.654L90.0496 359.409L93.0852 355.95Z" fill="#E27525"/>
<path d="M82.8708 356.725L83.0461 357.535L83.4803 359.553L83.622 365.818L82.3672 360.848L82.364 360.797L82.8708 356.725Z" fill="#E27525"/>
<path d="M86.2623 356.524L87.2204 360.526L87.2229 360.578L86.5255 365.669L86.4167 364.411L85.9835 359.376L86.2623 356.524Z" fill="#E27525"/>
<path d="M90.3285 359.263L90.3755 362.077L87.1197 364.918L86.4047 364.47L86.9548 360.455L90.3285 359.263Z" fill="#F5841F"/>
<path d="M79.1465 359.885L82.6197 360.696L83.6119 364.626L82.951 365.15L79.3999 362.688L79.1465 359.885Z" fill="#F5841F"/>
<path d="M78.2373 366.455L82.7063 368.276L82.6388 367.396L82.9854 367.056L87.2948 366.816L87.69 367.114L87.7112 367.996L91.9234 365.699L89.9149 367.555L87.4664 369.446L83.0969 369.689L80.4551 368.075L78.2373 366.455Z" fill="#C0AC9D"/>
<path d="M86.5939 364.256L87.2337 364.656L87.7547 367.515L87.208 367.103L83.1075 367.331L82.6204 367.809L82.8087 364.903L83.4003 364.433L86.5939 364.256Z" fill="#161616"/>
<path d="M96.7088 342.129L98.4386 346.493L97.7631 351.041L98.4506 351.513L97.5964 352.243L98.2956 352.724L97.4529 353.582L98.0199 353.946L96.6675 355.716L90.6391 354.318L90.5861 354.294L86.1105 350.925L96.7088 342.129Z" fill="#763E1A"/>
<path d="M70.8935 343.565L82.4023 351.132L78.3281 354.976L78.2782 355.006L72.4419 357.063L70.9016 355.455L71.4242 355.03L70.4919 354.271L71.1323 353.716L70.189 353.084L70.8447 352.537L69.6586 348.095L70.8935 343.565Z" fill="#763E1A"/>
<path d="M90.3266 353.957L96.7141 355.437L99.1064 361.617L93.7189 361.917L90.0094 362.17L92.4162 356.758L90.3266 353.957Z" fill="#F5841F"/>
<path d="M78.5469 354.612L76.7806 357.628L79.7734 362.74L76.0605 362.9L70.6825 363.199L72.363 356.792L78.5469 354.612Z" fill="#F5841F"/>
<path d="M87.9723 346.095L86.4784 350.941L86.4623 357.377L86.4314 359.395L86.7059 364.532L83.3208 364.72L83.0245 359.595L82.7688 357.581L82.0387 351.188L80.0166 346.538L87.9723 346.095Z" fill="#F5841F"/>
</g>
<g clip-path="url(#clip2_162_798)">
<path d="M112.417 354.533C112.281 352.087 112.758 349.796 113.848 347.66C114.938 345.525 116.483 343.797 118.485 342.477C120.486 341.156 122.71 340.428 125.156 340.292C127.602 340.156 129.893 340.633 132.029 341.723C134.164 342.813 135.892 344.359 137.213 346.36C138.533 348.361 139.261 350.585 139.397 353.032C139.533 355.478 139.056 357.769 137.966 359.904C136.876 362.04 135.33 363.768 133.329 365.088C131.328 366.408 129.104 367.136 126.658 367.272C124.211 367.408 121.92 366.932 119.785 365.842C117.649 364.752 115.921 363.206 114.601 361.204C113.281 359.203 112.553 356.979 112.417 354.533ZM114.656 354.408C114.812 357.214 115.894 359.635 117.902 361.67C118.671 359.931 119.949 358.245 121.734 356.613C123.52 354.98 125.292 353.916 127.051 353.421C126.746 352.806 126.453 352.254 126.174 351.765C123.135 352.926 119.817 353.607 116.219 353.807C115.518 353.846 114.996 353.866 114.653 353.867C114.657 353.939 114.658 354.029 114.655 354.138C114.652 354.246 114.652 354.336 114.656 354.408ZM114.852 351.61C115.25 351.624 115.835 351.609 116.609 351.566C119.613 351.399 122.441 350.836 125.094 349.876C123.592 347.524 121.977 345.584 120.251 344.056C118.87 344.855 117.707 345.921 116.761 347.254C115.816 348.588 115.18 350.04 114.852 351.61ZM119.521 363.042C121.641 364.511 123.979 365.175 126.533 365.033C127.864 364.959 129.172 364.634 130.457 364.057C129.926 361.001 129.059 358.063 127.856 355.243C126.221 355.695 124.603 356.696 123.002 358.247C121.402 359.797 120.241 361.396 119.521 363.042ZM122.55 343.062C124.224 344.611 125.803 346.571 127.288 348.942C129.678 347.781 131.449 346.374 132.602 344.722C130.419 343.111 127.979 342.381 125.281 342.531C124.363 342.582 123.453 342.759 122.55 343.062ZM128.366 350.804C128.668 351.364 129.014 352.076 129.405 352.938C130.729 352.738 132.174 352.594 133.739 352.507C134.854 352.445 135.961 352.411 137.062 352.404C136.782 349.965 135.779 347.838 134.054 346.022C132.982 347.831 131.086 349.425 128.366 350.804ZM130.185 354.789C131.25 357.4 132.023 360.1 132.503 362.888C133.873 361.891 134.967 360.648 135.787 359.159C136.606 357.67 137.059 356.085 137.146 354.402C135.828 354.385 134.629 354.406 133.55 354.466C132.561 354.522 131.439 354.629 130.185 354.789Z" fill="url(#paint0_linear_162_798)"/>
</g>
<g clip-path="url(#clip3_162_798)">
<path d="M180.247 337.226L168.407 347.051L170.404 341.538L180.247 337.226Z" fill="#E17726"/>
<path d="M152.832 338.763L163.066 341.947L165.55 347.281L152.832 338.763Z" fill="#E27625"/>
<path d="M176.359 356.935L181.823 356.735L180.276 363.322L173.514 361.859L176.359 356.935Z" fill="#E27625"/>
<path d="M158.853 357.909L162.215 362.487L155.669 364.691L153.412 358.316L158.853 357.909Z" fill="#E27625"/>
<path d="M165.177 345.908L165.801 353.1L159.11 353.168L160.849 350.198L160.871 350.169L165.177 345.908Z" fill="#E27625"/>
<path d="M168.67 345.633L173.496 349.467L173.521 349.493L175.579 352.251L168.923 352.926L168.67 345.633Z" fill="#E27625"/>
<path d="M162.148 357.747L165.95 360.384L161.83 362.663L162.148 357.747Z" fill="#E27625"/>
<path d="M173.069 357.139L173.917 361.991L169.582 360.182L173.069 357.139Z" fill="#E27625"/>
<path d="M169.659 359.909L174.059 361.745L170.179 363.86L170.151 362.606L169.659 359.909Z" fill="#D5BFB2"/>
<path d="M165.841 360.122L165.664 362.836L165.762 364.105L161.662 362.435L165.841 360.122Z" fill="#D5BFB2"/>
<path d="M164.267 354.128L165.517 356.419L161.644 355.514L164.267 354.128Z" fill="#233447"/>
<path d="M170.561 353.778L173.334 354.864L169.572 356.193L170.561 353.778Z" fill="#233447"/>
<path d="M162.438 357.707L162.103 362.804L158.526 358.036L162.438 357.707Z" fill="#CC6228"/>
<path d="M172.775 357.132L176.7 357.024L173.661 362.161L172.775 357.132Z" fill="#CC6228"/>
<path d="M175.66 351.959L172.97 355.024L170.716 354.142L169.786 356.413L168.884 352.646L175.66 351.959Z" fill="#CC6228"/>
<path d="M158.996 352.887L165.807 352.818L165.329 356.661L164.153 354.507L162.022 355.634L158.996 352.887Z" fill="#CC6228"/>
<path d="M158.771 352.301L162.179 355.395L162.471 358.621L158.771 352.301Z" fill="#E27525"/>
<path d="M175.823 351.346L172.842 358.049L172.788 354.805L175.823 351.346Z" fill="#E27525"/>
<path d="M165.609 352.12L165.784 352.93L166.219 354.949L166.36 361.213L165.105 356.244L165.102 356.192L165.609 352.12Z" fill="#E27525"/>
<path d="M169.001 351.92L169.959 355.922L169.961 355.974L169.264 361.064L169.155 359.807L168.722 354.772L169.001 351.92Z" fill="#E27525"/>
<path d="M173.067 354.659L173.114 357.473L169.858 360.314L169.143 359.866L169.693 355.851L173.067 354.659Z" fill="#F5841F"/>
<path d="M161.885 355.281L165.358 356.092L166.35 360.021L165.689 360.546L162.138 358.083L161.885 355.281Z" fill="#F5841F"/>
<path d="M160.976 361.851L165.445 363.672L165.377 362.792L165.724 362.452L170.033 362.212L170.428 362.509L170.449 363.391L174.662 361.094L172.653 362.951L170.205 364.842L165.835 365.085L163.193 363.471L160.976 361.851Z" fill="#C0AC9D"/>
<path d="M169.332 359.652L169.972 360.052L170.493 362.911L169.946 362.499L165.846 362.727L165.359 363.205L165.547 360.299L166.139 359.829L169.332 359.652Z" fill="#161616"/>
<path d="M179.447 337.525L181.177 341.889L180.501 346.437L181.189 346.909L180.335 347.639L181.034 348.119L180.191 348.977L180.758 349.342L179.406 351.111L173.377 349.714L173.324 349.689L168.849 346.321L179.447 337.525Z" fill="#763E1A"/>
<path d="M153.633 338.961L165.142 346.527L161.067 350.371L161.017 350.402L155.181 352.459L153.641 350.851L154.164 350.426L153.231 349.666L153.872 349.112L152.928 348.48L153.584 347.933L152.398 343.491L153.633 338.961Z" fill="#763E1A"/>
<path d="M173.065 349.353L179.452 350.833L181.845 357.013L176.457 357.313L172.748 357.566L175.154 352.154L173.065 349.353Z" fill="#F5841F"/>
<path d="M161.285 350.008L159.519 353.024L162.512 358.136L158.799 358.295L153.421 358.595L155.101 352.188L161.285 350.008Z" fill="#F5841F"/>
<path d="M170.711 341.491L169.217 346.337L169.201 352.773L169.17 354.791L169.444 359.928L166.059 360.116L165.763 354.99L165.507 352.976L164.777 346.584L162.755 341.934L170.711 341.491Z" fill="#F5841F"/>
</g>
<rect x="32.2711" y="395.642" width="133.985" height="43.9109" rx="12.9481" transform="rotate(-3.185 32.2711 395.642)" stroke="url(#paint1_linear_162_798)" stroke-width="1.12592"/>
<rect x="176.167" y="387.634" width="133.985" height="43.9109" rx="12.9481" transform="rotate(-3.185 176.167 387.634)" stroke="url(#paint2_linear_162_798)" stroke-width="1.12592"/>
</g>
<g filter="url(#filter1_bd_162_798)">
<rect x="130.337" y="20.0117" width="306.251" height="385.902" rx="18.0147" transform="rotate(3.18 130.337 20.0117)" fill="white" shape-rendering="crispEdges"/>
<rect x="130.808" y="20.5387" width="305.251" height="384.902" rx="17.5147" transform="rotate(3.18 130.808 20.5387)" stroke="white" shape-rendering="crispEdges"/>
<rect x="143.077" y="34.2516" width="279.229" height="185.777" rx="13.5111" transform="rotate(3.18 143.077 34.2516)" fill="#D9D9D9"/>
<path d="M138.348 253.832C134.516 253.619 131.837 250.529 132.059 246.536C132.281 242.543 135.267 239.786 139.116 240C141.94 240.157 143.937 241.891 144.516 243.8L142.448 244.659C141.969 243.207 140.747 242.147 139.002 242.05C136.394 241.905 134.485 243.784 134.326 246.662C134.165 249.558 135.853 251.636 138.462 251.781C140.206 251.878 141.538 250.96 142.175 249.57L144.135 250.653C143.348 252.486 141.172 253.989 138.348 253.832ZM145.675 254.022L146.419 240.622L148.578 240.742L147.833 254.142L145.675 254.022ZM159.136 249.556C159.117 249.898 159.063 250.237 158.975 250.521L151.852 250.125C151.874 251.678 152.952 252.731 154.445 252.813C155.596 252.877 156.4 252.363 156.876 251.595L158.609 252.558C157.938 253.91 156.3 254.829 154.321 254.719C151.389 254.556 149.48 252.213 149.638 249.371C149.8 246.457 151.988 244.431 154.722 244.583C157.456 244.735 159.279 246.984 159.136 249.556ZM151.981 248.455L156.855 248.725C156.855 247.426 155.863 246.451 154.622 246.382C153.363 246.312 152.311 247.048 151.981 248.455ZM171.4 245.51C173.415 245.622 174.773 247.159 174.653 249.317L174.303 255.613L172.144 255.493L172.464 249.737C172.539 248.388 171.829 247.537 170.677 247.473C169.544 247.41 168.726 248.176 168.651 249.525L168.331 255.281L166.173 255.161L166.493 249.405C166.567 248.056 165.857 247.205 164.706 247.141C163.573 247.078 162.772 247.845 162.697 249.194L162.377 254.95L160.219 254.83L160.758 245.135L162.79 245.248L162.724 246.435C163.279 245.546 164.241 245.112 165.41 245.177C166.705 245.249 167.734 245.902 168.289 246.943C168.92 245.986 170.069 245.436 171.4 245.51ZM185.432 251.017C185.413 251.359 185.358 251.698 185.27 251.982L178.147 251.586C178.169 253.139 179.247 254.191 180.74 254.274C181.891 254.338 182.696 253.824 183.172 253.056L184.904 254.019C184.234 255.371 182.595 256.29 180.616 256.18C177.685 256.017 175.776 253.674 175.934 250.832C176.096 247.918 178.283 245.892 181.017 246.044C183.751 246.196 185.575 248.445 185.432 251.017ZM178.276 249.916L183.151 250.186C183.151 248.887 182.158 247.912 180.917 247.843C179.658 247.773 178.607 248.509 178.276 249.916ZM191.85 246.646C194.008 246.766 195.418 248.342 195.3 250.464L194.95 256.76L192.792 256.64L193.112 250.884C193.185 249.571 192.404 248.68 191.181 248.612C189.94 248.543 189.066 249.342 188.993 250.655L188.673 256.411L186.514 256.291L187.053 246.596L189.086 246.709L189.021 247.878C189.61 247.009 190.645 246.579 191.85 246.646ZM201.225 257.217C199.049 257.096 197.894 255.805 198.013 253.664L198.263 249.168L196.5 249.07L196.608 247.127L196.896 247.143C197.831 247.195 198.399 246.703 198.451 245.768L198.537 244.221L200.696 244.341L200.529 247.345L202.831 247.473L202.723 249.415L200.421 249.287L200.171 253.784C200.125 254.612 200.424 255.404 201.791 255.48C201.971 255.49 202.206 255.485 202.441 255.462L202.346 257.189C202.001 257.224 201.567 257.236 201.225 257.217ZM212.055 257.927C209.411 257.78 207.339 256.113 206.775 253.917L208.767 253.143C209.303 254.851 210.637 255.845 212.166 255.93C213.677 256.014 214.689 255.331 214.744 254.341C214.795 253.424 214.265 252.907 213.221 252.525L210.64 251.569C208.465 250.781 207.46 249.39 207.556 247.663C207.682 245.379 209.64 243.918 212.374 244.07C214.91 244.211 216.755 245.757 217.333 247.683L215.323 248.474C214.916 247.026 213.81 246.152 212.281 246.067C210.878 245.989 209.903 246.657 209.846 247.682C209.8 248.51 210.342 249.153 211.403 249.537L213.896 250.451C216.07 251.258 217.138 252.508 217.038 254.306C216.909 256.627 214.897 258.085 212.055 257.927ZM223.075 258.539C220.233 258.381 218.104 256.116 218.266 253.184C218.429 250.252 220.778 248.253 223.638 248.412C226.48 248.57 228.61 250.818 228.447 253.749C228.284 256.681 225.899 258.696 223.075 258.539ZM223.186 256.542C224.823 256.633 226.099 255.423 226.198 253.642C226.297 251.862 225.164 250.5 223.527 250.409C221.872 250.317 220.613 251.546 220.514 253.327C220.415 255.107 221.531 256.45 223.186 256.542ZM240.889 249.371C242.903 249.483 244.261 251.02 244.141 253.178L243.792 259.473L241.633 259.354L241.953 253.598C242.028 252.249 241.318 251.397 240.166 251.333C239.033 251.27 238.215 252.037 238.14 253.386L237.82 259.142L235.662 259.022L235.981 253.266C236.056 251.917 235.346 251.065 234.195 251.002C233.061 250.939 232.261 251.706 232.186 253.055L231.866 258.811L229.708 258.691L230.247 248.996L232.279 249.109L232.213 250.296C232.768 249.407 233.73 248.973 234.899 249.038C236.194 249.11 237.222 249.762 237.778 250.804C238.409 249.846 239.558 249.297 240.889 249.371ZM250.164 249.886C252.521 250.017 254.06 251.528 253.948 253.542L253.589 260.018L251.556 259.905L251.616 258.826C250.849 259.649 249.835 260.026 248.666 259.961C246.508 259.841 245.209 258.542 245.301 256.887C245.381 255.448 246.567 254.558 248.551 254.235L251.773 253.728L251.79 253.422C251.84 252.523 251.136 251.889 250.056 251.829C249.013 251.771 248.154 252.3 247.743 253.198L245.924 252.158C246.564 250.714 248.24 249.779 250.164 249.886ZM249.013 258.266C250.452 258.346 251.571 257.362 251.647 255.995L251.682 255.365L248.896 255.824C248.077 255.959 247.583 256.4 247.55 256.994C247.509 257.731 248.078 258.214 249.013 258.266ZM255.318 260.114L256.063 246.714L258.221 246.833L257.477 260.234L255.318 260.114ZM260.089 249.373L260.224 246.945L262.383 247.065L262.248 249.493L260.089 249.373ZM259.48 260.345L260.018 250.65L262.177 250.77L261.638 260.465L259.48 260.345ZM268.116 250.883C270.472 251.014 272.012 252.525 271.9 254.54L271.541 261.015L269.508 260.902L269.568 259.823C268.801 260.646 267.787 261.023 266.618 260.958C264.46 260.838 263.161 259.539 263.253 257.884C263.333 256.445 264.519 255.555 266.503 255.232L269.725 254.726L269.742 254.42C269.792 253.521 269.087 252.886 268.008 252.826C266.965 252.768 266.106 253.298 265.695 254.195L263.876 253.156C264.516 251.712 266.191 250.776 268.116 250.883ZM266.965 259.263C268.404 259.343 269.523 258.359 269.599 256.992L269.634 256.362L266.848 256.821C266.029 256.956 265.535 257.398 265.502 257.991C265.461 258.729 266.03 259.211 266.965 259.263Z" fill="#1D2939"/>
<path d="M140.647 269.527L142 269.603L141.349 281.328L139.853 281.245L140.349 272.321L136.223 277.538L136.097 277.531L132.578 271.826L132.079 280.813L130.583 280.73L131.235 269.005L132.588 269.08L136.298 275.048L140.647 269.527ZM149.381 273.407L150.735 273.482L150.271 281.824L148.949 281.75L149.003 280.79C148.475 281.487 147.554 281.862 146.547 281.806C144.737 281.706 143.495 280.184 143.594 278.406L143.889 273.102L145.242 273.177L144.961 278.229C144.888 279.551 145.659 280.447 146.918 280.516C148.146 280.585 149.028 279.765 149.101 278.459L149.381 273.407ZM152.343 281.939L152.995 270.214L154.348 270.289L153.697 282.014L152.343 281.939ZM159.259 282.418C157.575 282.324 156.684 281.312 156.778 279.628L157.028 275.126L155.407 275.036L155.479 273.746L155.904 273.769C156.628 273.81 157.127 273.348 157.168 272.608L157.25 271.129L158.604 271.204L158.453 273.911L160.468 274.023L160.396 275.314L158.382 275.202L158.132 279.703C158.102 280.238 158.142 281.219 159.574 281.299C159.747 281.308 159.984 281.306 160.159 281.284L160.098 282.385C159.827 282.434 159.496 282.431 159.259 282.418ZM162.127 272.568L162.229 270.727L163.582 270.802L163.48 272.643L162.127 272.568ZM161.578 282.452L162.041 274.11L163.394 274.186L162.931 282.527L161.578 282.452ZM165.415 279.066L165.487 277.775L171.31 278.099L171.238 279.389L165.415 279.066ZM180.802 271.758L182.156 271.834L181.504 283.559L180.182 283.485L180.249 282.274C179.586 283.137 178.44 283.578 177.181 283.508C174.805 283.376 173.066 281.432 173.205 278.914C173.345 276.396 175.305 274.658 177.65 274.788C178.909 274.858 179.997 275.455 180.546 276.37L180.802 271.758ZM177.332 282.206C178.985 282.298 180.284 281.076 180.382 279.313C180.479 277.566 179.324 276.191 177.672 276.1C176.019 276.008 174.735 277.247 174.638 278.994C174.54 280.757 175.68 282.114 177.332 282.206ZM183.998 273.783L184.1 271.942L185.454 272.017L185.351 273.858L183.998 273.783ZM183.449 283.667L183.912 275.325L185.266 275.401L184.802 283.742L183.449 283.667ZM189.657 284.201C188.02 284.11 186.731 283.17 186.274 281.724L187.455 281.221C187.821 282.3 188.688 282.9 189.726 282.958C190.702 283.012 191.391 282.545 191.43 281.853C191.463 281.255 190.978 280.896 190.219 280.633L188.87 280.179C187.491 279.708 186.812 278.865 186.875 277.732C186.956 276.284 188.174 275.373 189.906 275.469C191.448 275.555 192.631 276.426 193.046 277.759L191.883 278.247C191.586 277.331 190.828 276.767 189.837 276.712C188.939 276.663 188.317 277.07 188.28 277.731C188.249 278.298 188.7 278.702 189.412 278.962L190.804 279.466C192.182 279.953 192.892 280.813 192.83 281.931C192.75 283.379 191.451 284.301 189.657 284.201ZM197.868 284.658C195.476 284.525 193.801 282.553 193.94 280.05C194.079 277.548 195.96 275.805 198.352 275.938C199.989 276.029 201.321 277.066 201.771 278.338L200.524 278.901C200.166 277.965 199.366 277.305 198.28 277.245C196.706 277.157 195.469 278.383 195.371 280.146C195.275 281.877 196.367 283.264 197.94 283.351C199.026 283.412 199.895 282.844 200.355 281.954L201.531 282.651C200.944 283.85 199.489 284.748 197.868 284.658ZM203.287 274.855L203.389 273.013L204.743 273.089L204.64 274.93L203.287 274.855ZM202.738 284.739L203.201 276.397L204.555 276.472L204.091 284.814L202.738 284.739ZM210.831 276.632C213.177 276.762 214.949 278.676 214.808 281.21C214.667 283.744 212.692 285.481 210.316 285.349C209.088 285.281 208.03 284.717 207.463 283.849L207.224 288.145L205.87 288.07L206.509 276.581L207.831 276.654L207.76 277.929C208.377 277.048 209.541 276.56 210.831 276.632ZM210.341 284.04C211.994 284.132 213.277 282.909 213.375 281.146C213.473 279.383 212.317 278.025 210.68 277.934C209.028 277.842 207.728 279.064 207.63 280.827C207.532 282.59 208.673 283.947 210.341 284.04ZM216.174 285.485L216.825 273.76L218.179 273.835L217.527 285.56L216.174 285.485ZM220.025 275.785L220.127 273.943L221.48 274.018L221.378 275.86L220.025 275.785ZM219.475 285.669L219.939 277.327L221.292 277.402L220.829 285.744L219.475 285.669ZM226.987 277.529C228.797 277.63 230.031 278.993 229.934 280.74L229.629 286.233L228.276 286.157L228.556 281.105C228.63 279.783 227.874 278.889 226.615 278.819C225.372 278.75 224.49 279.569 224.417 280.875L224.136 285.928L222.783 285.852L223.246 277.511L224.568 277.584L224.515 278.544C225.043 277.847 225.964 277.472 226.987 277.529ZM235.228 277.987C237.133 278.093 238.405 279.348 238.31 281.047L237.996 286.698L236.674 286.624L236.739 285.459C236.126 286.262 235.106 286.726 234.036 286.667C232.257 286.568 231.119 285.463 231.2 283.999C231.268 282.772 232.307 281.977 234.012 281.693L236.944 281.208L236.957 280.972C237.01 280.012 236.258 279.339 235.157 279.278C234.149 279.222 233.333 279.713 232.925 280.511L231.748 279.815C232.283 278.708 233.686 277.901 235.228 277.987ZM234.182 285.459C235.645 285.541 236.761 284.498 236.842 283.034L236.882 282.31L234.268 282.765C233.312 282.917 232.67 283.402 232.632 284.079C232.588 284.866 233.19 285.404 234.182 285.459ZM243.792 278.558L244.469 278.595L244.397 279.886L243.516 279.837C242.32 279.77 241.473 280.513 241.396 281.898L241.12 286.871L239.766 286.796L240.23 278.454L241.536 278.527L241.478 279.566C241.962 278.819 242.785 278.502 243.792 278.558ZM251.804 279.082L253.378 279.169L249 288.351C248.516 289.382 247.845 290.671 245.893 290.562C245.515 290.541 245.109 290.471 244.801 290.328L244.868 289.116C245.023 289.172 245.398 289.24 245.729 289.258C246.956 289.327 247.313 288.589 247.597 288.02L248.007 287.175L245.131 278.711L246.673 278.797L248.88 285.392L251.804 279.082ZM260.588 279.396C262.493 279.502 263.765 280.757 263.67 282.456L263.357 288.107L262.034 288.033L262.099 286.868C261.486 287.671 260.466 288.135 259.396 288.076C257.617 287.977 256.479 286.872 256.56 285.408C256.628 284.181 257.667 283.386 259.372 283.102L262.304 282.617L262.317 282.381C262.37 281.421 261.618 280.748 260.517 280.687C259.509 280.631 258.693 281.122 258.285 281.92L257.108 281.223C257.643 280.117 259.046 279.31 260.588 279.396ZM259.542 286.868C261.005 286.95 262.121 285.907 262.202 284.443L262.243 283.719L259.628 284.174C258.673 284.326 258.03 284.811 257.992 285.488C257.949 286.275 258.55 286.813 259.542 286.868ZM269.152 279.967L269.829 280.004L269.757 281.295L268.876 281.246C267.68 281.179 266.833 281.922 266.756 283.307L266.48 288.28L265.127 288.205L265.59 279.863L266.896 279.936L266.839 280.975C267.322 280.228 268.145 279.911 269.152 279.967ZM274.364 288.813C272.679 288.719 271.789 287.707 271.882 286.023L272.132 281.521L270.511 281.431L270.583 280.141L271.008 280.164C271.732 280.205 272.231 279.743 272.272 279.003L272.354 277.524L273.708 277.599L273.557 280.306L275.572 280.418L275.5 281.709L273.486 281.597L273.236 286.098C273.206 286.633 273.246 287.614 274.678 287.694C274.851 287.703 275.088 287.701 275.263 287.679L275.202 288.78C274.931 288.829 274.6 288.826 274.364 288.813ZM277.231 278.963L277.333 277.122L278.687 277.197L278.584 279.038L277.231 278.963ZM276.682 288.847L277.145 280.505L278.499 280.581L278.035 288.922L276.682 288.847ZM282.89 289.381C281.253 289.29 279.964 288.35 279.507 286.904L280.688 286.401C281.054 287.479 281.921 288.08 282.959 288.138C283.935 288.192 284.624 287.725 284.663 287.033C284.696 286.435 284.211 286.076 283.452 285.813L282.103 285.359C280.724 284.888 280.045 284.045 280.108 282.912C280.188 281.464 281.407 280.553 283.139 280.649C284.681 280.735 285.864 281.605 286.279 282.939L285.116 283.427C284.819 282.51 284.061 281.947 283.069 281.892C282.172 281.842 281.55 282.25 281.513 282.911C281.482 283.477 281.933 283.881 282.645 284.142L284.037 284.646C285.415 285.133 286.125 285.993 286.063 287.111C285.983 288.558 284.684 289.481 282.89 289.381ZM290.901 289.732C289.217 289.638 288.326 288.626 288.42 286.941L288.67 282.44L287.049 282.35L287.121 281.06L287.546 281.083C288.27 281.123 288.769 280.662 288.81 279.922L288.892 278.443L290.246 278.518L290.095 281.225L292.11 281.337L292.038 282.627L290.024 282.515L289.773 287.017C289.744 287.552 289.784 288.533 291.216 288.612C291.389 288.622 291.626 288.619 291.801 288.598L291.74 289.699C291.469 289.747 291.137 289.745 290.901 289.732Z" fill="#667085"/>
<g clip-path="url(#clip4_162_798)">
<path d="M127.666 311.638C127.801 309.191 128.529 306.968 129.849 304.966C131.17 302.964 132.897 301.419 135.033 300.328C137.168 299.238 139.459 298.761 141.905 298.897C144.352 299.033 146.575 299.761 148.577 301.081C150.579 302.401 152.124 304.129 153.215 306.264C154.305 308.4 154.782 310.69 154.646 313.137C154.51 315.583 153.782 317.807 152.462 319.808C151.142 321.81 149.414 323.356 147.279 324.446C145.143 325.536 142.853 326.013 140.406 325.877C137.96 325.742 135.736 325.014 133.735 323.694C131.733 322.373 130.187 320.646 129.097 318.51C128.007 316.375 127.53 314.084 127.666 311.638ZM129.905 311.762C129.749 314.568 130.556 317.094 132.326 319.339C133.283 317.696 134.739 316.162 136.695 314.738C138.651 313.313 140.53 312.452 142.332 312.155C142.098 311.51 141.868 310.929 141.644 310.412C138.496 311.229 135.123 311.538 131.525 311.338C130.824 311.299 130.303 311.261 129.962 311.224C129.958 311.296 129.948 311.386 129.933 311.493C129.918 311.6 129.909 311.69 129.905 311.762ZM130.41 309.003C130.804 309.061 131.387 309.111 132.161 309.154C135.165 309.321 138.038 309.075 140.781 308.415C139.549 305.911 138.159 303.804 136.613 302.094C135.152 302.735 133.878 303.665 132.79 304.886C131.703 306.106 130.91 307.479 130.41 309.003ZM133.783 320.882C135.727 322.577 137.977 323.496 140.531 323.638C141.862 323.712 143.198 323.534 144.539 323.103C144.35 320.007 143.814 316.991 142.931 314.056C141.256 314.323 139.537 315.139 137.774 316.502C136.011 317.866 134.681 319.326 133.783 320.882ZM139.008 301.361C140.5 303.086 141.852 305.209 143.065 307.73C145.569 306.841 147.485 305.639 148.814 304.125C146.823 302.283 144.479 301.286 141.781 301.136C140.864 301.085 139.939 301.16 139.008 301.361ZM143.93 309.7C144.168 310.29 144.433 311.036 144.726 311.936C146.064 311.884 147.516 311.902 149.081 311.989C150.196 312.05 151.3 312.139 152.395 312.254C152.387 309.8 151.626 307.574 150.113 305.578C148.847 307.257 146.786 308.631 143.93 309.7ZM145.296 313.862C146.065 316.575 146.534 319.344 146.702 322.168C148.174 321.329 149.399 320.216 150.379 318.827C151.358 317.438 151.984 315.912 152.257 314.249C150.949 314.086 149.755 313.975 148.676 313.915C147.687 313.86 146.56 313.842 145.296 313.862Z" fill="#1D2939"/>
</g>
<g clip-path="url(#clip5_162_798)">
<path d="M196.997 301.958L184.141 310.409L186.736 305.152L196.997 301.958Z" fill="#E17726"/>
<path d="M169.581 300.445L179.399 304.745L181.276 310.321L169.581 300.445Z" fill="#E27625"/>
<path d="M190.949 321.114L196.402 321.521L194.134 327.895L187.576 325.692L190.949 321.114Z" fill="#E27625"/>
<path d="M173.443 320.142L176.277 325.064L169.526 326.528L167.99 319.943L173.443 320.142Z" fill="#E27625"/>
<path d="M181.057 308.915L180.88 316.132L174.222 315.457L176.28 312.699L176.305 312.672L181.057 308.915Z" fill="#E27625"/>
<path d="M184.561 309.029L188.932 313.374L188.954 313.403L190.693 316.372L184.003 316.305L184.561 309.029Z" fill="#E27625"/>
<path d="M176.736 320.345L180.222 323.388L175.875 325.196L176.736 320.345Z" fill="#E27625"/>
<path d="M187.655 320.952L187.96 325.868L183.852 323.589L187.655 320.952Z" fill="#E27625"/>
<path d="M183.961 323.327L188.13 325.639L184.039 327.312L184.15 326.062L183.961 323.327Z" fill="#D5BFB2"/>
<path d="M180.141 323.115L179.664 325.792L179.621 327.065L175.731 324.95L180.141 323.115Z" fill="#D5BFB2"/>
<path d="M179.242 316.984L180.23 319.399L176.481 318.071L179.242 316.984Z" fill="#233447"/>
<path d="M185.535 317.334L188.171 318.72L184.285 319.624L185.535 317.334Z" fill="#233447"/>
<path d="M177.028 320.338L176.13 325.367L173.103 320.231L177.028 320.338Z" fill="#CC6228"/>
<path d="M187.364 320.912L191.276 321.24L187.687 326.009L187.364 320.912Z" fill="#CC6228"/>
<path d="M190.805 316.091L187.792 318.839L185.65 317.712L184.474 319.867L183.996 316.023L190.805 316.091Z" fill="#CC6228"/>
<path d="M174.141 315.166L180.917 315.852L180.016 319.619L179.086 317.348L176.843 318.231L174.141 315.166Z" fill="#CC6228"/>
<path d="M173.981 314.559L177.026 318.012L176.958 321.25L173.981 314.559Z" fill="#E27525"/>
<path d="M191.035 315.5L187.329 321.832L187.635 318.601L191.035 315.5Z" fill="#E27525"/>
<path d="M180.8 315.137L180.884 315.962L181.092 318.016L180.538 324.257L179.842 319.18L179.844 319.128L180.8 315.137Z" fill="#E27525"/>
<path d="M184.191 315.314L184.7 319.398L184.696 319.45L183.439 324.431L183.47 323.169L183.598 318.118L184.191 315.314Z" fill="#E27525"/>
<path d="M187.929 318.487L187.664 321.289L184.113 323.751L183.452 323.227L184.444 319.297L187.929 318.487Z" fill="#F5841F"/>
<path d="M176.746 317.865L180.108 319.057L180.658 323.072L179.943 323.52L176.687 320.679L176.746 317.865Z" fill="#F5841F"/>
<path d="M175.116 324.294L179.356 326.599L179.386 325.717L179.768 325.417L184.078 325.657L184.438 325.997L184.361 326.875L188.802 325.06L186.6 326.682L183.957 328.289L179.587 328.047L177.141 326.15L175.116 324.294Z" fill="#C0AC9D"/>
<path d="M183.663 323.035L184.255 323.504L184.456 326.402L183.958 325.933L179.857 325.705L179.32 326.126L179.83 323.258L180.47 322.857L183.663 323.035Z" fill="#161616"/>
<path d="M196.169 302.165L197.404 306.695L196.229 311.14L196.859 311.685L195.93 312.316L196.571 312.871L195.639 313.63L196.162 314.055L194.622 315.664L188.785 313.607L188.735 313.577L184.661 309.733L196.169 302.165Z" fill="#763E1A"/>
<path d="M170.354 300.731L180.954 309.527L176.478 312.895L176.425 312.92L170.397 314.318L169.044 312.548L169.611 312.184L168.769 311.326L169.466 310.846L168.599 310.113L169.311 309.642L168.625 305.096L170.354 300.731Z" fill="#763E1A"/>
<path d="M188.516 313.213L194.7 315.392L196.392 321.8L191.005 321.5L187.29 321.341L190.282 316.229L188.516 313.213Z" fill="#F5841F"/>
<path d="M176.736 312.559L174.647 315.36L177.054 320.772L173.347 320.519L167.969 320.22L170.349 314.04L176.736 312.559Z" fill="#F5841F"/>
<path d="M187.047 305.139L185.025 309.789L184.295 316.183L184.041 318.186L183.744 323.322L180.359 323.134L180.633 318.006L180.602 315.976L180.585 309.543L179.091 304.697L187.047 305.139Z" fill="#F5841F"/>
</g>
<g clip-path="url(#clip6_162_798)">
<path d="M210.406 316.235C210.542 313.788 211.27 311.565 212.59 309.563C213.91 307.561 215.638 306.016 217.773 304.925C219.908 303.835 222.199 303.358 224.646 303.494C227.092 303.63 229.316 304.358 231.317 305.678C233.319 306.998 234.865 308.726 235.955 310.861C237.045 312.997 237.522 315.287 237.386 317.734C237.25 320.18 236.522 322.404 235.202 324.405C233.882 326.407 232.155 327.953 230.019 329.043C227.884 330.133 225.593 330.61 223.147 330.474C220.7 330.338 218.476 329.611 216.475 328.29C214.473 326.97 212.927 325.243 211.837 323.107C210.747 320.972 210.27 318.681 210.406 316.235ZM212.645 316.359C212.489 319.165 213.296 321.691 215.066 323.936C216.023 322.293 217.48 320.759 219.435 319.334C221.391 317.909 223.27 317.049 225.073 316.752C224.838 316.107 224.609 315.526 224.385 315.009C221.236 315.826 217.863 316.135 214.265 315.935C213.564 315.896 213.043 315.858 212.702 315.821C212.698 315.893 212.689 315.983 212.674 316.09C212.659 316.197 212.649 316.287 212.645 316.359ZM213.15 313.6C213.544 313.658 214.128 313.708 214.901 313.751C217.905 313.918 220.778 313.672 223.521 313.012C222.289 310.508 220.9 308.401 219.353 306.691C217.892 307.332 216.618 308.262 215.531 309.483C214.443 310.703 213.65 312.076 213.15 313.6ZM216.523 325.478C218.467 327.174 220.717 328.093 223.271 328.235C224.602 328.309 225.938 328.131 227.279 327.7C227.09 324.604 226.554 321.588 225.671 318.652C223.996 318.92 222.277 319.736 220.514 321.099C218.752 322.463 217.421 323.923 216.523 325.478ZM221.748 305.958C223.24 307.683 224.593 309.806 225.806 312.327C228.309 311.438 230.225 310.236 231.554 308.722C229.563 306.879 227.219 305.883 224.521 305.733C223.604 305.682 222.679 305.757 221.748 305.958ZM226.671 314.297C226.908 314.887 227.174 315.633 227.466 316.533C228.804 316.481 230.256 316.499 231.821 316.585C232.936 316.647 234.041 316.736 235.135 316.851C235.127 314.397 234.366 312.171 232.854 310.175C231.587 311.854 229.526 313.228 226.671 314.297ZM228.036 318.459C228.805 321.172 229.274 323.941 229.442 326.765C230.914 325.926 232.14 324.813 233.119 323.424C234.098 322.035 234.724 320.509 234.997 318.846C233.689 318.683 232.495 318.572 231.416 318.512C230.427 318.457 229.3 318.439 228.036 318.459Z" fill="url(#paint3_linear_162_798)"/>
</g>
<g clip-path="url(#clip7_162_798)">
<path d="M279.738 306.555L266.881 315.006L269.477 309.749L279.738 306.555Z" fill="#E17726"/>
<path d="M252.321 305.042L262.139 309.342L264.016 314.918L252.321 305.042Z" fill="#E27625"/>
<path d="M273.69 325.711L279.142 326.118L276.874 332.492L270.316 330.289L273.69 325.711Z" fill="#E27625"/>
<path d="M256.183 324.739L259.017 329.661L252.266 331.125L250.731 324.54L256.183 324.739Z" fill="#E27625"/>
<path d="M263.797 313.512L263.62 320.729L256.962 320.054L259.02 317.296L259.045 317.269L263.797 313.512Z" fill="#E27625"/>
<path d="M267.301 313.626L271.672 317.971L271.694 318L273.433 320.969L266.744 320.902L267.301 313.626Z" fill="#E27625"/>
<path d="M259.476 324.942L262.962 327.984L258.615 329.793L259.476 324.942Z" fill="#E27625"/>
<path d="M270.395 325.549L270.7 330.465L266.592 328.186L270.395 325.549Z" fill="#E27625"/>
<path d="M266.701 327.924L270.87 330.236L266.78 331.908L266.891 330.659L266.701 327.924Z" fill="#D5BFB2"/>
<path d="M262.881 327.712L262.405 330.389L262.361 331.662L258.472 329.547L262.881 327.712Z" fill="#D5BFB2"/>
<path d="M261.982 321.581L262.971 323.996L259.221 322.667L261.982 321.581Z" fill="#233447"/>
<path d="M268.275 321.931L270.911 323.317L267.026 324.221L268.275 321.931Z" fill="#233447"/>
<path d="M259.768 324.935L258.87 329.964L255.843 324.828L259.768 324.935Z" fill="#CC6228"/>
<path d="M270.104 325.509L274.017 325.837L270.427 330.606L270.104 325.509Z" fill="#CC6228"/>
<path d="M273.546 320.688L270.533 323.436L268.39 322.309L267.214 324.464L266.736 320.62L273.546 320.688Z" fill="#CC6228"/>
<path d="M256.881 319.762L263.658 320.449L262.756 324.216L261.826 321.945L259.584 322.828L256.881 319.762Z" fill="#CC6228"/>
<path d="M256.722 319.155L259.766 322.608L259.698 325.847L256.722 319.155Z" fill="#E27525"/>
<path d="M273.776 320.097L270.07 326.429L270.375 323.198L273.776 320.097Z" fill="#E27525"/>
<path d="M263.54 319.734L263.624 320.559L263.832 322.612L263.278 328.854L262.582 323.777L262.585 323.725L263.54 319.734Z" fill="#E27525"/>
<path d="M266.931 319.911L267.44 323.995L267.437 324.047L266.179 329.028L266.21 327.766L266.338 322.715L266.931 319.911Z" fill="#E27525"/>
<path d="M270.669 323.084L270.404 325.886L266.853 328.348L266.192 327.824L267.184 323.894L270.669 323.084Z" fill="#F5841F"/>
<path d="M259.486 322.462L262.848 323.654L263.399 327.669L262.684 328.117L259.427 325.276L259.486 322.462Z" fill="#F5841F"/>
<path d="M257.856 328.891L262.096 331.196L262.127 330.314L262.509 330.014L266.818 330.254L267.178 330.594L267.101 331.472L271.542 329.657L269.34 331.279L266.697 332.886L262.328 332.644L259.881 330.747L257.856 328.891Z" fill="#C0AC9D"/>
<path d="M266.403 327.632L266.995 328.101L267.196 330.999L266.698 330.529L262.598 330.302L262.061 330.723L262.57 327.855L263.21 327.454L266.403 327.632Z" fill="#161616"/>
<path d="M278.909 306.762L280.144 311.292L278.969 315.737L279.6 316.282L278.67 316.913L279.312 317.468L278.379 318.227L278.902 318.652L277.362 320.261L271.525 318.204L271.476 318.173L267.401 314.33L278.909 306.762Z" fill="#763E1A"/>
<path d="M253.095 305.328L263.694 314.124L259.218 317.492L259.165 317.517L253.137 318.915L251.785 317.145L252.351 316.781L251.509 315.923L252.207 315.443L251.339 314.71L252.052 314.239L251.365 309.693L253.095 305.328Z" fill="#763E1A"/>
<path d="M271.256 317.81L277.44 319.989L279.133 326.397L273.745 326.097L270.03 325.938L273.022 320.826L271.256 317.81Z" fill="#F5841F"/>
<path d="M259.477 317.156L257.387 319.957L259.795 325.369L256.087 325.116L250.709 324.817L253.089 318.636L259.477 317.156Z" fill="#F5841F"/>
<path d="M269.787 309.736L267.765 314.386L267.035 320.78L266.781 322.783L266.484 327.919L263.099 327.731L263.373 322.603L263.342 320.573L263.325 314.14L261.831 309.294L269.787 309.736Z" fill="#F5841F"/>
</g>
<rect x="126.199" y="348.205" width="133.985" height="43.9109" rx="12.9481" transform="rotate(3.18 126.199 348.205)" stroke="url(#paint4_linear_162_798)" stroke-width="1.12592"/>
<path d="M166.064 379.109C162.712 378.922 160.368 376.219 160.562 372.725C160.756 369.231 163.368 366.819 166.736 367.006C169.207 367.143 170.954 368.661 171.462 370.331L169.652 371.083C169.233 369.812 168.163 368.885 166.637 368.8C164.355 368.673 162.685 370.317 162.545 372.835C162.404 375.369 163.882 377.188 166.164 377.314C167.69 377.399 168.856 376.596 169.413 375.379L171.128 376.327C170.439 377.931 168.535 379.246 166.064 379.109ZM176.293 379.677C173.806 379.539 171.943 377.557 172.086 374.991C172.228 372.426 174.283 370.677 176.785 370.816C179.272 370.954 181.136 372.921 180.994 375.486C180.851 378.052 178.764 379.814 176.293 379.677ZM176.39 377.93C177.822 378.01 178.939 376.951 179.025 375.393C179.112 373.834 178.12 372.643 176.688 372.563C175.24 372.483 174.139 373.558 174.052 375.116C173.965 376.674 174.942 377.85 176.39 377.93ZM186.765 371.371C188.654 371.475 189.887 372.854 189.784 374.712L189.478 380.22L187.59 380.115L187.869 375.079C187.933 373.93 187.25 373.15 186.18 373.09C185.094 373.03 184.329 373.73 184.265 374.879L183.985 379.915L182.097 379.81L182.568 371.327L184.347 371.426L184.29 372.449C184.806 371.688 185.711 371.312 186.765 371.371ZM195.818 371.874C197.707 371.978 198.94 373.357 198.837 375.214L198.531 380.723L196.642 380.618L196.922 375.582C196.986 374.433 196.303 373.653 195.233 373.593C194.147 373.533 193.382 374.233 193.318 375.381L193.038 380.418L191.15 380.313L191.621 371.83L193.399 371.929L193.343 372.952C193.858 372.191 194.763 371.815 195.818 371.874ZM208.277 376.702C208.261 377.001 208.212 377.298 208.136 377.547L201.903 377.2C201.922 378.559 202.866 379.48 204.172 379.552C205.179 379.608 205.883 379.158 206.299 378.487L207.816 379.329C207.229 380.512 205.795 381.316 204.064 381.22C201.498 381.077 199.828 379.027 199.966 376.54C200.108 373.991 202.022 372.218 204.414 372.351C206.807 372.484 208.402 374.451 208.277 376.702ZM202.016 375.738L206.281 375.975C206.281 374.839 205.413 373.985 204.327 373.925C203.225 373.864 202.305 374.507 202.016 375.738ZM213.101 381.722C210.615 381.584 208.848 379.575 208.988 377.041C209.129 374.508 211.091 372.722 213.594 372.861C215.388 372.961 216.811 374.05 217.251 375.511L215.569 376.239C215.289 375.308 214.52 374.665 213.497 374.608C212.112 374.531 211.042 375.593 210.955 377.166C210.869 378.709 211.813 379.898 213.198 379.975C214.237 380.033 215.056 379.494 215.439 378.584L217.029 379.509C216.448 380.866 214.911 381.823 213.101 381.722ZM221.927 382.118C220.023 382.012 219.012 380.882 219.116 379.009L219.335 375.075L217.793 374.989L217.887 373.289L218.139 373.303C218.957 373.349 219.455 372.918 219.5 372.1L219.575 370.746L221.464 370.851L221.318 373.48L223.333 373.592L223.238 375.291L221.224 375.179L221.005 379.114C220.965 379.838 221.226 380.531 222.422 380.598C222.58 380.607 222.785 380.602 222.991 380.582L222.908 382.093C222.606 382.124 222.226 382.134 221.927 382.118Z" fill="#187BEB"/>
<rect x="270.095" y="356.2" width="133.985" height="43.9109" rx="12.9481" transform="rotate(3.18 270.095 356.2)" stroke="url(#paint5_linear_162_798)" stroke-width="1.12592"/>
<path d="M321 387.527L321.651 375.802L323.635 375.912L323.342 381.169L328.568 381.459L328.86 376.202L330.859 376.313L330.207 388.039L328.208 387.928L328.471 383.206L323.245 382.916L322.983 387.637L321 387.527ZM332.641 378.544L332.759 376.419L334.647 376.524L334.529 378.649L332.641 378.544ZM332.107 388.144L332.579 379.661L334.467 379.766L333.996 388.249L332.107 388.144ZM340.304 379.996L341.091 380.039L340.997 381.739L339.974 381.682C338.809 381.618 337.98 382.329 337.907 383.651L337.64 388.452L335.751 388.347L336.223 379.864L338.001 379.962L337.936 381.143C338.428 380.239 339.265 379.938 340.304 379.996ZM349.866 384.568C349.85 384.867 349.802 385.165 349.725 385.413L343.492 385.067C343.512 386.426 344.455 387.346 345.761 387.419C346.769 387.475 347.472 387.024 347.889 386.353L349.405 387.195C348.818 388.378 347.384 389.182 345.653 389.086C343.087 388.944 341.417 386.893 341.556 384.407C341.697 381.857 343.611 380.085 346.003 380.218C348.396 380.35 349.991 382.318 349.866 384.568ZM343.605 383.605L347.87 383.842C347.87 382.705 347.002 381.852 345.916 381.791C344.814 381.73 343.895 382.374 343.605 383.605Z" fill="#187BEB"/>
</g>
<g filter="url(#filter2_bd_162_798)">
<rect x="54.9893" y="93.8082" width="306.251" height="385.902" rx="18.0147" fill="white" shape-rendering="crispEdges"/>
<rect x="55.4893" y="94.3082" width="305.251" height="384.902" rx="17.5147" stroke="white" shape-rendering="crispEdges"/>
<rect x="68.5" y="107.319" width="279.229" height="185.777" rx="13.5111" fill="#D9D9D9"/>
<path d="M75.9581 326.824C72.121 326.824 69.2746 323.887 69.2746 319.888C69.2746 315.889 72.1029 312.97 75.9581 312.97C78.7864 312.97 80.8761 314.592 81.5607 316.465L79.543 317.438C78.9846 316.015 77.7055 315.024 75.9581 315.024C73.346 315.024 71.5445 317.006 71.5445 319.888C71.5445 322.788 73.346 324.77 75.9581 324.77C77.7055 324.77 78.9846 323.779 79.543 322.356L81.5607 323.329C80.8761 325.202 78.7864 326.824 75.9581 326.824ZM83.2846 326.607V313.186H85.4464V326.607H83.2846ZM96.4777 321.401C96.4777 321.743 96.4417 322.086 96.3697 322.374H89.2358C89.3439 323.923 90.4788 324.914 91.9741 324.914C93.127 324.914 93.9016 324.356 94.334 323.563L96.1174 324.428C95.523 325.815 93.9377 326.824 91.956 326.824C89.0196 326.824 86.984 324.59 86.984 321.743C86.984 318.825 89.0557 316.681 91.7939 316.681C94.5321 316.681 96.4777 318.825 96.4777 321.401ZM89.2718 320.699H94.1538C94.0818 319.402 93.0369 318.483 91.7939 318.483C90.5329 318.483 89.5241 319.275 89.2718 320.699ZM108.498 316.681C110.516 316.681 111.957 318.14 111.957 320.302V326.607H109.795V320.843C109.795 319.492 109.038 318.681 107.885 318.681C106.751 318.681 105.976 319.492 105.976 320.843V326.607H103.814V320.843C103.814 319.492 103.057 318.681 101.905 318.681C100.77 318.681 100.013 319.492 100.013 320.843V326.607H97.8512V316.897H99.8869V318.086C100.391 317.168 101.328 316.681 102.499 316.681C103.796 316.681 104.859 317.276 105.471 318.285C106.048 317.294 107.165 316.681 108.498 316.681ZM122.814 321.401C122.814 321.743 122.778 322.086 122.706 322.374H115.572C115.68 323.923 116.815 324.914 118.31 324.914C119.463 324.914 120.238 324.356 120.67 323.563L122.453 324.428C121.859 325.815 120.274 326.824 118.292 326.824C115.356 326.824 113.32 324.59 113.32 321.743C113.32 318.825 115.392 316.681 118.13 316.681C120.868 316.681 122.814 318.825 122.814 321.401ZM115.608 320.699H120.49C120.418 319.402 119.373 318.483 118.13 318.483C116.869 318.483 115.86 319.275 115.608 320.699ZM128.979 316.681C131.141 316.681 132.636 318.177 132.636 320.302V326.607H130.474V320.843C130.474 319.528 129.646 318.681 128.421 318.681C127.178 318.681 126.349 319.528 126.349 320.843V326.607H124.187V316.897H126.223V318.068C126.763 317.168 127.772 316.681 128.979 316.681ZM138.927 326.716C136.747 326.716 135.522 325.491 135.522 323.347V318.843H133.757V316.897H134.045C134.982 316.897 135.522 316.375 135.522 315.438V313.889H137.684V316.897H139.99V318.843H137.684V323.347C137.684 324.175 138.026 324.95 139.395 324.95C139.575 324.95 139.81 324.932 140.044 324.896V326.625C139.701 326.679 139.269 326.716 138.927 326.716ZM149.779 326.824C147.131 326.824 144.969 325.274 144.285 323.113L146.231 322.23C146.861 323.905 148.248 324.824 149.779 324.824C151.293 324.824 152.265 324.085 152.265 323.095C152.265 322.176 151.707 321.689 150.644 321.365L148.014 320.554C145.798 319.888 144.717 318.555 144.717 316.825C144.717 314.538 146.591 312.97 149.329 312.97C151.869 312.97 153.797 314.411 154.481 316.303L152.518 317.204C152.031 315.781 150.878 314.97 149.347 314.97C147.942 314.97 147.005 315.69 147.005 316.717C147.005 317.546 147.582 318.159 148.663 318.483L151.203 319.257C153.418 319.942 154.553 321.131 154.553 322.932C154.553 325.256 152.626 326.824 149.779 326.824ZM160.816 326.824C157.97 326.824 155.718 324.68 155.718 321.743C155.718 318.807 157.952 316.681 160.816 316.681C163.662 316.681 165.914 318.807 165.914 321.743C165.914 324.68 163.644 326.824 160.816 326.824ZM160.816 324.824C162.455 324.824 163.662 323.545 163.662 321.761C163.662 319.978 162.455 318.681 160.816 318.681C159.159 318.681 157.97 319.978 157.97 321.761C157.97 323.545 159.159 324.824 160.816 324.824ZM178.094 316.681C180.112 316.681 181.553 318.14 181.553 320.302V326.607H179.391V320.843C179.391 319.492 178.634 318.681 177.481 318.681C176.347 318.681 175.572 319.492 175.572 320.843V326.607H173.41V320.843C173.41 319.492 172.654 318.681 171.501 318.681C170.366 318.681 169.609 319.492 169.609 320.843V326.607H167.447V316.897H169.483V318.086C169.987 317.168 170.924 316.681 172.095 316.681C173.392 316.681 174.455 317.276 175.067 318.285C175.644 317.294 176.761 316.681 178.094 316.681ZM187.384 316.681C189.744 316.681 191.365 318.104 191.365 320.122V326.607H189.329V325.527C188.609 326.391 187.618 326.824 186.447 326.824C184.285 326.824 182.916 325.599 182.916 323.941C182.916 322.5 184.051 321.545 186.015 321.113L189.203 320.428V320.122C189.203 319.221 188.465 318.627 187.384 318.627C186.339 318.627 185.51 319.203 185.15 320.122L183.276 319.185C183.835 317.708 185.456 316.681 187.384 316.681ZM186.699 325.112C188.14 325.112 189.203 324.067 189.203 322.698V322.068L186.447 322.68C185.636 322.86 185.168 323.329 185.168 323.923C185.168 324.662 185.762 325.112 186.699 325.112ZM193.097 326.607V313.186H195.259V326.607H193.097ZM197.265 315.618V313.186H199.427V315.618H197.265ZM197.265 326.607V316.897H199.427V326.607H197.265ZM205.363 316.681C207.723 316.681 209.344 318.104 209.344 320.122V326.607H207.309V325.527C206.588 326.391 205.597 326.824 204.426 326.824C202.265 326.824 200.896 325.599 200.896 323.941C200.896 322.5 202.03 321.545 203.994 321.113L207.183 320.428V320.122C207.183 319.221 206.444 318.627 205.363 318.627C204.318 318.627 203.49 319.203 203.129 320.122L201.256 319.185C201.814 317.708 203.436 316.681 205.363 316.681ZM204.679 325.112C206.12 325.112 207.183 324.067 207.183 322.698V322.068L204.426 322.68C203.616 322.86 203.147 323.329 203.147 323.923C203.147 324.662 203.742 325.112 204.679 325.112Z" fill="#1D2939"/>
<path d="M79.1242 342.368H80.4798V354.111H78.9823V345.174L75.1519 350.612H75.0258L71.1955 345.11V354.111H69.698V342.368H71.0536L75.0889 348.121L79.1242 342.368ZM88.0608 345.757H89.4164V354.111H88.0923V353.15C87.6037 353.875 86.7052 354.3 85.6963 354.3C83.8836 354.3 82.5595 352.85 82.5595 351.069V345.757H83.9151V350.817C83.9151 352.141 84.7348 352.992 85.9958 352.992C87.2253 352.992 88.0608 352.125 88.0608 350.817V345.757ZM91.4914 354.111V342.368H92.847V354.111H91.4914ZM98.4235 354.206C96.7369 354.206 95.7911 353.244 95.7911 351.557V347.049H94.1675V345.757H94.5931C95.3182 345.757 95.7911 345.268 95.7911 344.527V343.046H97.1467V345.757H99.1644V347.049H97.1467V351.557C97.1467 352.093 97.2413 353.071 98.6757 353.071C98.8491 353.071 99.0856 353.055 99.259 353.023V354.127C98.991 354.19 98.66 354.206 98.4235 354.206ZM100.74 344.212V342.368H102.096V344.212H100.74ZM100.74 354.111V345.757H102.096V354.111H100.74ZM104.384 350.517V349.225H110.216V350.517H104.384ZM119.342 342.368H120.697V354.111H119.373V352.897C118.758 353.796 117.639 354.3 116.378 354.3C113.998 354.3 112.154 352.456 112.154 349.934C112.154 347.412 114.014 345.568 116.362 345.568C117.623 345.568 118.743 346.104 119.342 346.986V342.368ZM116.457 352.992C118.112 352.992 119.342 351.699 119.342 349.934C119.342 348.184 118.112 346.876 116.457 346.876C114.802 346.876 113.588 348.184 113.588 349.934C113.588 351.699 114.802 352.992 116.457 352.992ZM122.645 344.212V342.368H124V344.212H122.645ZM122.645 354.111V345.757H124V354.111H122.645ZM128.874 354.3C127.234 354.3 125.894 353.433 125.358 352.015L126.509 351.447C126.935 352.503 127.833 353.055 128.874 353.055C129.851 353.055 130.513 352.551 130.513 351.857C130.513 351.258 130.008 350.927 129.236 350.706L127.865 350.328C126.462 349.934 125.737 349.13 125.737 347.995C125.737 346.545 126.903 345.568 128.637 345.568C130.182 345.568 131.411 346.371 131.9 347.68L130.765 348.232C130.418 347.333 129.63 346.813 128.637 346.813C127.739 346.813 127.14 347.254 127.14 347.916C127.14 348.484 127.612 348.862 128.338 349.083L129.756 349.508C131.159 349.918 131.916 350.738 131.916 351.857C131.916 353.307 130.67 354.3 128.874 354.3ZM137.097 354.3C134.701 354.3 132.92 352.424 132.92 349.918C132.92 347.412 134.701 345.568 137.097 345.568C138.736 345.568 140.123 346.529 140.643 347.774L139.43 348.405C139.02 347.491 138.184 346.876 137.097 346.876C135.52 346.876 134.354 348.168 134.354 349.934C134.354 351.668 135.52 352.992 137.097 352.992C138.184 352.992 139.02 352.377 139.43 351.463L140.643 352.093C140.123 353.323 138.72 354.3 137.097 354.3ZM141.964 344.212V342.368H143.319V344.212H141.964ZM141.964 354.111V345.757H143.319V354.111H141.964ZM149.595 345.568C151.944 345.568 153.82 347.38 153.82 349.918C153.82 352.456 151.944 354.3 149.564 354.3C148.334 354.3 147.247 353.796 146.632 352.96V357.264H145.276V345.757H146.6V347.034C147.168 346.119 148.303 345.568 149.595 345.568ZM149.516 352.992C151.171 352.992 152.385 351.699 152.385 349.934C152.385 348.168 151.156 346.876 149.516 346.876C147.861 346.876 146.632 348.168 146.632 349.934C146.632 351.699 147.846 352.992 149.516 352.992ZM155.42 354.111V342.368H156.776V354.111H155.42ZM158.727 344.212V342.368H160.083V344.212H158.727ZM158.727 354.111V345.757H160.083V354.111H158.727ZM165.775 345.568C167.588 345.568 168.897 346.86 168.897 348.61V354.111H167.541V349.051C167.541 347.727 166.737 346.876 165.476 346.876C164.231 346.876 163.395 347.743 163.395 349.051V354.111H162.04V345.757H163.364V346.718C163.852 345.993 164.751 345.568 165.775 345.568ZM174.03 345.568C175.937 345.568 177.277 346.75 177.277 348.452V354.111H175.953V352.945C175.385 353.78 174.392 354.3 173.32 354.3C171.539 354.3 170.341 353.26 170.341 351.794C170.341 350.564 171.334 349.713 173.021 349.335L175.921 348.689V348.452C175.921 347.491 175.133 346.86 174.03 346.86C173.021 346.86 172.233 347.396 171.87 348.216L170.656 347.585C171.129 346.45 172.485 345.568 174.03 345.568ZM173.399 353.086C174.865 353.086 175.921 351.983 175.921 350.517V349.792L173.336 350.391C172.39 350.596 171.775 351.116 171.775 351.794C171.775 352.582 172.406 353.086 173.399 353.086ZM182.612 345.662H183.29V346.955H182.407C181.209 346.955 180.405 347.743 180.405 349.13V354.111H179.049V345.757H180.358V346.797C180.799 346.025 181.603 345.662 182.612 345.662ZM190.64 345.741H192.217L188.355 355.151C187.929 356.208 187.33 357.532 185.376 357.532C184.997 357.532 184.587 357.484 184.272 357.358V356.144C184.43 356.192 184.808 356.239 185.139 356.239C186.369 356.239 186.684 355.482 186.936 354.899L187.299 354.032L183.957 345.741H185.502L188.071 352.204L190.64 345.741ZM199.429 345.568C201.336 345.568 202.676 346.75 202.676 348.452V354.111H201.352V352.945C200.784 353.78 199.791 354.3 198.719 354.3C196.938 354.3 195.74 353.26 195.74 351.794C195.74 350.564 196.733 349.713 198.42 349.335L201.32 348.689V348.452C201.32 347.491 200.532 346.86 199.429 346.86C198.42 346.86 197.632 347.396 197.269 348.216L196.055 347.585C196.528 346.45 197.884 345.568 199.429 345.568ZM198.798 353.086C200.264 353.086 201.32 351.983 201.32 350.517V349.792L198.735 350.391C197.789 350.596 197.175 351.116 197.175 351.794C197.175 352.582 197.805 353.086 198.798 353.086ZM208.011 345.662H208.689V346.955H207.806C206.608 346.955 205.804 347.743 205.804 349.13V354.111H204.449V345.757H205.757V346.797C206.198 346.025 207.002 345.662 208.011 345.662ZM213.705 354.206C212.019 354.206 211.073 353.244 211.073 351.557V347.049H209.449V345.757H209.875C210.6 345.757 211.073 345.268 211.073 344.527V343.046H212.428V345.757H214.446V347.049H212.428V351.557C212.428 352.093 212.523 353.071 213.957 353.071C214.131 353.071 214.367 353.055 214.541 353.023V354.127C214.273 354.19 213.942 354.206 213.705 354.206ZM216.022 344.212V342.368H217.377V344.212H216.022ZM216.022 354.111V345.757H217.377V354.111H216.022ZM222.25 354.3C220.611 354.3 219.271 353.433 218.735 352.015L219.886 351.447C220.311 352.503 221.21 353.055 222.25 353.055C223.228 353.055 223.89 352.551 223.89 351.857C223.89 351.258 223.385 350.927 222.613 350.706L221.241 350.328C219.839 349.934 219.113 349.13 219.113 347.995C219.113 346.545 220.28 345.568 222.014 345.568C223.559 345.568 224.788 346.371 225.277 347.68L224.142 348.232C223.795 347.333 223.007 346.813 222.014 346.813C221.115 346.813 220.516 347.254 220.516 347.916C220.516 348.484 220.989 348.862 221.714 349.083L223.133 349.508C224.536 349.918 225.292 350.738 225.292 351.857C225.292 353.307 224.047 354.3 222.25 354.3ZM230.269 354.206C228.582 354.206 227.636 353.244 227.636 351.557V347.049H226.013V345.757H226.438C227.163 345.757 227.636 345.268 227.636 344.527V343.046H228.992V345.757H231.009V347.049H228.992V351.557C228.992 352.093 229.086 353.071 230.521 353.071C230.694 353.071 230.931 353.055 231.104 353.023V354.127C230.836 354.19 230.505 354.206 230.269 354.206Z" fill="#667085"/>
<g clip-path="url(#clip8_162_798)">
<path d="M68.5 385.133C68.5 382.683 69.1035 380.422 70.3105 378.351C71.5175 376.279 73.1568 374.64 75.2285 373.433C77.3002 372.226 79.5611 371.622 82.0111 371.622C84.4611 371.622 86.7219 372.226 88.7936 373.433C90.8653 374.64 92.5046 376.279 93.7116 378.351C94.9186 380.422 95.5221 382.683 95.5221 385.133C95.5221 387.583 94.9186 389.844 93.7116 391.916C92.5046 393.987 90.8653 395.627 88.7936 396.834C86.7219 398.041 84.4611 398.644 82.0111 398.644C79.5611 398.644 77.3002 398.041 75.2285 396.834C73.1568 395.627 71.5175 393.987 70.3105 391.916C69.1035 389.844 68.5 387.583 68.5 385.133ZM70.7428 385.133C70.7428 387.943 71.6886 390.421 73.5802 392.564C74.4449 390.871 75.814 389.259 77.6875 387.727C79.5611 386.196 81.3895 385.232 83.173 384.836C82.9028 384.205 82.6416 383.638 82.3894 383.134C79.2908 384.124 75.9401 384.62 72.3371 384.62C71.6346 384.62 71.1121 384.611 70.7699 384.593C70.7699 384.665 70.7654 384.755 70.7563 384.863C70.7473 384.971 70.7428 385.061 70.7428 385.133ZM71.0941 382.35C71.4904 382.386 72.0759 382.404 72.8506 382.404C75.859 382.404 78.7144 381.999 81.4166 381.188C80.0475 378.756 78.5432 376.729 76.9039 375.108C75.4807 375.829 74.2602 376.828 73.2424 378.107C72.2245 379.386 71.5085 380.801 71.0941 382.35ZM75.1204 394.023C77.1561 395.609 79.453 396.401 82.0111 396.401C83.3441 396.401 84.6682 396.149 85.9833 395.645C85.623 392.564 84.9204 389.583 83.8756 386.7C82.2182 387.061 80.5474 387.971 78.863 389.43C77.1786 390.889 75.9311 392.42 75.1204 394.023ZM79.2548 374.243C80.8401 375.883 82.3083 377.927 83.6594 380.377C86.1094 379.35 87.9559 378.044 89.1989 376.459C87.1092 374.73 84.7133 373.865 82.0111 373.865C81.0923 373.865 80.1736 373.991 79.2548 374.243ZM84.6322 382.296C84.9024 382.872 85.2087 383.602 85.551 384.485C86.884 384.359 88.3342 384.296 89.9015 384.296C91.0184 384.296 92.1263 384.323 93.2252 384.377C93.0811 381.927 92.1984 379.747 90.5771 377.837C89.4061 379.585 87.4245 381.071 84.6322 382.296ZM86.2265 386.376C87.1453 389.042 87.7668 391.781 88.091 394.591C89.5142 393.672 90.6762 392.492 91.5769 391.051C92.4776 389.61 93.0181 388.052 93.1982 386.376C91.8831 386.286 90.6852 386.241 89.6043 386.241C88.6135 386.241 87.4875 386.286 86.2265 386.376Z" fill="#1D2939"/>
</g>
<g clip-path="url(#clip9_162_798)">
<path d="M137.187 371.622L124.819 380.773L127.119 375.38L137.187 371.622Z" fill="#E17726"/>
<path d="M109.729 371.633L119.771 375.381L121.954 380.845L109.729 371.633Z" fill="#E27625"/>
<path d="M121.658 379.453L121.881 386.668L115.196 386.364L117.098 383.496L117.122 383.468L121.658 379.453Z" fill="#E27625"/>
<path d="M125.162 379.373L129.767 383.468L129.79 383.496L131.692 386.364L125.009 386.668L125.162 379.373Z" fill="#E27625"/>
<path d="M120.293 387.61L121.414 389.966L117.597 388.848L120.293 387.61Z" fill="#233447"/>
<path d="M126.596 387.61L129.304 388.848L125.475 389.966L126.596 387.61Z" fill="#233447"/>
<path d="M131.789 386.078L128.933 388.988L126.731 387.982L125.676 390.198L124.985 386.387L131.789 386.078Z" fill="#CC6228"/>
<path d="M115.099 386.077L121.903 386.387L121.212 390.198L120.157 387.982L117.967 388.988L115.099 386.077Z" fill="#CC6228"/>
<path d="M114.906 385.48L118.137 388.759L118.249 391.996L114.906 385.48Z" fill="#E27525"/>
<path d="M131.986 385.474L128.637 392.002L128.763 388.759L131.986 385.474Z" fill="#E27525"/>
<path d="M121.745 385.68L121.875 386.498L122.196 388.538L121.99 394.801L121.013 389.769L121.013 389.717L121.745 385.68Z" fill="#E27525"/>
<path d="M125.142 385.669L125.876 389.717L125.876 389.769L124.897 394.813L124.858 393.552L124.705 388.5L125.142 385.669Z" fill="#E27525"/>
<path d="M136.371 371.875L137.856 376.329L136.929 380.833L137.589 381.342L136.696 382.023L137.367 382.542L136.478 383.352L137.024 383.747L135.575 385.439L129.634 383.709L129.582 383.681L125.301 380.069L136.371 371.875Z" fill="#763E1A"/>
<path d="M110.517 371.875L121.588 380.069L117.306 383.681L117.255 383.709L111.313 385.439L109.864 383.747L110.41 383.352L109.521 382.542L110.191 382.024L109.285 381.34L109.97 380.831L109.032 376.329L110.517 371.875Z" fill="#763E1A"/>
<path d="M129.343 383.331L135.639 385.163L137.684 391.467L132.288 391.467L128.57 391.514L131.274 386.244L129.343 383.331Z" fill="#F5841F"/>
<path d="M117.545 383.331L115.614 386.244L118.318 391.514L114.602 391.467H109.216L111.25 385.163L117.545 383.331Z" fill="#F5841F"/>
<path d="M127.428 375.35L125.667 380.106L125.293 386.531L125.15 388.544L125.139 393.688H121.749L121.738 388.554L121.594 386.529L121.221 380.106L119.46 375.35H127.428Z" fill="#F5841F"/>
</g>
<g clip-path="url(#clip10_162_798)">
<path d="M151.368 385.133C151.368 382.683 151.972 380.422 153.179 378.351C154.386 376.279 156.025 374.64 158.097 373.433C160.168 372.226 162.429 371.622 164.879 371.622C167.329 371.622 169.59 372.226 171.662 373.433C173.733 374.64 175.373 376.279 176.58 378.351C177.787 380.422 178.39 382.683 178.39 385.133C178.39 387.583 177.787 389.844 176.58 391.916C175.373 393.987 173.733 395.627 171.662 396.834C169.59 398.041 167.329 398.644 164.879 398.644C162.429 398.644 160.168 398.041 158.097 396.834C156.025 395.627 154.386 393.987 153.179 391.916C151.972 389.844 151.368 387.583 151.368 385.133ZM153.611 385.133C153.611 387.943 154.557 390.421 156.448 392.564C157.313 390.871 158.682 389.259 160.556 387.727C162.429 386.196 164.258 385.232 166.041 384.836C165.771 384.205 165.51 383.638 165.258 383.134C162.159 384.124 158.808 384.62 155.205 384.62C154.503 384.62 153.98 384.611 153.638 384.593C153.638 384.665 153.634 384.755 153.625 384.863C153.616 384.971 153.611 385.061 153.611 385.133ZM153.962 382.35C154.359 382.386 154.944 382.404 155.719 382.404C158.727 382.404 161.583 381.999 164.285 381.188C162.916 378.756 161.411 376.729 159.772 375.108C158.349 375.829 157.128 376.828 156.111 378.107C155.093 379.386 154.377 380.801 153.962 382.35ZM157.989 394.023C160.024 395.609 162.321 396.401 164.879 396.401C166.212 396.401 167.536 396.149 168.851 395.645C168.491 392.564 167.789 389.583 166.744 386.7C165.086 387.061 163.416 387.971 161.731 389.43C160.047 390.889 158.799 392.42 157.989 394.023ZM162.123 374.243C163.708 375.883 165.176 377.927 166.528 380.377C168.978 379.35 170.824 378.044 172.067 376.459C169.977 374.73 167.581 373.865 164.879 373.865C163.96 373.865 163.042 373.991 162.123 374.243ZM167.5 382.296C167.771 382.872 168.077 383.602 168.419 384.485C169.752 384.359 171.202 384.296 172.77 384.296C173.887 384.296 174.995 384.323 176.093 384.377C175.949 381.927 175.067 379.747 173.445 377.837C172.274 379.585 170.293 381.071 167.5 382.296ZM169.095 386.376C170.013 389.042 170.635 391.781 170.959 394.591C172.382 393.672 173.544 392.492 174.445 391.051C175.346 389.61 175.886 388.052 176.066 386.376C174.751 386.286 173.553 386.241 172.472 386.241C171.482 386.241 170.356 386.286 169.095 386.376Z" fill="url(#paint6_linear_162_798)"/>
</g>
<g clip-path="url(#clip11_162_798)">
<path d="M220.056 371.622L207.688 380.774L209.988 375.38L220.056 371.622Z" fill="#E17726"/>
<path d="M192.599 371.633L202.64 375.381L204.824 380.845L192.599 371.633Z" fill="#E27625"/>
<path d="M204.527 379.453L204.75 386.668L198.065 386.364L199.967 383.496L199.991 383.468L204.527 379.453Z" fill="#E27625"/>
<path d="M208.031 379.373L212.636 383.468L212.66 383.496L214.561 386.364L207.878 386.668L208.031 379.373Z" fill="#E27625"/>
<path d="M203.162 387.61L204.283 389.966L200.466 388.848L203.162 387.61Z" fill="#233447"/>
<path d="M209.465 387.61L212.173 388.848L208.344 389.966L209.465 387.61Z" fill="#233447"/>
<path d="M214.658 386.078L211.802 388.988L209.6 387.982L208.546 390.198L207.854 386.387L214.658 386.078Z" fill="#CC6228"/>
<path d="M197.968 386.077L204.772 386.387L204.081 390.198L203.027 387.982L200.836 388.988L197.968 386.077Z" fill="#CC6228"/>
<path d="M197.775 385.48L201.007 388.759L201.119 391.996L197.775 385.48Z" fill="#E27525"/>
<path d="M214.855 385.474L211.506 392.002L211.632 388.759L214.855 385.474Z" fill="#E27525"/>
<path d="M204.614 385.68L204.744 386.498L205.065 388.538L204.859 394.801L203.882 389.769L203.882 389.717L204.614 385.68Z" fill="#E27525"/>
<path d="M208.011 385.669L208.745 389.717L208.745 389.769L207.766 394.813L207.727 393.552L207.574 388.5L208.011 385.669Z" fill="#E27525"/>
<path d="M219.241 371.875L220.725 376.329L219.798 380.833L220.458 381.342L219.565 382.024L220.236 382.542L219.347 383.352L219.893 383.747L218.444 385.439L212.503 383.709L212.451 383.681L208.17 380.07L219.241 371.875Z" fill="#763E1A"/>
<path d="M193.386 371.875L204.457 380.07L200.175 383.681L200.124 383.709L194.182 385.439L192.734 383.747L193.279 383.352L192.39 382.542L193.06 382.024L192.154 381.341L192.839 380.831L191.901 376.329L193.386 371.875Z" fill="#763E1A"/>
<path d="M212.212 383.331L218.507 385.163L220.552 391.467L215.156 391.467L211.438 391.514L214.142 386.244L212.212 383.331Z" fill="#F5841F"/>
<path d="M200.414 383.331L198.483 386.244L201.187 391.514L197.471 391.467H192.085L194.119 385.164L200.414 383.331Z" fill="#F5841F"/>
<path d="M210.297 375.35L208.536 380.106L208.163 386.531L208.02 388.544L208.008 393.688H204.618L204.607 388.554L204.464 386.529L204.09 380.106L202.329 375.35H210.297Z" fill="#F5841F"/>
</g>
</g>
<defs>
<filter id="filter0_b_162_798" x="-40" y="11.9974" width="407.219" height="482.322" filterUnits="userSpaceOnUse" color-interpolation-filters="sRGB">
<feFlood flood-opacity="0" result="BackgroundImageFix"/>
<feGaussianBlur in="BackgroundImageFix" stdDeviation="20"/>
<feComposite in2="SourceAlpha" operator="in" result="effect1_backgroundBlur_162_798"/>
<feBlend mode="normal" in="SourceGraphic" in2="effect1_backgroundBlur_162_798" result="shape"/>
</filter>
<filter id="filter1_bd_162_798" x="68.9297" y="-19.9883" width="407.187" height="482.297" filterUnits="userSpaceOnUse" color-interpolation-filters="sRGB">
<feFlood flood-opacity="0" result="BackgroundImageFix"/>
<feGaussianBlur in="BackgroundImageFix" stdDeviation="20"/>
<feComposite in2="SourceAlpha" operator="in" result="effect1_backgroundBlur_162_798"/>
<feColorMatrix in="SourceAlpha" type="matrix" values="0 0 0 0 0 0 0 0 0 0 0 0 0 0 0 0 0 0 127 0" result="hardAlpha"/>
<feOffset/>
<feGaussianBlur stdDeviation="10"/>
<feComposite in2="hardAlpha" operator="out"/>
<feColorMatrix type="matrix" values="0 0 0 0 0.0705882 0 0 0 0 0.0901961 0 0 0 0 0.137255 0 0 0 0.12 0"/>
<feBlend mode="normal" in2="effect1_backgroundBlur_162_798" result="effect2_dropShadow_162_798"/>
<feBlend mode="normal" in="SourceGraphic" in2="effect2_dropShadow_162_798" result="shape"/>
</filter>
<filter id="filter2_bd_162_798" x="14.9893" y="53.8082" width="386.251" height="465.902" filterUnits="userSpaceOnUse" color-interpolation-filters="sRGB">
<feFlood flood-opacity="0" result="BackgroundImageFix"/>
<feGaussianBlur in="BackgroundImageFix" stdDeviation="20"/>
<feComposite in2="SourceAlpha" operator="in" result="effect1_backgroundBlur_162_798"/>
<feColorMatrix in="SourceAlpha" type="matrix" values="0 0 0 0 0 0 0 0 0 0 0 0 0 0 0 0 0 0 127 0" result="hardAlpha"/>
<feOffset/>
<feGaussianBlur stdDeviation="12"/>
<feComposite in2="hardAlpha" operator="out"/>
<feColorMatrix type="matrix" values="0 0 0 0 0.0710667 0 0 0 0 0.0918401 0 0 0 0 0.136667 0 0 0 0.12 0"/>
<feBlend mode="normal" in2="effect1_backgroundBlur_162_798" result="effect2_dropShadow_162_798"/>
<feBlend mode="normal" in="SourceGraphic" in2="effect2_dropShadow_162_798" result="shape"/>
</filter>
<linearGradient id="paint0_linear_162_798" x1="125.411" y1="340.278" x2="132.873" y2="355.889" gradientUnits="userSpaceOnUse">
<stop stop-color="#938BEC"/>
<stop offset="0.505" stop-color="#F9C8FF"/>
<stop offset="1" stop-color="#FFBF7F"/>
</linearGradient>
<linearGradient id="paint1_linear_162_798" x1="31.3466" y1="429.827" x2="176.481" y2="412.278" gradientUnits="userSpaceOnUse">
<stop stop-color="#157BEB"/>
<stop offset="1" stop-color="#C790F3"/>
</linearGradient>
<linearGradient id="paint2_linear_162_798" x1="175.242" y1="421.82" x2="320.376" y2="404.271" gradientUnits="userSpaceOnUse">
<stop stop-color="#157BEB"/>
<stop offset="1" stop-color="#C790F3"/>
</linearGradient>
<linearGradient id="paint3_linear_162_798" x1="224.9" y1="303.508" x2="230.585" y2="319.85" gradientUnits="userSpaceOnUse">
<stop stop-color="#938BEC"/>
<stop offset="0.505" stop-color="#F9C8FF"/>
<stop offset="1" stop-color="#FFBF7F"/>
</linearGradient>
<linearGradient id="paint4_linear_162_798" x1="125.337" y1="382.328" x2="270.471" y2="364.779" gradientUnits="userSpaceOnUse">
<stop stop-color="#157BEB"/>
<stop offset="1" stop-color="#C790F3"/>
</linearGradient>
<linearGradient id="paint5_linear_162_798" x1="269.233" y1="390.322" x2="414.367" y2="372.773" gradientUnits="userSpaceOnUse">
<stop stop-color="#157BEB"/>
<stop offset="1" stop-color="#C790F3"/>
</linearGradient>
<linearGradient id="paint6_linear_162_798" x1="165.134" y1="371.622" x2="171.717" y2="387.624" gradientUnits="userSpaceOnUse">
<stop stop-color="#938BEC"/>
<stop offset="0.505" stop-color="#F9C8FF"/>
<stop offset="1" stop-color="#FFBF7F"/>
</linearGradient>
<clipPath id="clip0_162_798">
<rect width="27.0221" height="27.0221" fill="white" transform="translate(28.9258 345.647) rotate(-3.185)"/>
</clipPath>
<clipPath id="clip1_162_798">
<rect width="28.8236" height="27.0221" fill="white" transform="translate(69.3965 343.395) rotate(-3.185)"/>
</clipPath>
<clipPath id="clip2_162_798">
<rect width="27.0221" height="27.0221" fill="white" transform="translate(111.666 341.043) rotate(-3.185)"/>
</clipPath>
<clipPath id="clip3_162_798">
<rect width="28.8236" height="27.0221" fill="white" transform="translate(152.136 338.791) rotate(-3.185)"/>
</clipPath>
<clipPath id="clip4_162_798">
<rect width="27.0221" height="27.0221" fill="white" transform="translate(128.415 298.147) rotate(3.18)"/>
</clipPath>
<clipPath id="clip5_162_798">
<rect width="28.8236" height="27.0221" fill="white" transform="translate(168.886 300.396) rotate(3.18)"/>
</clipPath>
<clipPath id="clip6_162_798">
<rect width="27.0221" height="27.0221" fill="white" transform="translate(211.155 302.744) rotate(3.18)"/>
</clipPath>
<clipPath id="clip7_162_798">
<rect width="28.8236" height="27.0221" fill="white" transform="translate(251.626 304.993) rotate(3.18)"/>
</clipPath>
<clipPath id="clip8_162_798">
<rect width="27.0221" height="27.0221" fill="white" transform="translate(68.5 371.622)"/>
</clipPath>
<clipPath id="clip9_162_798">
<rect width="28.8236" height="27.0221" fill="white" transform="translate(109.033 371.622)"/>
</clipPath>
<clipPath id="clip10_162_798">
<rect width="27.0221" height="27.0221" fill="white" transform="translate(151.368 371.622)"/>
</clipPath>
<clipPath id="clip11_162_798">
<rect width="28.8236" height="27.0221" fill="white" transform="translate(191.901 371.622)"/>
</clipPath>
</defs>
</svg>
