<svg width="328" height="336" viewBox="0 0 328 336" fill="none" xmlns="http://www.w3.org/2000/svg">
<g filter="url(#filter0_b_162_799)">
<rect y="17.0127" width="306.251" height="385.902" rx="18.0147" transform="rotate(-3.185 0 17.0127)" fill="white"/>
<rect x="0.527008" y="17.4841" width="305.251" height="384.902" rx="17.5147" transform="rotate(-3.185 0.527008 17.4841)" stroke="white"/>
<rect x="14.2412" y="29.7522" width="279.229" height="185.777" rx="13.5111" transform="rotate(-3.185 14.2412 29.7522)" fill="#D9D9D9"/>
<path d="M33.8833 248.503C30.0521 248.716 27.047 245.943 26.8248 241.949C26.6026 237.956 29.2644 234.885 33.1136 234.671C35.9375 234.514 38.1141 236.017 38.9017 237.849L36.9412 238.933C36.3045 237.543 34.9724 236.625 33.2277 236.722C30.6196 236.867 28.931 238.945 29.0911 241.823C29.2523 244.719 31.1611 246.598 33.7692 246.453C35.5139 246.355 36.7359 245.295 37.2144 243.843L39.283 244.702C38.7036 246.611 36.7072 248.346 33.8833 248.503ZM41.1865 247.88L40.4408 234.48L42.5992 234.36L43.3449 247.76L41.1865 247.88ZM54.0699 241.949C54.089 242.291 54.072 242.634 54.0161 242.926L46.8933 243.323C47.0873 244.863 48.2755 245.79 49.7684 245.707C50.9196 245.643 51.662 245.042 52.0496 244.226L53.8784 244.991C53.3619 246.409 51.8351 247.504 49.8565 247.614C46.9246 247.777 44.768 245.66 44.6099 242.818C44.4477 239.904 46.3971 237.649 49.1311 237.497C51.8651 237.344 53.9268 239.377 54.0699 241.949ZM46.8361 241.648L51.7106 241.377C51.5666 240.085 50.4723 239.226 49.2312 239.295C47.9721 239.365 47.0089 240.213 46.8361 241.648ZM65.8093 236.569C67.8239 236.456 69.3439 237.833 69.464 239.992L69.8143 246.287L67.6559 246.407L67.3356 240.651C67.2605 239.302 66.46 238.535 65.3089 238.599C64.1757 238.662 63.4473 239.515 63.5224 240.864L63.8427 246.619L61.6842 246.74L61.3639 240.984C61.2889 239.635 60.4884 238.867 59.3372 238.931C58.204 238.994 57.4936 239.846 57.5687 241.195L57.889 246.951L55.7306 247.071L55.1911 237.376L57.2236 237.263L57.2897 238.45C57.7422 237.505 58.6505 236.967 59.8197 236.902C61.1148 236.83 62.209 237.364 62.8766 238.337C63.3971 237.316 64.4783 236.643 65.8093 236.569ZM80.3653 240.486C80.3843 240.827 80.3673 241.171 80.3114 241.463L73.1886 241.859C73.3826 243.4 74.5708 244.326 76.0637 244.243C77.2149 244.179 77.9573 243.579 78.3449 242.763L80.1737 243.528C79.6572 244.946 78.1304 246.041 76.1518 246.151C73.22 246.314 71.0633 244.197 70.9052 241.355C70.743 238.441 72.6924 236.185 75.4264 236.033C78.1604 235.881 80.2221 237.914 80.3653 240.486ZM73.1315 240.185L78.0059 239.913C77.8619 238.622 76.7676 237.763 75.5265 237.832C74.2674 237.902 73.3042 238.75 73.1315 240.185ZM86.2589 235.431C88.4173 235.31 89.9933 236.72 90.1114 238.843L90.4618 245.138L88.3033 245.258L87.983 239.502C87.91 238.189 87.0355 237.39 85.8124 237.458C84.5713 237.527 83.791 238.419 83.864 239.732L84.1843 245.487L82.0259 245.608L81.4864 235.913L83.5189 235.8L83.584 236.969C84.0735 236.039 85.0538 235.498 86.2589 235.431ZM96.7487 244.897C94.5723 245.018 93.2811 243.863 93.162 241.722L92.9118 237.225L91.1491 237.324L91.041 235.381L91.3288 235.365C92.2641 235.313 92.7747 234.761 92.7226 233.826L92.6365 232.279L94.795 232.159L94.9621 235.163L97.2644 235.035L97.3725 236.977L95.0702 237.105L95.3204 241.602C95.3665 242.43 95.7513 243.184 97.1183 243.108C97.2981 243.098 97.531 243.067 97.7628 243.018L97.8589 244.745C97.5201 244.818 97.0905 244.878 96.7487 244.897ZM107.591 244.402C104.946 244.549 102.702 243.122 101.898 241.002L103.792 240.012C104.515 241.65 105.951 242.49 107.479 242.405C108.99 242.321 109.921 241.529 109.866 240.54C109.815 239.623 109.23 239.168 108.151 238.903L105.48 238.24C103.23 237.698 102.077 236.427 101.981 234.7C101.854 232.416 103.637 230.747 106.371 230.595C108.907 230.453 110.912 231.785 111.701 233.636L109.79 234.644C109.225 233.25 108.029 232.505 106.5 232.59C105.097 232.668 104.202 233.44 104.259 234.465C104.305 235.292 104.915 235.872 106.012 236.136L108.591 236.768C110.842 237.328 112.041 238.452 112.141 240.251C112.27 242.571 110.433 244.243 107.591 244.402ZM118.61 243.788C115.768 243.946 113.401 241.931 113.238 238.999C113.075 236.067 115.187 233.821 118.047 233.662C120.889 233.504 123.255 235.501 123.418 238.433C123.581 241.365 121.434 243.631 118.61 243.788ZM118.499 241.792C120.136 241.701 121.27 240.357 121.171 238.576C121.072 236.795 119.795 235.567 118.158 235.658C116.503 235.75 115.388 237.111 115.487 238.892C115.586 240.673 116.844 241.884 118.499 241.792ZM135.298 232.702C137.312 232.59 138.832 233.967 138.953 236.125L139.303 242.42L137.144 242.54L136.824 236.785C136.749 235.436 135.949 234.668 134.797 234.732C133.664 234.795 132.936 235.648 133.011 236.997L133.331 242.753L131.173 242.873L130.852 237.117C130.777 235.768 129.977 235.001 128.826 235.065C127.693 235.128 126.982 235.979 127.057 237.328L127.378 243.084L125.219 243.204L124.68 233.509L126.712 233.396L126.778 234.583C127.231 233.638 128.139 233.1 129.308 233.035C130.603 232.963 131.698 233.498 132.365 234.471C132.886 233.449 133.967 232.776 135.298 232.702ZM144.573 232.186C146.929 232.054 148.627 233.385 148.739 235.4L149.1 241.875L147.067 241.988L147.007 240.909C146.336 241.813 145.371 242.299 144.201 242.364C142.043 242.484 140.608 241.337 140.516 239.683C140.436 238.244 141.516 237.227 143.452 236.686L146.598 235.826L146.581 235.52C146.531 234.621 145.761 234.068 144.681 234.128C143.638 234.186 142.843 234.808 142.534 235.745L140.611 234.914C141.087 233.408 142.649 232.293 144.573 232.186ZM144.358 240.642C145.797 240.561 146.8 239.459 146.724 238.092L146.689 237.463L143.971 238.227C143.172 238.452 142.73 238.946 142.763 239.539C142.804 240.277 143.423 240.694 144.358 240.642ZM150.829 241.779L150.084 228.379L152.242 228.259L152.988 241.659L150.829 241.779ZM154.38 230.575L154.245 228.147L156.403 228.027L156.539 230.455L154.38 230.575ZM154.991 241.547L154.451 231.852L156.61 231.732L157.149 241.427L154.991 241.547ZM162.525 231.187C164.881 231.056 166.579 232.386 166.691 234.401L167.052 240.876L165.019 240.989L164.959 239.91C164.288 240.814 163.322 241.3 162.153 241.365C159.995 241.485 158.56 240.338 158.468 238.684C158.388 237.245 159.468 236.228 161.404 235.688L164.55 234.827L164.533 234.521C164.483 233.622 163.712 233.069 162.633 233.129C161.59 233.187 160.794 233.809 160.486 234.746L158.563 233.915C159.039 232.409 160.6 231.294 162.525 231.187ZM162.31 239.643C163.749 239.563 164.752 238.46 164.676 237.093L164.641 236.464L161.923 237.228C161.124 237.453 160.682 237.947 160.715 238.541C160.756 239.278 161.375 239.695 162.31 239.643Z" fill="#1D2939"/>
<path d="M37.9085 263.847L39.262 263.772L39.9145 275.497L38.4193 275.58L37.9228 266.657L34.4005 272.299L34.2745 272.306L30.1444 267.026L30.6445 276.013L29.1493 276.096L28.4969 264.371L29.8504 264.296L34.1991 269.816L37.9085 263.847ZM47.0196 266.735L48.3731 266.659L48.8373 275.001L47.5152 275.074L47.4618 274.114C47.0142 274.865 46.1408 275.34 45.1335 275.396C43.3236 275.497 41.9209 274.123 41.822 272.344L41.5268 267.04L42.8804 266.965L43.1615 272.017C43.2351 273.339 44.1008 274.143 45.3598 274.073C46.5874 274.005 47.3734 273.093 47.3007 271.787L47.0196 266.735ZM50.9091 274.885L50.2567 263.16L51.6102 263.085L52.2626 274.81L50.9091 274.885ZM57.8358 274.595C56.1517 274.688 55.154 273.781 55.0603 272.097L54.8098 267.596L53.1887 267.686L53.1169 266.395L53.5419 266.372C54.2658 266.331 54.7109 265.817 54.6697 265.077L54.5874 263.598L55.9409 263.523L56.0915 266.23L58.1061 266.118L58.1779 267.408L56.1633 267.52L56.4138 272.022C56.4436 272.557 56.5923 273.527 58.0245 273.447C58.1977 273.438 58.4329 273.409 58.6042 273.368L58.6655 274.47C58.4015 274.547 58.0718 274.582 57.8358 274.595ZM59.5933 264.488L59.4909 262.646L60.8444 262.571L60.9469 264.412L59.5933 264.488ZM60.1433 274.372L59.6792 266.03L61.0327 265.955L61.4969 274.296L60.1433 274.372ZM63.5816 270.581L63.5098 269.29L69.3331 268.966L69.4049 270.257L63.5816 270.581ZM78.0638 261.613L79.4174 261.538L80.0698 273.263L78.7478 273.336L78.6804 272.124C78.1165 273.056 77.0271 273.621 75.768 273.692C73.3914 273.824 71.4476 272.085 71.3074 269.567C71.1673 267.049 72.922 265.104 75.267 264.973C76.5261 264.903 77.6733 265.376 78.3205 266.224L78.0638 261.613ZM75.774 272.381C77.4265 272.289 78.5823 270.93 78.4842 269.167C78.387 267.42 77.0867 266.182 75.4342 266.274C73.7816 266.366 72.6424 267.74 72.7397 269.487C72.8377 271.25 74.1214 272.473 75.774 272.381ZM81.4644 263.271L81.3619 261.429L82.7155 261.354L82.8179 263.195L81.4644 263.271ZM82.0144 273.155L81.5502 264.813L82.9037 264.738L83.3679 273.079L82.0144 273.155ZM88.244 272.997C86.6072 273.088 85.2212 272.297 84.6073 270.911L85.7247 270.28C86.2083 271.311 87.136 271.812 88.1748 271.754C89.1506 271.7 89.7836 271.159 89.745 270.467C89.7118 269.869 89.1897 269.566 88.4063 269.389L87.016 269.087C85.5934 268.772 84.8247 268.009 84.7617 266.876C84.6811 265.428 85.7915 264.388 87.5227 264.291C89.0651 264.205 90.3374 264.94 90.8979 266.219L89.7954 266.833C89.3993 265.955 88.5834 265.479 87.5919 265.535C86.6948 265.585 86.1213 266.059 86.158 266.72C86.1896 267.286 86.6827 267.638 87.419 267.818L88.8591 268.164C90.2826 268.495 91.0836 269.271 91.1458 270.389C91.2263 271.837 90.0382 272.897 88.244 272.997ZM96.4545 272.54C94.0622 272.674 92.1795 270.9 92.0403 268.397C91.901 265.895 93.577 263.954 95.9693 263.821C97.6061 263.73 99.0445 264.613 99.6331 265.828L98.4562 266.525C97.9962 265.635 97.1279 265.067 96.042 265.128C94.4681 265.215 93.3753 266.571 93.4734 268.333C93.5697 270.064 94.8079 271.322 96.3818 271.234C97.4677 271.174 98.2677 270.513 98.6261 269.578L99.873 270.14C99.422 271.396 98.0755 272.45 96.4545 272.54ZM100.753 262.197L100.651 260.356L102.004 260.281L102.107 262.122L100.753 262.197ZM101.303 272.081L100.839 263.74L102.193 263.664L102.657 272.006L101.303 272.081ZM108.448 263.127C110.794 262.996 112.767 264.702 112.908 267.236C113.049 269.77 111.279 271.716 108.902 271.848C107.675 271.916 106.561 271.473 105.9 270.673L106.139 274.97L104.786 275.045L104.147 263.556L105.469 263.482L105.54 264.757C106.055 263.813 107.158 263.199 108.448 263.127ZM108.782 270.544C110.435 270.452 111.575 269.094 111.477 267.331C111.379 265.569 110.079 264.346 108.442 264.438C106.79 264.529 105.634 265.888 105.732 267.651C105.83 269.414 107.114 270.637 108.782 270.544ZM114.739 271.334L114.087 259.608L115.44 259.533L116.093 271.258L114.739 271.334ZM117.491 261.266L117.388 259.425L118.742 259.349L118.844 261.191L117.491 261.266ZM118.041 271.15L117.577 262.808L118.93 262.733L119.394 271.074L118.041 271.15ZM124.604 262.228C126.414 262.127 127.792 263.345 127.889 265.092L128.195 270.585L126.841 270.66L126.56 265.608C126.486 264.286 125.636 263.481 124.377 263.551C123.134 263.62 122.348 264.532 122.421 265.838L122.702 270.89L121.348 270.966L120.884 262.624L122.206 262.551L122.26 263.511C122.707 262.76 123.581 262.285 124.604 262.228ZM132.845 261.769C134.749 261.663 136.153 262.769 136.247 264.469L136.562 270.119L135.24 270.193L135.175 269.028C134.655 269.894 133.692 270.468 132.622 270.528C130.844 270.627 129.59 269.655 129.508 268.191C129.44 266.963 130.384 266.058 132.047 265.587L134.907 264.78L134.894 264.544C134.841 263.584 134.019 262.999 132.917 263.06C131.91 263.116 131.152 263.695 130.836 264.533L129.589 263.971C129.998 262.812 131.303 261.855 132.845 261.769ZM132.633 269.312C134.097 269.23 135.09 268.07 135.009 266.606L134.968 265.882L132.421 266.624C131.488 266.881 130.903 267.434 130.94 268.111C130.984 268.898 131.642 269.367 132.633 269.312ZM141.419 261.387L142.096 261.349L142.168 262.64L141.287 262.689C140.09 262.755 139.332 263.587 139.409 264.972L139.685 269.945L138.332 270.021L137.868 261.679L139.174 261.607L139.232 262.645C139.63 261.85 140.412 261.443 141.419 261.387ZM149.44 261.02L151.014 260.932L147.681 270.542C147.314 271.621 146.79 272.976 144.838 273.084C144.461 273.105 144.049 273.081 143.727 272.973L143.659 271.761C143.819 271.799 144.2 271.825 144.53 271.807C145.758 271.739 146.031 270.966 146.25 270.369L146.564 269.484L142.767 261.391L144.309 261.305L147.234 267.615L149.44 261.02ZM158.205 260.358C160.109 260.252 161.513 261.358 161.607 263.058L161.922 268.708L160.6 268.782L160.535 267.617C160.015 268.483 159.052 269.057 157.982 269.117C156.204 269.216 154.95 268.243 154.868 266.78C154.8 265.552 155.744 264.647 157.407 264.176L160.267 263.369L160.254 263.133C160.201 262.173 159.379 261.587 158.277 261.649C157.27 261.705 156.512 262.284 156.196 263.122L154.949 262.56C155.358 261.401 156.663 260.444 158.205 260.358ZM157.993 267.9C159.457 267.819 160.45 266.659 160.369 265.195L160.328 264.471L157.781 265.213C156.848 265.47 156.263 266.023 156.3 266.7C156.344 267.487 157.002 267.956 157.993 267.9ZM166.779 259.976L167.456 259.938L167.528 261.229L166.647 261.278C165.45 261.344 164.692 262.176 164.769 263.561L165.045 268.534L163.692 268.609L163.228 260.268L164.534 260.195L164.592 261.234C164.99 260.438 165.772 260.032 166.779 259.976ZM172.939 268.19C171.255 268.283 170.258 267.376 170.164 265.692L169.913 261.191L168.292 261.281L168.22 259.99L168.645 259.967C169.369 259.926 169.814 259.412 169.773 258.672L169.691 257.193L171.044 257.118L171.195 259.825L173.21 259.713L173.281 261.003L171.267 261.115L171.517 265.616C171.547 266.152 171.696 267.122 173.128 267.042C173.301 267.033 173.536 267.004 173.708 266.963L173.769 268.065C173.505 268.142 173.175 268.176 172.939 268.19ZM174.697 258.083L174.594 256.241L175.948 256.166L176.05 258.007L174.697 258.083ZM175.247 267.967L174.783 259.625L176.136 259.55L176.6 267.891L175.247 267.967ZM181.476 267.809C179.84 267.9 178.454 267.109 177.84 265.723L178.957 265.092C179.441 266.123 180.369 266.624 181.407 266.566C182.383 266.512 183.016 265.971 182.978 265.279C182.944 264.681 182.422 264.378 181.639 264.201L180.248 263.899C178.826 263.584 178.057 262.821 177.994 261.688C177.914 260.24 179.024 259.2 180.755 259.103C182.298 259.017 183.57 259.752 184.13 261.031L183.028 261.645C182.632 260.767 181.816 260.291 180.824 260.347C179.927 260.397 179.354 260.871 179.391 261.532C179.422 262.098 179.915 262.45 180.651 262.63L182.092 262.976C183.515 263.307 184.316 264.083 184.378 265.201C184.459 266.649 183.271 267.709 181.476 267.809ZM189.477 267.269C187.793 267.363 186.795 266.456 186.702 264.772L186.451 260.27L184.83 260.361L184.758 259.07L185.183 259.046C185.907 259.006 186.352 258.492 186.311 257.752L186.229 256.273L187.582 256.197L187.733 258.904L189.747 258.792L189.819 260.083L187.805 260.195L188.055 264.696C188.085 265.231 188.234 266.202 189.666 266.122C189.839 266.113 190.074 266.084 190.246 266.043L190.307 267.144C190.043 267.222 189.713 267.256 189.477 267.269Z" fill="#667085"/>
<g clip-path="url(#clip0_162_799)">
<path d="M29.6765 307.137C29.5403 304.691 30.0173 302.4 31.1073 300.264C32.1973 298.129 33.7431 296.401 35.7445 295.081C37.7459 293.76 39.9697 293.032 42.416 292.896C44.8622 292.76 47.1531 293.237 49.2886 294.327C51.4242 295.417 53.1521 296.963 54.4723 298.964C55.7925 300.966 56.5207 303.189 56.6568 305.636C56.793 308.082 56.316 310.373 55.226 312.508C54.136 314.644 52.5902 316.372 50.5888 317.692C48.5874 319.012 46.3635 319.74 43.9173 319.876C41.4711 320.013 39.1802 319.536 37.0447 318.446C34.9091 317.356 33.1812 315.81 31.861 313.808C30.5408 311.807 29.8126 309.583 29.6765 307.137ZM31.9158 307.012C32.072 309.818 33.1539 312.239 35.1616 314.274C35.9309 312.536 37.2084 310.85 38.9939 309.217C40.7795 307.584 42.5516 306.52 44.3103 306.025C44.0055 305.41 43.7131 304.858 43.4333 304.369C40.3946 305.53 37.0765 306.211 33.4791 306.411C32.7777 306.45 32.2555 306.47 31.9128 306.471C31.9168 306.543 31.9173 306.633 31.9143 306.742C31.9113 306.85 31.9118 306.94 31.9158 307.012ZM32.1119 304.214C32.5096 304.228 33.0952 304.213 33.8687 304.17C36.8725 304.003 39.7009 303.44 42.3539 302.48C40.8518 300.128 39.2372 298.188 37.5104 296.66C36.1294 297.459 34.9664 298.525 34.0212 299.859C33.076 301.192 32.4396 302.644 32.1119 304.214ZM36.7806 315.646C38.9012 317.115 41.2386 317.779 43.7927 317.637C45.1237 317.563 46.4318 317.238 47.7168 316.661C47.1859 313.605 46.3188 310.667 45.1154 307.848C43.4806 308.299 41.8629 309.301 40.2621 310.851C38.6614 312.402 37.5009 314 36.7806 315.646ZM39.8096 295.666C41.4835 297.215 43.0631 299.175 44.5482 301.546C46.9374 300.385 48.7085 298.978 49.8615 297.326C47.6789 295.716 45.2386 294.985 42.5406 295.135C41.6232 295.187 40.7129 295.363 39.8096 295.666ZM45.6261 303.408C45.9279 303.968 46.2742 304.68 46.665 305.542C47.9891 305.342 49.4335 305.199 50.9984 305.112C52.1136 305.049 53.2213 305.015 54.3215 305.008C54.0414 302.57 53.039 300.442 51.3141 298.626C50.242 300.435 48.346 302.029 45.6261 303.408ZM47.4446 307.393C48.5101 310.004 49.2828 312.704 49.7627 315.492C51.1326 314.495 52.2272 313.253 53.0465 311.764C53.8658 310.275 54.3188 308.689 54.4056 307.006C53.0875 306.989 51.8889 307.011 50.8097 307.071C49.8204 307.126 48.6987 307.233 47.4446 307.393Z" fill="#1D2939"/>
</g>
<g clip-path="url(#clip1_162_799)">
<path d="M97.509 289.83L85.6686 299.655L87.6653 294.142L97.509 289.83Z" fill="#E17726"/>
<path d="M70.0928 291.367L80.3266 294.551L82.8107 299.885L70.0928 291.367Z" fill="#E27625"/>
<path d="M93.6212 309.539L99.0849 309.34L97.538 315.926L90.776 314.463L93.6212 309.539Z" fill="#E27625"/>
<path d="M76.1147 310.513L79.477 315.091L72.9302 317.295L70.6737 310.92L76.1147 310.513Z" fill="#E27625"/>
<path d="M82.4376 298.512L83.0616 305.704L76.3703 305.772L78.1094 302.802L78.1319 302.773L82.4376 298.512Z" fill="#E27625"/>
<path d="M85.932 298.237L90.7574 302.071L90.7827 302.097L92.8406 304.855L86.1847 305.53L85.932 298.237Z" fill="#E27625"/>
<path d="M79.4093 310.351L83.2118 312.988L79.0921 315.267L79.4093 310.351Z" fill="#E27625"/>
<path d="M90.3303 309.743L91.1789 314.595L86.8436 312.786L90.3303 309.743Z" fill="#E27625"/>
<path d="M86.9209 312.513L91.3202 314.349L87.4407 316.465L87.4125 315.211L86.9209 312.513Z" fill="#D5BFB2"/>
<path d="M83.1031 312.726L82.926 315.44L83.0235 316.709L78.924 315.039L83.1031 312.726Z" fill="#D5BFB2"/>
<path d="M81.5288 306.732L82.7792 309.023L78.9057 308.118L81.5288 306.732Z" fill="#233447"/>
<path d="M87.8223 306.382L90.5956 307.468L86.834 308.797L87.8223 306.382Z" fill="#233447"/>
<path d="M79.6994 310.311L79.365 315.409L75.7874 310.64L79.6994 310.311Z" fill="#CC6228"/>
<path d="M90.0361 309.736L93.9606 309.628L90.9217 314.766L90.0361 309.736Z" fill="#CC6228"/>
<path d="M92.9216 304.564L90.2318 307.628L87.9774 306.746L87.0479 309.017L86.1461 305.251L92.9216 304.564Z" fill="#CC6228"/>
<path d="M76.2568 305.491L83.0679 305.422L82.5896 309.265L81.4137 307.111L79.2826 308.238L76.2568 305.491Z" fill="#CC6228"/>
<path d="M76.0322 304.905L79.4406 307.999L79.7323 311.225L76.0322 304.905Z" fill="#E27525"/>
<path d="M93.0852 303.95L90.1039 310.654L90.0496 307.409L93.0852 303.95Z" fill="#E27525"/>
<path d="M82.8708 304.725L83.0461 305.535L83.4803 307.553L83.622 313.818L82.3672 308.848L82.364 308.797L82.8708 304.725Z" fill="#E27525"/>
<path d="M86.2623 304.524L87.2204 308.526L87.2229 308.578L86.5255 313.669L86.4167 312.411L85.9835 307.376L86.2623 304.524Z" fill="#E27525"/>
<path d="M90.3285 307.263L90.3755 310.077L87.1197 312.918L86.4047 312.47L86.9548 308.455L90.3285 307.263Z" fill="#F5841F"/>
<path d="M79.1465 307.885L82.6197 308.696L83.6119 312.626L82.951 313.15L79.3999 310.688L79.1465 307.885Z" fill="#F5841F"/>
<path d="M78.2373 314.455L82.7063 316.276L82.6388 315.396L82.9854 315.056L87.2948 314.816L87.69 315.114L87.7112 315.996L91.9234 313.699L89.9149 315.555L87.4664 317.446L83.0969 317.689L80.4551 316.075L78.2373 314.455Z" fill="#C0AC9D"/>
<path d="M86.5939 312.256L87.2337 312.656L87.7547 315.515L87.208 315.103L83.1075 315.331L82.6204 315.809L82.8087 312.903L83.4003 312.433L86.5939 312.256Z" fill="#161616"/>
<path d="M96.7088 290.129L98.4386 294.493L97.7631 299.041L98.4506 299.513L97.5964 300.243L98.2956 300.724L97.4529 301.582L98.0199 301.946L96.6675 303.716L90.6391 302.318L90.5861 302.294L86.1105 298.925L96.7088 290.129Z" fill="#763E1A"/>
<path d="M70.8935 291.565L82.4023 299.132L78.3281 302.976L78.2782 303.006L72.4419 305.063L70.9016 303.455L71.4242 303.03L70.4919 302.271L71.1323 301.716L70.189 301.084L70.8447 300.537L69.6586 296.095L70.8935 291.565Z" fill="#763E1A"/>
<path d="M90.3266 301.957L96.7141 303.437L99.1064 309.617L93.7189 309.917L90.0094 310.17L92.4162 304.758L90.3266 301.957Z" fill="#F5841F"/>
<path d="M78.5469 302.612L76.7806 305.628L79.7734 310.74L76.0605 310.9L70.6825 311.199L72.363 304.792L78.5469 302.612Z" fill="#F5841F"/>
<path d="M87.9723 294.095L86.4784 298.941L86.4623 305.377L86.4314 307.395L86.7059 312.532L83.3208 312.72L83.0245 307.595L82.7688 305.581L82.0387 299.188L80.0166 294.538L87.9723 294.095Z" fill="#F5841F"/>
</g>
<g clip-path="url(#clip2_162_799)">
<path d="M112.417 302.533C112.281 300.087 112.758 297.796 113.848 295.66C114.938 293.525 116.483 291.797 118.485 290.477C120.486 289.156 122.71 288.428 125.156 288.292C127.602 288.156 129.893 288.633 132.029 289.723C134.164 290.813 135.892 292.359 137.213 294.36C138.533 296.361 139.261 298.585 139.397 301.032C139.533 303.478 139.056 305.769 137.966 307.904C136.876 310.04 135.33 311.768 133.329 313.088C131.328 314.408 129.104 315.136 126.658 315.272C124.211 315.408 121.92 314.932 119.785 313.842C117.649 312.752 115.921 311.206 114.601 309.204C113.281 307.203 112.553 304.979 112.417 302.533ZM114.656 302.408C114.812 305.214 115.894 307.635 117.902 309.67C118.671 307.931 119.949 306.245 121.734 304.613C123.52 302.98 125.292 301.916 127.051 301.421C126.746 300.806 126.453 300.254 126.174 299.765C123.135 300.926 119.817 301.607 116.219 301.807C115.518 301.846 114.996 301.866 114.653 301.867C114.657 301.939 114.658 302.029 114.655 302.138C114.652 302.246 114.652 302.336 114.656 302.408ZM114.852 299.61C115.25 299.624 115.835 299.609 116.609 299.566C119.613 299.399 122.441 298.836 125.094 297.876C123.592 295.524 121.977 293.584 120.251 292.056C118.87 292.855 117.707 293.921 116.761 295.254C115.816 296.588 115.18 298.04 114.852 299.61ZM119.521 311.042C121.641 312.511 123.979 313.175 126.533 313.033C127.864 312.959 129.172 312.634 130.457 312.057C129.926 309.001 129.059 306.063 127.856 303.243C126.221 303.695 124.603 304.696 123.002 306.247C121.402 307.797 120.241 309.396 119.521 311.042ZM122.55 291.062C124.224 292.611 125.803 294.571 127.288 296.942C129.678 295.781 131.449 294.374 132.602 292.722C130.419 291.111 127.979 290.381 125.281 290.531C124.363 290.582 123.453 290.759 122.55 291.062ZM128.366 298.804C128.668 299.364 129.014 300.076 129.405 300.938C130.729 300.738 132.174 300.594 133.739 300.507C134.854 300.445 135.961 300.411 137.062 300.404C136.782 297.965 135.779 295.838 134.054 294.022C132.982 295.831 131.086 297.425 128.366 298.804ZM130.185 302.789C131.25 305.4 132.023 308.1 132.503 310.888C133.873 309.891 134.967 308.648 135.787 307.159C136.606 305.67 137.059 304.085 137.146 302.402C135.828 302.385 134.629 302.406 133.55 302.466C132.561 302.522 131.439 302.629 130.185 302.789Z" fill="url(#paint0_linear_162_799)"/>
</g>
<g clip-path="url(#clip3_162_799)">
<path d="M180.247 285.226L168.407 295.051L170.404 289.538L180.247 285.226Z" fill="#E17726"/>
<path d="M152.832 286.763L163.066 289.947L165.55 295.281L152.832 286.763Z" fill="#E27625"/>
<path d="M176.359 304.935L181.823 304.735L180.276 311.322L173.514 309.859L176.359 304.935Z" fill="#E27625"/>
<path d="M158.853 305.909L162.215 310.487L155.669 312.691L153.412 306.316L158.853 305.909Z" fill="#E27625"/>
<path d="M165.177 293.908L165.801 301.1L159.11 301.168L160.849 298.198L160.871 298.169L165.177 293.908Z" fill="#E27625"/>
<path d="M168.67 293.633L173.496 297.467L173.521 297.493L175.579 300.251L168.923 300.926L168.67 293.633Z" fill="#E27625"/>
<path d="M162.148 305.747L165.95 308.384L161.83 310.663L162.148 305.747Z" fill="#E27625"/>
<path d="M173.069 305.139L173.917 309.991L169.582 308.182L173.069 305.139Z" fill="#E27625"/>
<path d="M169.659 307.909L174.059 309.745L170.179 311.86L170.151 310.606L169.659 307.909Z" fill="#D5BFB2"/>
<path d="M165.841 308.122L165.664 310.836L165.762 312.105L161.662 310.435L165.841 308.122Z" fill="#D5BFB2"/>
<path d="M164.267 302.128L165.517 304.419L161.644 303.514L164.267 302.128Z" fill="#233447"/>
<path d="M170.561 301.778L173.334 302.864L169.572 304.193L170.561 301.778Z" fill="#233447"/>
<path d="M162.438 305.707L162.103 310.804L158.526 306.036L162.438 305.707Z" fill="#CC6228"/>
<path d="M172.775 305.132L176.7 305.024L173.661 310.161L172.775 305.132Z" fill="#CC6228"/>
<path d="M175.66 299.959L172.97 303.024L170.716 302.142L169.786 304.413L168.884 300.646L175.66 299.959Z" fill="#CC6228"/>
<path d="M158.996 300.887L165.807 300.818L165.329 304.661L164.153 302.507L162.022 303.634L158.996 300.887Z" fill="#CC6228"/>
<path d="M158.771 300.301L162.179 303.395L162.471 306.621L158.771 300.301Z" fill="#E27525"/>
<path d="M175.823 299.346L172.842 306.049L172.788 302.805L175.823 299.346Z" fill="#E27525"/>
<path d="M165.609 300.12L165.784 300.93L166.219 302.949L166.36 309.213L165.105 304.244L165.102 304.192L165.609 300.12Z" fill="#E27525"/>
<path d="M169.001 299.92L169.959 303.922L169.961 303.974L169.264 309.064L169.155 307.807L168.722 302.772L169.001 299.92Z" fill="#E27525"/>
<path d="M173.067 302.659L173.114 305.473L169.858 308.314L169.143 307.866L169.693 303.851L173.067 302.659Z" fill="#F5841F"/>
<path d="M161.885 303.281L165.358 304.092L166.35 308.021L165.689 308.546L162.138 306.083L161.885 303.281Z" fill="#F5841F"/>
<path d="M160.976 309.851L165.445 311.672L165.377 310.792L165.724 310.452L170.033 310.212L170.428 310.509L170.449 311.391L174.662 309.094L172.653 310.951L170.205 312.842L165.835 313.085L163.193 311.471L160.976 309.851Z" fill="#C0AC9D"/>
<path d="M169.332 307.652L169.972 308.052L170.493 310.911L169.946 310.499L165.846 310.727L165.359 311.205L165.547 308.299L166.139 307.829L169.332 307.652Z" fill="#161616"/>
<path d="M179.447 285.525L181.177 289.889L180.501 294.437L181.189 294.909L180.335 295.639L181.034 296.119L180.191 296.977L180.758 297.342L179.406 299.111L173.377 297.714L173.324 297.689L168.849 294.321L179.447 285.525Z" fill="#763E1A"/>
<path d="M153.633 286.961L165.142 294.527L161.067 298.371L161.017 298.402L155.181 300.459L153.641 298.851L154.164 298.426L153.231 297.666L153.872 297.112L152.928 296.48L153.584 295.933L152.398 291.491L153.633 286.961Z" fill="#763E1A"/>
<path d="M173.065 297.353L179.452 298.833L181.845 305.013L176.457 305.313L172.748 305.566L175.154 300.154L173.065 297.353Z" fill="#F5841F"/>
<path d="M161.285 298.008L159.519 301.024L162.512 306.136L158.799 306.295L153.421 306.595L155.101 300.188L161.285 298.008Z" fill="#F5841F"/>
<path d="M170.711 289.491L169.217 294.337L169.201 300.773L169.17 302.791L169.444 307.928L166.059 308.116L165.763 302.99L165.507 300.976L164.777 294.584L162.755 289.934L170.711 289.491Z" fill="#F5841F"/>
</g>
<rect x="32.2711" y="343.642" width="133.985" height="43.9109" rx="12.9481" transform="rotate(-3.185 32.2711 343.642)" stroke="url(#paint1_linear_162_799)" stroke-width="1.12592"/>
<rect x="176.167" y="335.634" width="133.985" height="43.9109" rx="12.9481" transform="rotate(-3.185 176.167 335.634)" stroke="url(#paint2_linear_162_799)" stroke-width="1.12592"/>
</g>
<defs>
<filter id="filter0_b_162_799" x="-40" y="-40.0026" width="407.219" height="482.322" filterUnits="userSpaceOnUse" color-interpolation-filters="sRGB">
<feFlood flood-opacity="0" result="BackgroundImageFix"/>
<feGaussianBlur in="BackgroundImageFix" stdDeviation="20"/>
<feComposite in2="SourceAlpha" operator="in" result="effect1_backgroundBlur_162_799"/>
<feBlend mode="normal" in="SourceGraphic" in2="effect1_backgroundBlur_162_799" result="shape"/>
</filter>
<linearGradient id="paint0_linear_162_799" x1="125.411" y1="288.278" x2="132.873" y2="303.889" gradientUnits="userSpaceOnUse">
<stop stop-color="#938BEC"/>
<stop offset="0.505" stop-color="#F9C8FF"/>
<stop offset="1" stop-color="#FFBF7F"/>
</linearGradient>
<linearGradient id="paint1_linear_162_799" x1="31.3466" y1="377.827" x2="176.481" y2="360.278" gradientUnits="userSpaceOnUse">
<stop stop-color="#157BEB"/>
<stop offset="1" stop-color="#C790F3"/>
</linearGradient>
<linearGradient id="paint2_linear_162_799" x1="175.242" y1="369.82" x2="320.376" y2="352.271" gradientUnits="userSpaceOnUse">
<stop stop-color="#157BEB"/>
<stop offset="1" stop-color="#C790F3"/>
</linearGradient>
<clipPath id="clip0_162_799">
<rect width="27.0221" height="27.0221" fill="white" transform="translate(28.9258 293.647) rotate(-3.185)"/>
</clipPath>
<clipPath id="clip1_162_799">
<rect width="28.8236" height="27.0221" fill="white" transform="translate(69.3965 291.395) rotate(-3.185)"/>
</clipPath>
<clipPath id="clip2_162_799">
<rect width="27.0221" height="27.0221" fill="white" transform="translate(111.666 289.043) rotate(-3.185)"/>
</clipPath>
<clipPath id="clip3_162_799">
<rect width="28.8236" height="27.0221" fill="white" transform="translate(152.136 286.791) rotate(-3.185)"/>
</clipPath>
</defs>
</svg>
