<svg width="374" height="217" viewBox="0 0 374 217" fill="none" xmlns="http://www.w3.org/2000/svg">
<g filter="url(#filter0_i_174_1027)">
<path d="M180.136 33.0123L106.182 65.8548C102.244 67.6036 99.7061 71.5079 99.7061 75.8167V156.769C99.7061 197.341 166.092 236.341 184.684 246.468C187.707 248.115 191.235 248.115 194.258 246.468C212.849 236.341 279.236 197.341 279.236 156.769V75.8167C279.236 71.5079 276.697 67.6036 272.759 65.8548L198.805 33.0123C195.847 31.6839 192.675 31 189.471 31C186.267 31 183.094 31.6839 180.136 33.0123Z" fill="#E5E6F0" fill-opacity="0.83"/>
</g>
<path d="M180.136 33.0123L106.182 65.8548C102.244 67.6036 99.7061 71.5079 99.7061 75.8167V156.769C99.7061 197.341 166.092 236.341 184.684 246.468C187.707 248.115 191.235 248.115 194.258 246.468C212.849 236.341 279.236 197.341 279.236 156.769V75.8167C279.236 71.5079 276.697 67.6036 272.759 65.8548L198.805 33.0123C195.847 31.6839 192.675 31 189.471 31C186.267 31 183.094 31.6839 180.136 33.0123Z" stroke="white" stroke-width="1.5" stroke-linecap="round" stroke-linejoin="round"/>
<path d="M182.678 59.4446L126.111 84.4258C123.479 85.5884 121.78 88.1952 121.78 91.0731V152.626C121.78 183.498 173.115 213.161 186.555 220.399C188.566 221.482 190.924 221.482 192.935 220.399C206.375 213.161 257.71 183.498 257.71 152.626V91.0731C257.71 88.1952 256.011 85.5884 253.379 84.4258L196.812 59.4446C194.573 58.4444 192.171 57.9294 189.745 57.9294C187.319 57.9294 184.917 58.4444 182.678 59.4446Z" fill="#D7DAE7" stroke="white" stroke-width="1.5" stroke-linecap="round" stroke-linejoin="round"/>
<g filter="url(#filter1_d_174_1027)">
<path d="M204.327 128.042C204.329 131.129 203.375 134.14 201.598 136.661C199.974 138.966 197.733 140.758 195.142 141.834C194.723 142.008 194.469 142.446 194.555 142.892L198.225 161.912C198.364 162.632 198.343 163.374 198.162 164.085C197.982 164.796 197.647 165.458 197.181 166.023C196.716 166.589 196.131 167.044 195.469 167.357C194.808 167.669 194.085 167.831 193.354 167.831H185.536C184.805 167.83 184.084 167.667 183.423 167.354C182.763 167.04 182.18 166.585 181.715 166.019C181.251 165.454 180.917 164.793 180.737 164.083C180.557 163.373 180.535 162.632 180.674 161.912L184.335 142.891C184.421 142.446 184.167 142.008 183.748 141.834C181.479 140.891 179.473 139.398 177.915 137.483C176.19 135.364 175.079 132.811 174.704 130.101C174.329 127.392 174.704 124.632 175.787 122.122C176.871 119.612 178.622 117.449 180.849 115.869C183.076 114.289 185.694 113.353 188.415 113.164C191.137 112.975 193.858 113.539 196.281 114.796C198.704 116.052 200.736 117.952 202.155 120.288C203.574 122.624 204.326 125.307 204.327 128.042Z" fill="#F7F8FC"/>
<path d="M197.489 162.055L197.489 162.055C197.607 162.666 197.589 163.297 197.435 163.9C197.282 164.504 196.997 165.066 196.602 165.547C196.207 166.027 195.711 166.413 195.149 166.679C194.588 166.944 193.975 167.081 193.354 167.081H193.354H185.537C184.917 167.08 184.305 166.942 183.745 166.676C183.184 166.41 182.689 166.023 182.295 165.543L181.715 166.019L182.295 165.543C181.9 165.063 181.617 164.501 181.464 163.898C181.311 163.295 181.293 162.666 181.411 162.055L181.411 162.054L185.072 143.033C185.229 142.215 184.761 141.443 184.036 141.142C181.881 140.246 179.976 138.828 178.496 137.01C176.858 134.997 175.803 132.572 175.447 129.999C175.09 127.425 175.446 124.803 176.476 122.419C177.505 120.035 179.168 117.981 181.283 116.481C183.398 114.98 185.883 114.092 188.467 113.912C191.051 113.733 193.635 114.269 195.936 115.462C198.237 116.655 200.167 118.459 201.514 120.678C202.862 122.896 203.576 125.444 203.577 128.042C203.579 130.974 202.673 133.835 200.985 136.229C199.442 138.418 197.314 140.119 194.854 141.142C194.129 141.443 193.661 142.216 193.819 143.034L197.489 162.055Z" stroke="white" stroke-width="1.5"/>
</g>
<rect y="99" width="143.874" height="57.74" rx="12" fill="white"/>
<path d="M12.996 125V116.06H16.152C16.744 116.06 17.264 116.172 17.712 116.396C18.16 116.62 18.508 116.94 18.756 117.356C19.012 117.772 19.14 118.26 19.14 118.82C19.14 119.38 19.012 119.868 18.756 120.284C18.508 120.692 18.16 121.012 17.712 121.244C17.272 121.468 16.752 121.58 16.152 121.58H14.172V125H12.996ZM14.172 120.5H16.188C16.548 120.5 16.86 120.432 17.124 120.296C17.388 120.16 17.592 119.964 17.736 119.708C17.88 119.452 17.952 119.156 17.952 118.82C17.952 118.476 17.88 118.18 17.736 117.932C17.592 117.676 17.388 117.48 17.124 117.344C16.86 117.208 16.548 117.14 16.188 117.14H14.172V120.5ZM19.1515 125L22.3555 116.06H23.7475L26.9515 125H25.6915L24.9595 122.9H21.1435L20.4115 125H19.1515ZM21.5155 121.82H24.5875L22.8835 116.912H23.2195L21.5155 121.82ZM31.0328 125.144C30.4648 125.144 29.9448 125.04 29.4728 124.832C29.0008 124.616 28.6008 124.324 28.2728 123.956C27.9448 123.588 27.7088 123.176 27.5648 122.72L28.5848 122.3C28.8008 122.876 29.1208 123.32 29.5448 123.632C29.9768 123.936 30.4808 124.088 31.0568 124.088C31.4088 124.088 31.7168 124.032 31.9808 123.92C32.2448 123.808 32.4488 123.652 32.5928 123.452C32.7448 123.244 32.8208 123.004 32.8208 122.732C32.8208 122.356 32.7128 122.06 32.4968 121.844C32.2888 121.62 31.9808 121.452 31.5728 121.34L29.9288 120.836C29.2808 120.636 28.7848 120.32 28.4408 119.888C28.0968 119.456 27.9248 118.96 27.9248 118.4C27.9248 117.912 28.0408 117.484 28.2728 117.116C28.5128 116.74 28.8408 116.448 29.2568 116.24C29.6808 116.024 30.1608 115.916 30.6968 115.916C31.2328 115.916 31.7168 116.012 32.1488 116.204C32.5888 116.396 32.9608 116.656 33.2648 116.984C33.5688 117.304 33.7928 117.672 33.9368 118.088L32.9288 118.508C32.7368 118.004 32.4488 117.624 32.0648 117.368C31.6808 117.104 31.2288 116.972 30.7088 116.972C30.3888 116.972 30.1048 117.028 29.8568 117.14C29.6168 117.244 29.4288 117.4 29.2928 117.608C29.1648 117.808 29.1008 118.048 29.1008 118.328C29.1008 118.656 29.2048 118.948 29.4128 119.204C29.6208 119.46 29.9368 119.656 30.3608 119.792L31.8608 120.236C32.5648 120.452 33.0968 120.76 33.4568 121.16C33.8168 121.56 33.9968 122.056 33.9968 122.648C33.9968 123.136 33.8688 123.568 33.6128 123.944C33.3648 124.32 33.0168 124.616 32.5688 124.832C32.1288 125.04 31.6168 125.144 31.0328 125.144ZM38.7907 125.144C38.2227 125.144 37.7027 125.04 37.2307 124.832C36.7587 124.616 36.3587 124.324 36.0307 123.956C35.7027 123.588 35.4667 123.176 35.3227 122.72L36.3427 122.3C36.5587 122.876 36.8787 123.32 37.3027 123.632C37.7347 123.936 38.2387 124.088 38.8147 124.088C39.1667 124.088 39.4747 124.032 39.7387 123.92C40.0027 123.808 40.2067 123.652 40.3507 123.452C40.5027 123.244 40.5787 123.004 40.5787 122.732C40.5787 122.356 40.4707 122.06 40.2547 121.844C40.0467 121.62 39.7387 121.452 39.3307 121.34L37.6867 120.836C37.0387 120.636 36.5427 120.32 36.1987 119.888C35.8547 119.456 35.6827 118.96 35.6827 118.4C35.6827 117.912 35.7987 117.484 36.0307 117.116C36.2707 116.74 36.5987 116.448 37.0147 116.24C37.4387 116.024 37.9187 115.916 38.4547 115.916C38.9907 115.916 39.4747 116.012 39.9067 116.204C40.3467 116.396 40.7187 116.656 41.0227 116.984C41.3267 117.304 41.5507 117.672 41.6947 118.088L40.6867 118.508C40.4947 118.004 40.2067 117.624 39.8227 117.368C39.4387 117.104 38.9867 116.972 38.4667 116.972C38.1467 116.972 37.8627 117.028 37.6147 117.14C37.3747 117.244 37.1867 117.4 37.0507 117.608C36.9227 117.808 36.8587 118.048 36.8587 118.328C36.8587 118.656 36.9627 118.948 37.1707 119.204C37.3787 119.46 37.6947 119.656 38.1187 119.792L39.6187 120.236C40.3227 120.452 40.8547 120.76 41.2147 121.16C41.5747 121.56 41.7547 122.056 41.7547 122.648C41.7547 123.136 41.6267 123.568 41.3707 123.944C41.1227 124.32 40.7747 124.616 40.3267 124.832C39.8867 125.04 39.3747 125.144 38.7907 125.144ZM45.0033 125L42.4953 116.06H43.7313L45.8313 123.932H45.5433L47.7273 116.06H48.9633L51.1353 123.932H50.8353L52.9473 116.06H54.1833L51.6753 125H50.3673L48.1833 117.164H48.4953L46.3113 125H45.0033ZM59.35 125.144C58.718 125.144 58.126 125.032 57.574 124.808C57.022 124.576 56.538 124.252 56.122 123.836C55.714 123.42 55.394 122.932 55.162 122.372C54.93 121.804 54.814 121.188 54.814 120.524C54.814 119.852 54.93 119.236 55.162 118.676C55.394 118.116 55.714 117.628 56.122 117.212C56.538 116.796 57.018 116.476 57.562 116.252C58.114 116.028 58.71 115.916 59.35 115.916C59.99 115.916 60.582 116.032 61.126 116.264C61.678 116.488 62.158 116.808 62.566 117.224C62.982 117.632 63.306 118.116 63.538 118.676C63.778 119.236 63.898 119.852 63.898 120.524C63.898 121.188 63.778 121.804 63.538 122.372C63.306 122.932 62.982 123.42 62.566 123.836C62.158 124.252 61.678 124.576 61.126 124.808C60.582 125.032 59.99 125.144 59.35 125.144ZM59.35 124.052C59.846 124.052 60.298 123.964 60.706 123.788C61.114 123.604 61.466 123.352 61.762 123.032C62.066 122.704 62.298 122.328 62.458 121.904C62.626 121.472 62.71 121.012 62.71 120.524C62.71 120.036 62.626 119.58 62.458 119.156C62.298 118.732 62.066 118.36 61.762 118.04C61.466 117.712 61.114 117.46 60.706 117.284C60.298 117.1 59.846 117.008 59.35 117.008C58.862 117.008 58.414 117.1 58.006 117.284C57.598 117.46 57.242 117.712 56.938 118.04C56.642 118.36 56.41 118.732 56.242 119.156C56.074 119.58 55.99 120.036 55.99 120.524C55.99 121.012 56.074 121.472 56.242 121.904C56.41 122.328 56.642 122.704 56.938 123.032C57.242 123.352 57.598 123.604 58.006 123.788C58.414 123.964 58.862 124.052 59.35 124.052ZM65.6132 125V116.06H68.7692C69.3612 116.06 69.8812 116.172 70.3292 116.396C70.7772 116.62 71.1252 116.94 71.3732 117.356C71.6292 117.772 71.7572 118.26 71.7572 118.82C71.7572 119.452 71.5972 119.988 71.2772 120.428C70.9572 120.868 70.5252 121.184 69.9812 121.376L72.0572 125H70.6892L68.5052 121.124L69.2852 121.58H66.7892V125H65.6132ZM66.7892 120.5H68.8052C69.1572 120.5 69.4652 120.432 69.7292 120.296C69.9932 120.16 70.1972 119.964 70.3412 119.708C70.4932 119.452 70.5692 119.156 70.5692 118.82C70.5692 118.476 70.4932 118.18 70.3412 117.932C70.1972 117.676 69.9932 117.48 69.7292 117.344C69.4652 117.208 69.1572 117.14 68.8052 117.14H66.7892V120.5ZM73.3944 125V116.06H76.3224C77.2264 116.06 78.0144 116.244 78.6864 116.612C79.3584 116.98 79.8784 117.5 80.2464 118.172C80.6144 118.836 80.7984 119.62 80.7984 120.524C80.7984 121.42 80.6144 122.204 80.2464 122.876C79.8784 123.548 79.3584 124.072 78.6864 124.448C78.0144 124.816 77.2264 125 76.3224 125H73.3944ZM74.5704 123.92H76.3344C76.9984 123.92 77.5704 123.78 78.0504 123.5C78.5384 123.22 78.9144 122.828 79.1784 122.324C79.4424 121.812 79.5744 121.212 79.5744 120.524C79.5744 119.828 79.4384 119.228 79.1664 118.724C78.9024 118.22 78.5264 117.832 78.0384 117.56C77.5584 117.28 76.9904 117.14 76.3344 117.14H74.5704V123.92Z" fill="#667085"/>
<path d="M14.6 144.74L12.84 143.46L14.22 141.58L12 140.82L12.68 138.76L14.88 139.5V137H17.08V139.5L19.28 138.76L19.96 140.82L17.74 141.58L19.12 143.46L17.36 144.74L15.98 142.86L14.6 144.74Z" fill="#1D2939"/>
<path d="M25.7914 144.74L24.0314 143.46L25.4114 141.58L23.1914 140.82L23.8714 138.76L26.0714 139.5V137H28.2714V139.5L30.4714 138.76L31.1514 140.82L28.9314 141.58L30.3114 143.46L28.5514 144.74L27.1714 142.86L25.7914 144.74Z" fill="#1D2939"/>
<path d="M36.9828 144.74L35.2228 143.46L36.6028 141.58L34.3828 140.82L35.0628 138.76L37.2628 139.5V137H39.4628V139.5L41.6628 138.76L42.3428 140.82L40.1228 141.58L41.5028 143.46L39.7428 144.74L38.3628 142.86L36.9828 144.74Z" fill="#1D2939"/>
<path d="M48.1742 144.74L46.4142 143.46L47.7942 141.58L45.5742 140.82L46.2542 138.76L48.4542 139.5V137H50.6542V139.5L52.8542 138.76L53.5342 140.82L51.3142 141.58L52.6942 143.46L50.9342 144.74L49.5542 142.86L48.1742 144.74Z" fill="#1D2939"/>
<path d="M59.3656 144.74L57.6056 143.46L58.9856 141.58L56.7656 140.82L57.4456 138.76L59.6456 139.5V137H61.8456V139.5L64.0456 138.76L64.7256 140.82L62.5056 141.58L63.8856 143.46L62.1256 144.74L60.7456 142.86L59.3656 144.74Z" fill="#1D2939"/>
<path d="M70.557 144.74L68.797 143.46L70.177 141.58L67.957 140.82L68.637 138.76L70.837 139.5V137H73.037V139.5L75.237 138.76L75.917 140.82L73.697 141.58L75.077 143.46L73.317 144.74L71.937 142.86L70.557 144.74Z" fill="#1D2939"/>
<path d="M81.7484 144.74L79.9884 143.46L81.3684 141.58L79.1484 140.82L79.8284 138.76L82.0284 139.5V137H84.2284V139.5L86.4284 138.76L87.1084 140.82L84.8884 141.58L86.2684 143.46L84.5084 144.74L83.1284 142.86L81.7484 144.74Z" fill="#1D2939"/>
<path d="M92.9398 144.74L91.1798 143.46L92.5598 141.58L90.3398 140.82L91.0198 138.76L93.2198 139.5V137H95.4198V139.5L97.6198 138.76L98.2998 140.82L96.0798 141.58L97.4598 143.46L95.6998 144.74L94.3198 142.86L92.9398 144.74Z" fill="#1D2939"/>
<path d="M104.131 144.74L102.371 143.46L103.751 141.58L101.531 140.82L102.211 138.76L104.411 139.5V137H106.611V139.5L108.811 138.76L109.491 140.82L107.271 141.58L108.651 143.46L106.891 144.74L105.511 142.86L104.131 144.74Z" fill="#1D2939"/>
<path d="M115.323 144.74L113.563 143.46L114.943 141.58L112.723 140.82L113.403 138.76L115.603 139.5V137H117.803V139.5L120.003 138.76L120.683 140.82L118.463 141.58L119.843 143.46L118.083 144.74L116.703 142.86L115.323 144.74Z" fill="#1D2939"/>
<path d="M126.514 144.74L124.754 143.46L126.134 141.58L123.914 140.82L124.594 138.76L126.794 139.5V137H128.994V139.5L131.194 138.76L131.874 140.82L129.654 141.58L131.034 143.46L129.274 144.74L127.894 142.86L126.514 144.74Z" fill="#1D2939"/>
<rect x="230" y="35" width="143.874" height="86" rx="12" fill="white"/>
<path d="M242.648 61V60.184L245.12 57.508C245.608 56.988 245.996 56.56 246.284 56.224C246.58 55.888 246.796 55.588 246.932 55.324C247.068 55.06 247.136 54.78 247.136 54.484C247.136 53.996 246.992 53.62 246.704 53.356C246.416 53.092 246.036 52.96 245.564 52.96C245.084 52.96 244.676 53.1 244.34 53.38C244.004 53.652 243.772 54.04 243.644 54.544L242.576 54.268C242.68 53.788 242.872 53.372 243.152 53.02C243.432 52.668 243.78 52.396 244.196 52.204C244.612 52.012 245.068 51.916 245.564 51.916C246.108 51.916 246.584 52.024 246.992 52.24C247.408 52.448 247.732 52.74 247.964 53.116C248.204 53.492 248.324 53.928 248.324 54.424C248.324 54.752 248.256 55.072 248.12 55.384C247.984 55.696 247.784 56.028 247.52 56.38C247.256 56.724 246.912 57.124 246.488 57.58L244.28 59.98H248.516V61H242.648ZM250.18 61V52.06H255.844V53.14H251.356V56.032H255.424V57.112H251.356V61H250.18ZM255.714 61L258.918 52.06H260.31L263.514 61H262.254L261.522 58.9H257.706L256.974 61H255.714ZM258.078 57.82H261.15L259.446 52.912H259.782L258.078 57.82Z" fill="#667085"/>
<rect x="242" y="73" width="119.874" height="6" rx="3" fill="#F3F3F3"/>
<rect x="242" y="83" width="119.874" height="6" rx="3" fill="#F3F3F3"/>
<rect x="242" y="93" width="71" height="6" rx="3" fill="#F3F3F3"/>
<rect x="242" y="103" width="71" height="6" rx="3" fill="#F3F3F3"/>
<defs>
<filter id="filter0_i_174_1027" x="98.9561" y="30.25" width="181.029" height="218.203" filterUnits="userSpaceOnUse" color-interpolation-filters="sRGB">
<feFlood flood-opacity="0" result="BackgroundImageFix"/>
<feBlend mode="normal" in="SourceGraphic" in2="BackgroundImageFix" result="shape"/>
<feColorMatrix in="SourceAlpha" type="matrix" values="0 0 0 0 0 0 0 0 0 0 0 0 0 0 0 0 0 0 127 0" result="hardAlpha"/>
<feOffset/>
<feGaussianBlur stdDeviation="5.45"/>
<feComposite in2="hardAlpha" operator="arithmetic" k2="-1" k3="1"/>
<feColorMatrix type="matrix" values="0 0 0 0 1 0 0 0 0 1 0 0 0 0 1 0 0 0 0.25 0"/>
<feBlend mode="normal" in2="shape" result="effect1_innerShadow_174_1027"/>
</filter>
<filter id="filter1_d_174_1027" x="145.772" y="84.3376" width="87.3464" height="112.284" filterUnits="userSpaceOnUse" color-interpolation-filters="sRGB">
<feFlood flood-opacity="0" result="BackgroundImageFix"/>
<feColorMatrix in="SourceAlpha" type="matrix" values="0 0 0 0 0 0 0 0 0 0 0 0 0 0 0 0 0 0 127 0" result="hardAlpha"/>
<feOffset/>
<feGaussianBlur stdDeviation="14.3954"/>
<feComposite in2="hardAlpha" operator="out"/>
<feColorMatrix type="matrix" values="0 0 0 0 0.905722 0 0 0 0 0.95557 0 0 0 0 0.991667 0 0 0 0.25 0"/>
<feBlend mode="normal" in2="BackgroundImageFix" result="effect1_dropShadow_174_1027"/>
<feBlend mode="normal" in="SourceGraphic" in2="effect1_dropShadow_174_1027" result="shape"/>
</filter>
</defs>
</svg>
