<svg width="324" height="442" viewBox="0 0 324 442" fill="none" xmlns="http://www.w3.org/2000/svg">
<g filter="url(#filter0_b_174_1796)">
<rect x="2" y="2" width="320" height="449.767" rx="39.1852" fill="white" fill-opacity="0.2"/>
<rect x="1" y="1" width="322" height="451.767" rx="40.1852" stroke="white" stroke-width="2"/>
<rect x="34.0186" y="34" width="255.962" height="162.767" rx="12" fill="white"/>
<path d="M56.5992 74.3489V62.4289H58.3592L62.8392 68.6369H61.9592L66.3592 62.4289H68.1192V74.3489H66.2472V64.6529L66.9512 64.8449L62.4552 70.9889H62.2632L57.8632 64.8449L58.4872 64.6529V74.3489H56.5992ZM71.1756 77.8689C70.9622 77.8689 70.7489 77.8475 70.5356 77.8049C70.3329 77.7729 70.1462 77.7195 69.9756 77.6449V76.0929C70.1036 76.1249 70.2582 76.1515 70.4396 76.1729C70.6209 76.2049 70.7969 76.2209 70.9676 76.2209C71.4689 76.2209 71.8369 76.1089 72.0716 75.8849C72.3169 75.6715 72.5356 75.3409 72.7276 74.8929L73.3036 73.5809L73.2716 75.1009L69.5276 65.6929H71.4636L74.2316 72.9089H73.5756L76.3276 65.6929H78.2796L74.4556 75.2929C74.2529 75.8049 73.9969 76.2529 73.6876 76.6369C73.3889 77.0315 73.0316 77.3355 72.6156 77.5489C72.2102 77.7622 71.7302 77.8689 71.1756 77.8689ZM82.4898 74.3489V62.4289H86.8258C87.6258 62.4289 88.3298 62.5782 88.9378 62.8769C89.5565 63.1649 90.0365 63.5915 90.3778 64.1569C90.7191 64.7115 90.8898 65.3782 90.8898 66.1569C90.8898 66.9249 90.7138 67.5862 90.3618 68.1409C90.0205 68.6955 89.5458 69.1222 88.9378 69.4209C88.3298 69.7195 87.6258 69.8689 86.8258 69.8689H84.3778V74.3489H82.4898ZM84.3778 68.1889H86.8738C87.3005 68.1889 87.6738 68.1035 87.9938 67.9329C88.3138 67.7622 88.5645 67.5275 88.7458 67.2289C88.9271 66.9195 89.0178 66.5569 89.0178 66.1409C89.0178 65.7249 88.9271 65.3675 88.7458 65.0689C88.5645 64.7595 88.3138 64.5249 87.9938 64.3649C87.6738 64.1942 87.3005 64.1089 86.8738 64.1089H84.3778V68.1889ZM92.6576 74.3489V65.6929H94.3856V67.4369L94.2256 67.1809C94.4176 66.6155 94.7269 66.2102 95.1536 65.9649C95.5802 65.7089 96.0922 65.5809 96.6896 65.5809H97.2176V67.2289H96.4656C95.8682 67.2289 95.3829 67.4155 95.0096 67.7889C94.6469 68.1515 94.4656 68.6742 94.4656 69.3569V74.3489H92.6576ZM102.63 74.5409C101.798 74.5409 101.036 74.3435 100.342 73.9489C99.6598 73.5542 99.1158 73.0155 98.7104 72.3329C98.3051 71.6502 98.1024 70.8769 98.1024 70.0129C98.1024 69.1382 98.3051 68.3649 98.7104 67.6929C99.1158 67.0102 99.6598 66.4769 100.342 66.0929C101.025 65.6982 101.788 65.5009 102.63 65.5009C103.484 65.5009 104.246 65.6982 104.918 66.0929C105.601 66.4769 106.14 67.0102 106.534 67.6929C106.94 68.3649 107.142 69.1382 107.142 70.0129C107.142 70.8875 106.94 71.6662 106.534 72.3489C106.129 73.0315 105.585 73.5702 104.902 73.9649C104.22 74.3489 103.462 74.5409 102.63 74.5409ZM102.63 72.8609C103.142 72.8609 103.596 72.7382 103.99 72.4929C104.385 72.2475 104.694 71.9115 104.918 71.4849C105.153 71.0475 105.27 70.5569 105.27 70.0129C105.27 69.4689 105.153 68.9835 104.918 68.5569C104.694 68.1302 104.385 67.7942 103.99 67.5489C103.596 67.3035 103.142 67.1809 102.63 67.1809C102.129 67.1809 101.676 67.3035 101.27 67.5489C100.876 67.7942 100.561 68.1302 100.326 68.5569C100.102 68.9835 99.9904 69.4689 99.9904 70.0129C99.9904 70.5569 100.102 71.0475 100.326 71.4849C100.561 71.9115 100.876 72.2475 101.27 72.4929C101.676 72.7382 102.129 72.8609 102.63 72.8609ZM109.649 74.3489V67.3249H108.049V65.6929H109.649V65.2449C109.649 64.5942 109.783 64.0502 110.049 63.6129C110.316 63.1649 110.684 62.8235 111.153 62.5889C111.633 62.3542 112.183 62.2369 112.801 62.2369C112.919 62.2369 113.052 62.2475 113.201 62.2689C113.351 62.2795 113.473 62.2955 113.569 62.3169V63.8849C113.484 63.8635 113.388 63.8529 113.281 63.8529C113.175 63.8422 113.089 63.8369 113.025 63.8369C112.545 63.8369 112.161 63.9489 111.873 64.1729C111.585 64.3862 111.441 64.7435 111.441 65.2449V65.6929H115.585V67.3249H111.441V74.3489H109.649ZM114.737 74.3489V65.6929H116.529V74.3489H114.737ZM118.439 74.3489V62.2369H120.247V74.3489H118.439ZM126.425 74.5409C125.561 74.5409 124.793 74.3435 124.121 73.9489C123.459 73.5435 122.942 72.9995 122.569 72.3169C122.195 71.6235 122.009 70.8502 122.009 69.9969C122.009 69.1222 122.195 68.3489 122.569 67.6769C122.953 67.0049 123.465 66.4769 124.105 66.0929C124.745 65.6982 125.47 65.5009 126.281 65.5009C126.931 65.5009 127.513 65.6129 128.025 65.8369C128.537 66.0609 128.969 66.3702 129.321 66.7649C129.673 67.1489 129.939 67.5915 130.121 68.0929C130.313 68.5942 130.409 69.1275 130.409 69.6929C130.409 69.8315 130.403 69.9755 130.393 70.1249C130.382 70.2742 130.361 70.4129 130.329 70.5409H123.433V69.1009H129.305L128.441 69.7569C128.547 69.2342 128.51 68.7702 128.329 68.3649C128.158 67.9489 127.891 67.6235 127.529 67.3889C127.177 67.1435 126.761 67.0209 126.281 67.0209C125.801 67.0209 125.374 67.1435 125.001 67.3889C124.627 67.6235 124.339 67.9649 124.137 68.4129C123.934 68.8502 123.854 69.3835 123.897 70.0129C123.843 70.5995 123.923 71.1115 124.137 71.5489C124.361 71.9862 124.67 72.3275 125.065 72.5729C125.47 72.8182 125.929 72.9409 126.441 72.9409C126.963 72.9409 127.406 72.8235 127.769 72.5889C128.142 72.3542 128.435 72.0502 128.649 71.6769L130.121 72.3969C129.95 72.8022 129.683 73.1702 129.321 73.5009C128.969 73.8209 128.542 74.0769 128.041 74.2689C127.55 74.4502 127.011 74.5409 126.425 74.5409Z" fill="#1D2939"/>
<rect x="55.3672" y="93.5814" width="213.264" height="10.6744" rx="5.33721" fill="#F3F3F3"/>
<rect x="55.3672" y="111.372" width="213.264" height="10.6744" rx="5.33721" fill="#F3F3F3"/>
<rect x="55.3672" y="129.163" width="213.264" height="10.6744" rx="5.33721" fill="#F3F3F3"/>
<rect x="55.3672" y="146.953" width="126.314" height="10.6744" rx="5.33721" fill="#F3F3F3"/>
<rect x="55.3672" y="164.744" width="126.314" height="10.6744" rx="5.33721" fill="#F3F3F3"/>
<rect x="39.3682" y="212.767" width="245.264" height="79" rx="12" fill="white"/>
<path d="M56.4462 244.767V234.337H58.0982V244.767H56.4462ZM60.1066 244.767V237.193H61.6186V238.677L61.4366 238.481C61.6233 238.005 61.922 237.646 62.3326 237.403C62.7433 237.151 63.2193 237.025 63.7606 237.025C64.3206 237.025 64.8153 237.147 65.2446 237.389C65.674 237.632 66.01 237.968 66.2526 238.397C66.4953 238.827 66.6166 239.321 66.6166 239.881V244.767H65.0486V240.301C65.0486 239.919 64.9786 239.597 64.8386 239.335C64.6986 239.065 64.498 238.859 64.2366 238.719C63.9846 238.57 63.6953 238.495 63.3686 238.495C63.042 238.495 62.748 238.57 62.4866 238.719C62.2346 238.859 62.0386 239.065 61.8986 239.335C61.7586 239.606 61.6886 239.928 61.6886 240.301V244.767H60.1066ZM71.5857 244.851C70.7924 244.851 70.1764 244.627 69.7377 244.179C69.2991 243.731 69.0797 243.101 69.0797 242.289V238.621H67.7497V237.193H67.9597C68.3144 237.193 68.5897 237.091 68.7857 236.885C68.9817 236.68 69.0797 236.4 69.0797 236.045V235.457H70.6617V237.193H72.3837V238.621H70.6617V242.219C70.6617 242.481 70.7037 242.705 70.7877 242.891C70.8717 243.069 71.0071 243.209 71.1937 243.311C71.3804 243.405 71.6231 243.451 71.9217 243.451C71.9964 243.451 72.0804 243.447 72.1737 243.437C72.2671 243.428 72.3557 243.419 72.4397 243.409V244.767C72.3091 244.786 72.1644 244.805 72.0057 244.823C71.8471 244.842 71.7071 244.851 71.5857 244.851ZM77.4029 244.935C76.6469 244.935 75.9749 244.763 75.3869 244.417C74.8082 244.063 74.3555 243.587 74.0289 242.989C73.7022 242.383 73.5389 241.706 73.5389 240.959C73.5389 240.194 73.7022 239.517 74.0289 238.929C74.3649 238.341 74.8129 237.879 75.3729 237.543C75.9329 237.198 76.5675 237.025 77.2769 237.025C77.8462 237.025 78.3549 237.123 78.8029 237.319C79.2509 237.515 79.6289 237.786 79.9369 238.131C80.2449 238.467 80.4782 238.855 80.6369 239.293C80.8049 239.732 80.8889 240.199 80.8889 240.693C80.8889 240.815 80.8842 240.941 80.8749 241.071C80.8655 241.202 80.8469 241.323 80.8189 241.435H74.7849V240.175H79.9229L79.1669 240.749C79.2602 240.292 79.2275 239.886 79.0689 239.531C78.9195 239.167 78.6862 238.883 78.3689 238.677C78.0609 238.463 77.6969 238.355 77.2769 238.355C76.8569 238.355 76.4835 238.463 76.1569 238.677C75.8302 238.883 75.5782 239.181 75.4009 239.573C75.2235 239.956 75.1535 240.423 75.1909 240.973C75.1442 241.487 75.2142 241.935 75.4009 242.317C75.5969 242.7 75.8675 242.999 76.2129 243.213C76.5675 243.428 76.9689 243.535 77.4169 243.535C77.8742 243.535 78.2615 243.433 78.5789 243.227C78.9055 243.022 79.1622 242.756 79.3489 242.429L80.6369 243.059C80.4875 243.414 80.2542 243.736 79.9369 244.025C79.6289 244.305 79.2555 244.529 78.8169 244.697C78.3875 244.856 77.9162 244.935 77.4029 244.935ZM82.4328 244.767V237.193H83.9448V238.719L83.8048 238.495C83.9728 238.001 84.2435 237.646 84.6168 237.431C84.9901 237.207 85.4381 237.095 85.9608 237.095H86.4228V238.537H85.7648C85.2421 238.537 84.8175 238.701 84.4908 239.027C84.1735 239.345 84.0148 239.802 84.0148 240.399V244.767H82.4328ZM91.0611 244.935C90.3051 244.935 89.6331 244.763 89.0451 244.417C88.4664 244.063 88.0137 243.587 87.6871 242.989C87.3604 242.383 87.1971 241.706 87.1971 240.959C87.1971 240.194 87.3604 239.517 87.6871 238.929C88.0231 238.341 88.4711 237.879 89.0311 237.543C89.5911 237.198 90.2257 237.025 90.9351 237.025C91.5044 237.025 92.0131 237.123 92.4611 237.319C92.9091 237.515 93.2871 237.786 93.5951 238.131C93.9031 238.467 94.1364 238.855 94.2951 239.293C94.4631 239.732 94.5471 240.199 94.5471 240.693C94.5471 240.815 94.5424 240.941 94.5331 241.071C94.5237 241.202 94.5051 241.323 94.4771 241.435H88.4431V240.175H93.5811L92.8251 240.749C92.9184 240.292 92.8857 239.886 92.7271 239.531C92.5777 239.167 92.3444 238.883 92.0271 238.677C91.7191 238.463 91.3551 238.355 90.9351 238.355C90.5151 238.355 90.1417 238.463 89.8151 238.677C89.4884 238.883 89.2364 239.181 89.0591 239.573C88.8817 239.956 88.8117 240.423 88.8491 240.973C88.8024 241.487 88.8724 241.935 89.0591 242.317C89.2551 242.7 89.5257 242.999 89.8711 243.213C90.2257 243.428 90.6271 243.535 91.0751 243.535C91.5324 243.535 91.9197 243.433 92.2371 243.227C92.5637 243.022 92.8204 242.756 93.0071 242.429L94.2951 243.059C94.1457 243.414 93.9124 243.736 93.5951 244.025C93.2871 244.305 92.9137 244.529 92.4751 244.697C92.0457 244.856 91.5744 244.935 91.0611 244.935ZM98.891 244.935C98.1163 244.935 97.435 244.744 96.847 244.361C96.2683 243.979 95.8623 243.465 95.629 242.821L96.847 242.247C97.0523 242.677 97.3323 243.017 97.687 243.269C98.051 243.521 98.4523 243.647 98.891 243.647C99.2643 243.647 99.5677 243.563 99.801 243.395C100.034 243.227 100.151 242.999 100.151 242.709C100.151 242.523 100.1 242.373 99.997 242.261C99.8943 242.14 99.7637 242.042 99.605 241.967C99.4557 241.893 99.3017 241.837 99.143 241.799L97.953 241.463C97.2997 241.277 96.8097 240.997 96.483 240.623C96.1657 240.241 96.007 239.797 96.007 239.293C96.007 238.836 96.1237 238.439 96.357 238.103C96.5903 237.758 96.9123 237.492 97.323 237.305C97.7337 237.119 98.1957 237.025 98.709 237.025C99.3997 237.025 100.016 237.198 100.557 237.543C101.098 237.879 101.481 238.351 101.705 238.957L100.487 239.531C100.338 239.167 100.1 238.878 99.773 238.663C99.4557 238.449 99.0963 238.341 98.695 238.341C98.3497 238.341 98.0743 238.425 97.869 238.593C97.6637 238.752 97.561 238.962 97.561 239.223C97.561 239.401 97.6077 239.55 97.701 239.671C97.7943 239.783 97.9157 239.877 98.065 239.951C98.2143 240.017 98.3683 240.073 98.527 240.119L99.759 240.483C100.384 240.661 100.865 240.941 101.201 241.323C101.537 241.697 101.705 242.145 101.705 242.667C101.705 243.115 101.584 243.512 101.341 243.857C101.108 244.193 100.781 244.459 100.361 244.655C99.941 244.842 99.451 244.935 98.891 244.935ZM106.531 244.851C105.738 244.851 105.122 244.627 104.683 244.179C104.244 243.731 104.025 243.101 104.025 242.289V238.621H102.695V237.193H102.905C103.26 237.193 103.535 237.091 103.731 236.885C103.927 236.68 104.025 236.4 104.025 236.045V235.457H105.607V237.193H107.329V238.621H105.607V242.219C105.607 242.481 105.649 242.705 105.733 242.891C105.817 243.069 105.952 243.209 106.139 243.311C106.326 243.405 106.568 243.451 106.867 243.451C106.942 243.451 107.026 243.447 107.119 243.437C107.212 243.428 107.301 243.419 107.385 243.409V244.767C107.254 244.786 107.11 244.805 106.951 244.823C106.792 244.842 106.652 244.851 106.531 244.851ZM111.729 244.935C110.954 244.935 110.273 244.744 109.685 244.361C109.106 243.979 108.7 243.465 108.467 242.821L109.685 242.247C109.89 242.677 110.17 243.017 110.525 243.269C110.889 243.521 111.29 243.647 111.729 243.647C112.102 243.647 112.406 243.563 112.639 243.395C112.872 243.227 112.989 242.999 112.989 242.709C112.989 242.523 112.938 242.373 112.835 242.261C112.732 242.14 112.602 242.042 112.443 241.967C112.294 241.893 112.14 241.837 111.981 241.799L110.791 241.463C110.138 241.277 109.648 240.997 109.321 240.623C109.004 240.241 108.845 239.797 108.845 239.293C108.845 238.836 108.962 238.439 109.195 238.103C109.428 237.758 109.75 237.492 110.161 237.305C110.572 237.119 111.034 237.025 111.547 237.025C112.238 237.025 112.854 237.198 113.395 237.543C113.936 237.879 114.319 238.351 114.543 238.957L113.325 239.531C113.176 239.167 112.938 238.878 112.611 238.663C112.294 238.449 111.934 238.341 111.533 238.341C111.188 238.341 110.912 238.425 110.707 238.593C110.502 238.752 110.399 238.962 110.399 239.223C110.399 239.401 110.446 239.55 110.539 239.671C110.632 239.783 110.754 239.877 110.903 239.951C111.052 240.017 111.206 240.073 111.365 240.119L112.597 240.483C113.222 240.661 113.703 240.941 114.039 241.323C114.375 241.697 114.543 242.145 114.543 242.667C114.543 243.115 114.422 243.512 114.179 243.857C113.946 244.193 113.619 244.459 113.199 244.655C112.779 244.842 112.289 244.935 111.729 244.935Z" fill="#1D2939"/>
<rect x="55.3682" y="257.767" width="213.264" height="6" rx="3" fill="#F3F3F3"/>
<rect x="55.3682" y="269.767" width="213.264" height="6" rx="3" fill="#F3F3F3"/>
<g filter="url(#filter1_d_174_1796)">
<rect x="94" y="307.768" width="136" height="48" rx="12" fill="white" shape-rendering="crispEdges"/>
<rect x="94" y="307.768" width="136" height="48" rx="12" stroke="#EBEDEF" shape-rendering="crispEdges"/>
<rect x="102" y="315.768" width="32" height="32" rx="16" fill="#F2F2F6"/>
<path d="M119.522 330.542L125.478 323.768H124.067L118.895 329.65L114.765 323.768H110L116.246 332.663L110 339.768H111.411L116.873 333.555L121.235 339.768H126L119.522 330.542H119.522ZM117.589 332.741L116.956 331.856L111.92 324.807H114.088L118.152 330.495L118.785 331.381L124.068 338.775H121.899L117.589 332.741Z" fill="#1A1A1A"/>
<rect x="146" y="315.768" width="32" height="32" rx="16" fill="#F2F2F6"/>
<g clip-path="url(#clip0_174_1796)">
<path d="M165.234 323.768H158.767C156.139 323.768 154.001 325.906 154.001 328.534V335.001C154.001 337.629 156.139 339.768 158.767 339.768H165.234C167.863 339.768 170.001 337.629 170.001 335.001V328.534C170.001 325.906 167.863 323.768 165.234 323.768ZM168.391 335.001C168.391 336.745 166.978 338.158 165.234 338.158H158.767C157.024 338.158 155.611 336.745 155.611 335.001V328.534C155.611 326.791 157.024 325.377 158.767 325.377H165.234C166.978 325.377 168.391 326.791 168.391 328.534V335.001Z" fill="url(#paint0_linear_174_1796)"/>
<path d="M162 327.629C159.719 327.629 157.862 329.486 157.862 331.768C157.862 334.049 159.719 335.906 162 335.906C164.282 335.906 166.139 334.049 166.139 331.768C166.139 329.486 164.282 327.629 162 327.629ZM162 334.296C160.604 334.296 159.472 333.164 159.472 331.768C159.472 330.371 160.604 329.239 162 329.239C163.397 329.239 164.529 330.371 164.529 331.768C164.529 333.164 163.397 334.296 162 334.296Z" fill="url(#paint1_linear_174_1796)"/>
<path d="M166.147 328.652C166.695 328.652 167.138 328.208 167.138 327.661C167.138 327.113 166.695 326.669 166.147 326.669C165.599 326.669 165.155 327.113 165.155 327.661C165.155 328.208 165.599 328.652 166.147 328.652Z" fill="url(#paint2_linear_174_1796)"/>
</g>
<rect x="190" y="315.768" width="32" height="32" rx="16" fill="#F2F2F6"/>
<g clip-path="url(#clip1_174_1796)">
<path fill-rule="evenodd" clip-rule="evenodd" d="M199.777 339.768H212.221C213.203 339.768 213.999 338.972 213.999 337.99V325.545C213.999 324.564 213.203 323.768 212.221 323.768H199.777C198.795 323.768 197.999 324.564 197.999 325.545V337.99C197.999 338.972 198.795 339.768 199.777 339.768Z" fill="#007EBB"/>
<path fill-rule="evenodd" clip-rule="evenodd" d="M211.777 337.545H209.403V333.501C209.403 332.393 208.982 331.773 208.104 331.773C207.149 331.773 206.651 332.418 206.651 333.501V337.545H204.362V329.842H206.651V330.879C206.651 330.879 207.339 329.606 208.973 329.606C210.607 329.606 211.777 330.604 211.777 332.668V337.545ZM201.633 328.833C200.853 328.833 200.222 328.196 200.222 327.411C200.222 326.626 200.853 325.99 201.633 325.99C202.412 325.99 203.043 326.626 203.043 327.411C203.043 328.196 202.412 328.833 201.633 328.833ZM200.451 337.545H202.837V329.842H200.451V337.545Z" fill="white"/>
</g>
</g>
<rect x="60" y="371.768" width="204" height="48" rx="12" fill="url(#paint3_linear_174_1796)"/>
<path d="M144.94 402.46C142.572 402.46 140.556 401.132 139.9 399.116L141.98 398.14C142.556 399.532 143.756 400.3 144.94 400.3C146.156 400.3 146.876 399.74 146.876 399.036C146.876 398.412 146.444 398.076 145.74 397.852L143.308 397.084C141.276 396.444 140.316 395.292 140.316 393.708C140.316 391.58 142.028 390.156 144.604 390.156C146.892 390.156 148.684 391.42 149.324 393.18L147.244 394.156C146.844 393.02 145.884 392.316 144.604 392.316C143.516 392.316 142.796 392.876 142.796 393.612C142.796 394.172 143.212 394.588 143.98 394.828L146.348 395.564C148.348 396.188 149.356 397.26 149.356 398.892C149.356 401.036 147.596 402.46 144.94 402.46ZM155.332 393.34C157.3 393.34 158.644 394.652 158.644 396.636V402.268H156.244V397.148C156.244 396.156 155.588 395.5 154.644 395.5C153.7 395.5 153.044 396.156 153.044 397.148V402.268H150.644V390.348H153.044V394.332C153.524 393.66 154.356 393.34 155.332 393.34ZM163.793 393.34C166.017 393.34 167.537 394.636 167.537 396.508V402.268H165.297V401.468C164.641 402.156 163.841 402.46 162.833 402.46C160.849 402.46 159.601 401.34 159.601 399.884C159.601 398.588 160.625 397.74 162.401 397.372L165.137 396.796V396.508C165.137 395.852 164.593 395.42 163.793 395.42C162.945 395.42 162.241 395.916 161.985 396.7L159.921 395.708C160.433 394.268 161.937 393.34 163.793 393.34ZM163.201 400.7C164.289 400.7 165.137 399.916 165.137 398.94V398.524L162.833 399.036C162.337 399.148 162.081 399.452 162.081 399.852C162.081 400.38 162.513 400.7 163.201 400.7ZM173.424 393.436H174.336V395.516H173.184C172.016 395.516 171.216 396.268 171.216 397.564V402.268H168.816V393.532H171.056V394.844C171.504 393.756 172.352 393.436 173.424 393.436ZM183.572 397.644C183.572 397.996 183.54 398.332 183.46 398.572H177.316C177.46 399.676 178.244 400.38 179.428 400.38C180.276 400.38 180.9 400.012 181.236 399.42L183.156 400.332C182.628 401.612 181.188 402.46 179.396 402.46C176.628 402.46 174.82 400.412 174.82 397.884C174.82 395.276 176.74 393.34 179.236 393.34C181.684 393.34 183.572 395.228 183.572 397.644ZM177.364 396.812H181.028C180.932 395.884 180.228 395.26 179.236 395.26C178.292 395.26 177.604 395.804 177.364 396.812Z" fill="white"/>
<rect x="219.796" y="411.5" width="71" height="30" rx="12" fill="#F05D5D"/>
<path d="M232.908 431.644C232.276 431.644 231.692 431.532 231.156 431.308C230.628 431.076 230.164 430.752 229.764 430.336C229.372 429.92 229.068 429.432 228.852 428.872C228.636 428.312 228.528 427.7 228.528 427.036C228.528 426.364 228.636 425.748 228.852 425.188C229.068 424.628 229.372 424.14 229.764 423.724C230.156 423.308 230.62 422.988 231.156 422.764C231.692 422.532 232.276 422.416 232.908 422.416C233.524 422.416 234.076 422.524 234.564 422.74C235.06 422.956 235.476 423.236 235.812 423.58C236.156 423.924 236.4 424.292 236.544 424.684L235.464 425.176C235.256 424.68 234.932 424.28 234.492 423.976C234.052 423.664 233.524 423.508 232.908 423.508C232.284 423.508 231.728 423.656 231.24 423.952C230.76 424.248 230.384 424.66 230.112 425.188C229.84 425.716 229.704 426.332 229.704 427.036C229.704 427.732 229.84 428.344 230.112 428.872C230.384 429.4 230.76 429.812 231.24 430.108C231.728 430.404 232.284 430.552 232.908 430.552C233.524 430.552 234.052 430.4 234.492 430.096C234.932 429.784 235.256 429.38 235.464 428.884L236.544 429.376C236.4 429.768 236.156 430.136 235.812 430.48C235.476 430.824 235.06 431.104 234.564 431.32C234.076 431.536 233.524 431.644 232.908 431.644ZM238.011 431.5V422.416H239.127V426.292L238.923 426.184C239.083 425.776 239.339 425.46 239.691 425.236C240.051 425.004 240.471 424.888 240.951 424.888C241.415 424.888 241.827 424.992 242.187 425.2C242.555 425.408 242.843 425.696 243.051 426.064C243.267 426.432 243.375 426.848 243.375 427.312V431.5H242.247V427.672C242.247 427.312 242.179 427.008 242.043 426.76C241.915 426.512 241.735 426.32 241.503 426.184C241.271 426.04 241.003 425.968 240.699 425.968C240.403 425.968 240.135 426.04 239.895 426.184C239.655 426.32 239.467 426.516 239.331 426.772C239.195 427.02 239.127 427.32 239.127 427.672V431.5H238.011ZM244.972 431.5V425.032H246.088V431.5H244.972ZM244.972 424V422.56H246.088V424H244.972ZM247.82 431.5V425.032H248.912V426.292L248.732 426.184C248.892 425.776 249.148 425.46 249.5 425.236C249.86 425.004 250.28 424.888 250.76 424.888C251.224 424.888 251.636 424.992 251.996 425.2C252.364 425.408 252.652 425.696 252.86 426.064C253.076 426.432 253.184 426.848 253.184 427.312V431.5H252.056V427.672C252.056 427.312 251.992 427.008 251.864 426.76C251.736 426.512 251.552 426.32 251.312 426.184C251.08 426.04 250.812 425.968 250.508 425.968C250.204 425.968 249.932 426.04 249.692 426.184C249.46 426.32 249.276 426.516 249.14 426.772C249.004 427.02 248.936 427.32 248.936 427.672V431.5H247.82ZM257.853 431.644C257.229 431.644 256.665 431.5 256.161 431.212C255.657 430.916 255.257 430.512 254.961 430C254.665 429.488 254.517 428.908 254.517 428.26C254.517 427.612 254.661 427.036 254.949 426.532C255.245 426.028 255.645 425.628 256.149 425.332C256.653 425.036 257.221 424.888 257.853 424.888C258.477 424.888 259.041 425.036 259.545 425.332C260.049 425.62 260.445 426.016 260.733 426.52C261.029 427.024 261.177 427.604 261.177 428.26C261.177 428.916 261.025 429.5 260.721 430.012C260.417 430.516 260.013 430.916 259.509 431.212C259.013 431.5 258.461 431.644 257.853 431.644ZM257.853 430.564C258.253 430.564 258.613 430.464 258.933 430.264C259.261 430.064 259.517 429.788 259.701 429.436C259.893 429.084 259.989 428.692 259.989 428.26C259.989 427.82 259.893 427.432 259.701 427.096C259.517 426.752 259.261 426.48 258.933 426.28C258.613 426.072 258.253 425.968 257.853 425.968C257.445 425.968 257.077 426.072 256.749 426.28C256.429 426.48 256.173 426.752 255.981 427.096C255.789 427.432 255.693 427.82 255.693 428.26C255.693 428.692 255.789 429.084 255.981 429.436C256.173 429.788 256.429 430.064 256.749 430.264C257.077 430.464 257.445 430.564 257.853 430.564ZM262.633 431.5V425.032H263.725V426.292L263.545 426.184C263.705 425.776 263.961 425.46 264.313 425.236C264.673 425.004 265.093 424.888 265.573 424.888C266.037 424.888 266.449 424.992 266.809 425.2C267.177 425.408 267.465 425.696 267.673 426.064C267.889 426.432 267.997 426.848 267.997 427.312V431.5H266.869V427.672C266.869 427.312 266.805 427.008 266.677 426.76C266.549 426.512 266.365 426.32 266.125 426.184C265.893 426.04 265.625 425.968 265.321 425.968C265.017 425.968 264.745 426.04 264.505 426.184C264.273 426.32 264.089 426.516 263.953 426.772C263.817 427.02 263.749 427.32 263.749 427.672V431.5H262.633ZM271.909 431.644C271.261 431.644 270.697 431.484 270.217 431.164C269.737 430.844 269.397 430.412 269.197 429.868L270.085 429.436C270.269 429.82 270.521 430.124 270.841 430.348C271.161 430.572 271.517 430.684 271.909 430.684C272.261 430.684 272.553 430.6 272.785 430.432C273.017 430.264 273.133 430.044 273.133 429.772C273.133 429.58 273.077 429.428 272.965 429.316C272.861 429.196 272.733 429.104 272.581 429.04C272.429 428.968 272.289 428.916 272.161 428.884L271.189 428.608C270.605 428.44 270.177 428.2 269.905 427.888C269.641 427.576 269.509 427.212 269.509 426.796C269.509 426.412 269.605 426.08 269.797 425.8C269.997 425.512 270.265 425.288 270.601 425.128C270.945 424.968 271.329 424.888 271.753 424.888C272.321 424.888 272.829 425.032 273.277 425.32C273.733 425.608 274.057 426.012 274.249 426.532L273.337 426.952C273.193 426.616 272.977 426.352 272.689 426.16C272.401 425.96 272.077 425.86 271.717 425.86C271.389 425.86 271.129 425.944 270.937 426.112C270.745 426.272 270.649 426.476 270.649 426.724C270.649 426.908 270.697 427.06 270.793 427.18C270.889 427.292 271.005 427.38 271.141 427.444C271.277 427.5 271.409 427.548 271.537 427.588L272.593 427.9C273.121 428.052 273.529 428.288 273.817 428.608C274.113 428.928 274.261 429.312 274.261 429.76C274.261 430.12 274.161 430.444 273.961 430.732C273.761 431.02 273.485 431.244 273.133 431.404C272.781 431.564 272.373 431.644 271.909 431.644ZM278.794 431.644C278.17 431.644 277.606 431.5 277.102 431.212C276.598 430.916 276.198 430.512 275.902 430C275.606 429.488 275.458 428.908 275.458 428.26C275.458 427.612 275.602 427.036 275.89 426.532C276.186 426.028 276.586 425.628 277.09 425.332C277.594 425.036 278.162 424.888 278.794 424.888C279.418 424.888 279.982 425.036 280.486 425.332C280.99 425.62 281.386 426.016 281.674 426.52C281.97 427.024 282.118 427.604 282.118 428.26C282.118 428.916 281.966 429.5 281.662 430.012C281.358 430.516 280.954 430.916 280.45 431.212C279.954 431.5 279.402 431.644 278.794 431.644ZM278.794 430.564C279.194 430.564 279.554 430.464 279.874 430.264C280.202 430.064 280.458 429.788 280.642 429.436C280.834 429.084 280.93 428.692 280.93 428.26C280.93 427.82 280.834 427.432 280.642 427.096C280.458 426.752 280.202 426.48 279.874 426.28C279.554 426.072 279.194 425.968 278.794 425.968C278.386 425.968 278.018 426.072 277.69 426.28C277.37 426.48 277.114 426.752 276.922 427.096C276.73 427.432 276.634 427.82 276.634 428.26C276.634 428.692 276.73 429.084 276.922 429.436C277.114 429.788 277.37 430.064 277.69 430.264C278.018 430.464 278.386 430.564 278.794 430.564Z" fill="white"/>
<path d="M215.798 398.498C215.798 398.312 215.85 398.13 215.947 397.972C216.045 397.814 216.185 397.687 216.351 397.604C216.517 397.521 216.703 397.485 216.888 397.502C217.073 397.519 217.249 397.587 217.398 397.698L225.396 403.7C226.164 404.276 225.756 405.5 224.796 405.5H220.849C220.696 405.5 220.544 405.535 220.407 405.603C220.269 405.67 220.149 405.769 220.056 405.89L217.59 409.105C217.009 409.863 215.797 409.452 215.797 408.496L215.798 398.498Z" fill="#F05D5D"/>
</g>
<defs>
<filter id="filter0_b_174_1796" x="-48.9815" y="-48.9815" width="421.963" height="551.731" filterUnits="userSpaceOnUse" color-interpolation-filters="sRGB">
<feFlood flood-opacity="0" result="BackgroundImageFix"/>
<feGaussianBlur in="BackgroundImageFix" stdDeviation="24.4907"/>
<feComposite in2="SourceAlpha" operator="in" result="effect1_backgroundBlur_174_1796"/>
<feBlend mode="normal" in="SourceGraphic" in2="effect1_backgroundBlur_174_1796" result="shape"/>
</filter>
<filter id="filter1_d_174_1796" x="81.5" y="295.268" width="161" height="73" filterUnits="userSpaceOnUse" color-interpolation-filters="sRGB">
<feFlood flood-opacity="0" result="BackgroundImageFix"/>
<feColorMatrix in="SourceAlpha" type="matrix" values="0 0 0 0 0 0 0 0 0 0 0 0 0 0 0 0 0 0 127 0" result="hardAlpha"/>
<feOffset/>
<feGaussianBlur stdDeviation="6"/>
<feComposite in2="hardAlpha" operator="out"/>
<feColorMatrix type="matrix" values="0 0 0 0 0.164818 0 0 0 0 0.145189 0 0 0 0 0.243333 0 0 0 0.08 0"/>
<feBlend mode="normal" in2="BackgroundImageFix" result="effect1_dropShadow_174_1796"/>
<feBlend mode="normal" in="SourceGraphic" in2="effect1_dropShadow_174_1796" result="shape"/>
</filter>
<linearGradient id="paint0_linear_174_1796" x1="162.001" y1="339.721" x2="162.001" y2="323.892" gradientUnits="userSpaceOnUse">
<stop stop-color="#E09B3D"/>
<stop offset="0.3" stop-color="#C74C4D"/>
<stop offset="0.6" stop-color="#C21975"/>
<stop offset="1" stop-color="#7024C4"/>
</linearGradient>
<linearGradient id="paint1_linear_174_1796" x1="162" y1="339.721" x2="162" y2="323.892" gradientUnits="userSpaceOnUse">
<stop stop-color="#E09B3D"/>
<stop offset="0.3" stop-color="#C74C4D"/>
<stop offset="0.6" stop-color="#C21975"/>
<stop offset="1" stop-color="#7024C4"/>
</linearGradient>
<linearGradient id="paint2_linear_174_1796" x1="166.147" y1="339.721" x2="166.147" y2="323.892" gradientUnits="userSpaceOnUse">
<stop stop-color="#E09B3D"/>
<stop offset="0.3" stop-color="#C74C4D"/>
<stop offset="0.6" stop-color="#C21975"/>
<stop offset="1" stop-color="#7024C4"/>
</linearGradient>
<linearGradient id="paint3_linear_174_1796" x1="59.5" y1="408.768" x2="275.5" y2="371.768" gradientUnits="userSpaceOnUse">
<stop stop-color="#157BEB"/>
<stop offset="1" stop-color="#C790F3"/>
</linearGradient>
<clipPath id="clip0_174_1796">
<rect width="16" height="16" fill="white" transform="translate(154 323.768)"/>
</clipPath>
<clipPath id="clip1_174_1796">
<rect width="16" height="16" fill="white" transform="translate(198 323.768)"/>
</clipPath>
</defs>
</svg>
